<svg width="330" height="436" viewBox="0 0 330 436" fill="none" xmlns="http://www.w3.org/2000/svg">
<path d="M5.65404 434.344C5.84394 435.432 6.87998 436.16 7.9681 435.97C9.05623 435.78 9.78438 434.744 9.59448 433.656L5.65404 434.344ZM330 10L308.961 0.477125L311.233 23.4591L330 10ZM9.1186 430.858C8.93805 429.769 7.90829 429.032 6.81858 429.212C5.72887 429.393 4.99185 430.422 5.17241 431.512L9.1186 430.858ZM2.72808 414.094C2.85552 415.191 3.84827 415.977 4.94547 415.849C6.04266 415.722 6.82881 414.729 6.70137 413.632L2.72808 414.094ZM6.06815 407.79C5.95746 406.691 4.9768 405.89 3.87779 406C2.77878 406.111 1.97759 407.092 2.08829 408.191L6.06815 407.79ZM0.708627 390.698C0.77209 391.801 1.71749 392.643 2.82023 392.58C3.92298 392.516 4.76548 391.571 4.70202 390.468L0.708627 390.698ZM4.40865 384.672C4.36042 383.568 3.42674 382.713 2.32323 382.761C1.21971 382.809 0.364236 383.743 0.412469 384.846L4.40865 384.672ZM0.00210452 367.233C0.00552249 368.338 0.90372 369.231 2.00828 369.227C3.11285 369.224 4.0055 368.326 4.00209 367.221L0.00210452 367.233ZM4.0227 361.422C4.03396 360.317 3.1477 359.413 2.04319 359.401C0.938675 359.39 0.0341644 360.276 0.0229061 361.381L4.0227 361.422ZM0.551358 343.807C0.496256 344.91 1.3459 345.849 2.4491 345.904C3.55229 345.959 4.49128 345.11 4.54638 344.006L0.551358 343.807ZM4.87507 338.199C4.94479 337.096 4.10768 336.146 3.00531 336.076C1.90294 336.007 0.952772 336.844 0.883045 337.946L4.87507 338.199ZM2.34466 320.407C2.23087 321.505 3.0293 322.488 4.12799 322.602C5.22668 322.716 6.20959 321.918 6.32338 320.819L2.34466 320.407ZM6.96113 315.041C7.08973 313.944 6.30463 312.95 5.20757 312.822C4.11051 312.693 3.11693 313.478 2.98833 314.575L6.96113 315.041ZM5.3924 297.152C5.21891 298.243 5.96259 299.268 7.05345 299.442C8.14431 299.615 9.16927 298.871 9.34275 297.781L5.3924 297.152ZM10.2934 292.06C10.482 290.971 9.75262 289.936 8.66427 289.747C7.57593 289.559 6.54074 290.288 6.35211 291.376L10.2934 292.06ZM9.72426 274.105C9.48941 275.184 10.174 276.25 11.2533 276.484C12.3326 276.719 13.398 276.035 13.6328 274.955L9.72426 274.105ZM14.9137 269.268C15.1643 268.192 14.4953 267.117 13.4195 266.867C12.3438 266.616 11.2686 267.285 11.018 268.361L14.9137 269.268ZM15.3896 251.313C15.0912 252.377 15.7115 253.481 16.775 253.779C17.8386 254.077 18.9426 253.457 19.2409 252.394L15.3896 251.313ZM20.847 246.831C21.1615 245.772 20.5581 244.659 19.4992 244.344C18.4404 244.03 17.3271 244.633 17.0126 245.692L20.847 246.831ZM22.417 228.939C22.0531 229.982 22.6036 231.122 23.6465 231.486C24.6894 231.85 25.8298 231.299 26.1937 230.256L22.417 228.939ZM28.1487 224.794C28.5293 223.757 27.9972 222.608 26.9603 222.228C25.9233 221.847 24.7742 222.379 24.3936 223.416L28.1487 224.794ZM30.8648 207.041C30.4334 208.058 30.9079 209.232 31.9248 209.663C32.9416 210.095 34.1156 209.62 34.5471 208.603L30.8648 207.041ZM36.8648 203.267C37.3134 202.258 36.8588 201.076 35.8494 200.627C34.8401 200.178 33.6582 200.633 33.2095 201.642L36.8648 203.267ZM40.7754 185.741C40.2749 186.725 40.6674 187.929 41.6521 188.43C42.6367 188.93 43.8407 188.538 44.3412 187.553L40.7754 185.741ZM47.012 182.412C47.5299 181.437 47.1588 180.226 46.1832 179.708C45.2076 179.19 43.9968 179.561 43.4789 180.537L47.012 182.412ZM52.1583 165.205C51.588 166.151 51.8926 167.38 52.8386 167.95C53.7846 168.52 55.0137 168.216 55.584 167.27L52.1583 165.205ZM58.6175 162.341C59.2052 161.406 58.9234 160.171 57.9881 159.584C57.0528 158.996 55.8182 159.278 55.2306 160.213L58.6175 162.341ZM65.0198 145.565C64.3803 146.466 64.5919 147.714 65.4924 148.354C66.393 148.993 67.6415 148.782 68.2811 147.881L65.0198 145.565ZM71.6873 143.181C72.344 142.293 72.1564 141.04 71.2682 140.383C70.3801 139.727 69.1277 139.914 68.471 140.803L71.6873 143.181ZM79.3498 126.947C78.6427 127.796 78.7573 129.057 79.6059 129.764C80.4544 130.471 81.7155 130.357 82.4227 129.508L79.3498 126.947ZM86.1971 125.068C86.9207 124.234 86.8309 122.971 85.9964 122.247C85.1619 121.523 83.8988 121.613 83.1751 122.448L86.1971 125.068ZM95.0995 109.488C94.3279 110.278 94.3433 111.544 95.1337 112.316C95.9242 113.087 97.1904 113.072 97.962 112.282L95.0995 109.488ZM102.044 108.18C102.831 107.405 102.841 106.139 102.066 105.352C101.29 104.565 100.024 104.556 99.2373 105.331L102.044 108.18ZM112.166 93.3266C111.335 94.054 111.25 95.3175 111.978 96.1488C112.705 96.98 113.969 97.0642 114.8 96.3368L112.166 93.3266ZM119.169 92.5881C120.014 91.877 120.123 90.6153 119.412 89.7701C118.7 88.9249 117.439 88.8162 116.594 89.5273L119.169 92.5881ZM130.411 78.5732C129.526 79.234 129.344 80.4872 130.005 81.3723C130.666 82.2574 131.919 82.4392 132.804 81.7784L130.411 78.5732ZM137.464 78.3677C138.362 77.7238 138.567 76.4743 137.924 75.5768C137.28 74.6793 136.03 74.4736 135.133 75.1175L137.464 78.3677ZM149.735 65.2565C148.803 65.8487 148.527 67.0847 149.119 68.0171C149.711 68.9495 150.947 69.2253 151.88 68.6331L149.735 65.2565ZM156.799 65.572C157.742 64.9971 158.041 63.7665 157.466 62.8233C156.891 61.8802 155.66 61.5817 154.717 62.1566L156.799 65.572ZM169.993 53.4056C169.02 53.9287 168.655 55.1414 169.178 56.1142C169.701 57.0871 170.914 57.4516 171.887 56.9285L169.993 53.4056ZM177.028 54.222C178.01 53.7161 178.396 52.51 177.89 51.5281C177.384 50.5462 176.178 50.1603 175.196 50.6663L177.028 54.222ZM191.033 43.0162C190.027 43.4712 189.58 44.656 190.035 45.6625C190.49 46.669 191.675 47.1161 192.681 46.661L191.033 43.0162ZM198.005 44.3072C199.019 43.8689 199.486 42.6917 199.048 41.6778C198.609 40.6639 197.432 40.1972 196.418 40.6355L198.005 44.3072ZM212.714 34.0553C211.68 34.4444 211.158 35.5979 211.547 36.6316C211.936 37.6654 213.089 38.188 214.123 37.7989L212.714 34.0553ZM219.59 35.7898C220.63 35.4168 221.17 34.2716 220.797 33.2319C220.424 32.1922 219.279 31.6518 218.239 32.0247L219.59 35.7898ZM234.906 26.4665C233.851 26.7926 233.26 27.9125 233.586 28.9678C233.912 30.0232 235.032 30.6143 236.087 30.2881L234.906 26.4665ZM241.657 28.6106C242.717 28.2997 243.324 27.1884 243.013 26.1285C242.702 25.0686 241.591 24.4615 240.531 24.7724L241.657 28.6106ZM257.501 20.1772C256.429 20.444 255.776 21.5292 256.043 22.6011C256.31 23.6729 257.395 24.3256 258.467 24.0588L257.501 20.1772ZM264.102 22.6961C265.177 22.4435 265.844 21.3671 265.591 20.2918C265.339 19.2165 264.262 18.5495 263.187 18.802L264.102 22.6961ZM280.413 15.1065C279.329 15.3177 278.621 16.3678 278.832 17.452C279.044 18.5362 280.094 19.2439 281.178 19.0327L280.413 15.1065ZM286.844 17.9649C287.931 17.7669 288.651 16.7255 288.453 15.6388C288.255 14.5521 287.214 13.8317 286.127 14.0297L286.844 17.9649ZM303.584 11.1707C302.491 11.3301 301.734 12.3454 301.893 13.4384C302.053 14.5314 303.068 15.2882 304.161 15.1288L303.584 11.1707ZM309.828 14.3345C310.923 14.1872 311.691 13.1804 311.543 12.0857C311.396 10.991 310.389 10.223 309.295 10.3702L309.828 14.3345ZM326.827 8.30397C325.728 8.41559 324.928 9.39693 325.04 10.4958C325.151 11.5948 326.133 12.3951 327.232 12.2835L326.827 8.30397ZM9.59448 433.656C9.43296 432.731 9.27431 431.798 9.1186 430.858L5.17241 431.512C5.32997 432.463 5.49054 433.407 5.65404 434.344L9.59448 433.656ZM6.70137 413.632C6.47772 411.706 6.26646 409.759 6.06815 407.79L2.08829 408.191C2.28862 410.18 2.50208 412.148 2.72808 414.094L6.70137 413.632ZM4.70202 390.468C4.59171 388.551 4.49377 386.619 4.40865 384.672L0.412469 384.846C0.498388 386.812 0.597256 388.763 0.708627 390.698L4.70202 390.468ZM4.00209 367.221C3.99614 365.299 4.00288 363.366 4.0227 361.422L0.0229061 361.381C0.00290918 363.343 -0.00389743 365.294 0.00210452 367.233L4.00209 367.221ZM4.54638 344.006C4.64267 342.079 4.75212 340.142 4.87507 338.199L0.883045 337.946C0.758976 339.908 0.648528 341.861 0.551358 343.807L4.54638 344.006ZM6.32338 320.819C6.52229 318.898 6.73477 316.972 6.96113 315.041L2.98833 314.575C2.75986 316.525 2.54541 318.469 2.34466 320.407L6.32338 320.819ZM9.34275 297.781C9.64553 295.877 9.9623 293.97 10.2934 292.06L6.35211 291.376C6.01787 293.305 5.69806 295.23 5.3924 297.152L9.34275 297.781ZM13.6328 274.955C14.045 273.061 14.4719 271.165 14.9137 269.268L11.018 268.361C10.5717 270.277 10.1406 272.192 9.72426 274.105L13.6328 274.955ZM19.2409 252.394C19.7612 250.539 20.2965 248.685 20.847 246.831L17.0126 245.692C16.4562 247.565 15.9153 249.439 15.3896 251.313L19.2409 252.394ZM26.1937 230.256C26.8297 228.434 27.4813 226.613 28.1487 224.794L24.3936 223.416C23.7188 225.255 23.06 227.096 22.417 228.939L26.1937 230.256ZM34.5471 208.603C35.3033 206.821 36.0758 205.042 36.8648 203.267L33.2095 201.642C32.4113 203.438 31.6298 205.238 30.8648 207.041L34.5471 208.603ZM44.3412 187.553C45.2148 185.835 46.105 184.121 47.012 182.412L43.4789 180.537C42.5608 182.266 41.6597 184.001 40.7754 185.741L44.3412 187.553ZM55.584 167.27C56.5781 165.621 57.5893 163.978 58.6175 162.341L55.2306 160.213C54.1891 161.871 53.1651 163.535 52.1583 165.205L55.584 167.27ZM68.2811 147.881C69.3991 146.307 70.5344 144.74 71.6873 143.181L68.471 140.803C67.3029 142.382 66.1525 143.97 65.0198 145.565L68.2811 147.881ZM82.4227 129.508C83.6631 128.02 84.9212 126.54 86.1971 125.068L83.1751 122.448C81.882 123.939 80.6069 125.439 79.3498 126.947L82.4227 129.508ZM97.962 112.282C99.3053 110.905 100.666 109.538 102.044 108.18L99.2373 105.331C97.8403 106.707 96.4611 108.093 95.0995 109.488L97.962 112.282ZM114.8 96.3368C116.239 95.0774 117.695 93.8278 119.169 92.5881L116.594 89.5273C115.1 90.7837 113.624 92.0502 112.166 93.3266L114.8 96.3368ZM132.804 81.7784C134.341 80.6311 135.894 79.4941 137.464 78.3677L135.133 75.1175C133.542 76.2588 131.968 77.4108 130.411 78.5732L132.804 81.7784ZM151.88 68.6331C153.503 67.6021 155.143 66.5816 156.799 65.572L154.717 62.1566C153.04 63.179 151.379 64.2124 149.735 65.2565L151.88 68.6331ZM171.887 56.9285C173.585 56.0155 175.299 55.1133 177.028 54.222L175.196 50.6663C173.446 51.5683 171.711 52.4814 169.993 53.4056L171.887 56.9285ZM192.681 46.661C194.441 45.8656 196.215 45.0809 198.005 44.3072L196.418 40.6355C194.608 41.418 192.813 42.2116 191.033 43.0162L192.681 46.661ZM214.123 37.7989C215.931 37.1185 217.753 36.4488 219.59 35.7898L218.239 32.0247C216.383 32.6907 214.541 33.3676 212.714 34.0553L214.123 37.7989ZM236.087 30.2881C237.93 29.7185 239.786 29.1593 241.657 28.6106L240.531 24.7724C238.642 25.3265 236.767 25.8912 234.906 26.4665L236.087 30.2881ZM258.467 24.0588C260.332 23.5945 262.21 23.1402 264.102 22.6961L263.187 18.802C261.279 19.2502 259.383 19.7087 257.501 20.1772L258.467 24.0588ZM281.178 19.0327C283.055 18.6672 284.943 18.3112 286.844 17.9649L286.127 14.0297C284.21 14.3789 282.306 14.7379 280.413 15.1065L281.178 19.0327ZM304.161 15.1288C306.039 14.855 307.928 14.5902 309.828 14.3345L309.295 10.3702C307.38 10.6279 305.476 10.8947 303.584 11.1707L304.161 15.1288Z" fill="white"/>
</svg>
