<svg width="241" height="49" viewBox="0 0 241 49" fill="none" xmlns="http://www.w3.org/2000/svg">
<g opacity="0.15">
<path d="M1 47.5481C3.20955 47.5481 13.7872 -2.16838 34.0415 11.8568C41.2005 14.8425 44.2933 16.8305 53.3157 4.4362C56.139 1.17453 63.457 -1.905 72.5899 5.92301C75.6587 5.16193 84.7051 40.6106 94.6175 32.2856C109.486 19.798 106.733 19.1043 115.544 13.5543C130.963 5.923 121.494 44.6125 136.519 21.1285C147.484 6.61675 150.919 27.4293 159.599 18.4105C172.365 5.1464 189.793 3.9522 194.704 9.3865C205.306 21.1188 203.104 25.9751 213.016 19.7313C232.841 17.65 231.189 28.0563 240 15.6355" stroke="#4AC49E"/>
<path d="M33.4068 12.2961C13.1525 -1.72909 3.20955 47.548 1 47.548H240V15.5687C235.044 29.4437 219.074 14.1812 205.306 22.5062C195.945 9.32493 189.887 3.1479 178.873 7.31041C156.839 15.6378 159.599 22.2184 155.744 21.1284C148.585 19.1042 144.73 12.1667 136.519 21.1284C123.253 40.6105 130.412 15.6354 118.848 12.1667C98.4724 22.5729 92.4147 41.3042 86.9078 30.898C81.9516 27.3256 75.511 5.01161 72.4422 5.77269C63.3094 -2.05532 55.3796 2.51102 52.5562 5.77269C43.5339 18.167 34.5116 12.2961 33.4068 12.2961Z" fill="url(#paint0_linear_99_3978)"/>
</g>
<defs>
<linearGradient id="paint0_linear_99_3978" x1="120.5" y1="-5.17645" x2="120.5" y2="47.5487" gradientUnits="userSpaceOnUse">
<stop stop-color="#4AC49E" stop-opacity="0.85"/>
<stop offset="1" stop-color="#4AC49E" stop-opacity="0"/>
</linearGradient>
</defs>
</svg>
