<svg width="28" height="18" viewBox="0 0 28 18" fill="none" xmlns="http://www.w3.org/2000/svg">
<path d="M26.7392 3.15662C26.5204 3.08194 26.3323 2.90183 26.236 2.66462C25.5884 1.17545 24.1664 0.455026 23.09 0.112385C22.4337 -0.0940778 21.7337 -0.0150071 21.1605 0.340812C20.9636 0.468204 20.7798 0.56924 20.6048 0.657096C19.7516 1.09199 18.8284 1.21499 18.0101 0.990952C16.7588 0.657097 15.5818 1.03927 14.8073 1.41706C14.103 1.77164 13.3086 1.90482 12.5277 1.79923C9.5349 1.37313 7.02777 1.60156 7.02777 1.60156C6.89213 1.60156 3.86432 1.56641 1.80786 3.91658C0.215193 5.72203 -0.327363 8.42802 0.18894 11.9423L0.884637 17.7276C0.897763 17.8375 0.994023 17.9165 1.09903 17.9165H5.19008C5.28238 17.9171 5.37389 17.8994 5.45933 17.8643C5.54477 17.8292 5.62246 17.7776 5.68794 17.7122C5.75341 17.6469 5.80537 17.5692 5.84082 17.4837C5.87628 17.3981 5.89453 17.3064 5.89453 17.2137C5.89453 16.9853 5.78077 16.77 5.58825 16.6338L4.21873 15.6938V15.0436L5.52261 13.4973L6.66898 16.502V17.7847C6.66898 17.9077 6.76524 18 6.88338 18H11.1232C11.5082 18 11.8233 17.6837 11.8233 17.2971V17.117C11.8233 16.8491 11.6657 16.5987 11.4207 16.4845L9.52178 15.5795L10.305 11.6611C11.2063 11.6348 11.9677 11.4898 12.5846 11.2219V17.7057C12.5846 17.8287 12.6809 17.9209 12.799 17.9209H16.7413C17.1394 17.9209 17.4632 17.5959 17.4632 17.2005C17.4632 16.9677 17.3451 16.748 17.1569 16.6119L15.5074 15.439L16.225 13.449C16.3519 13.1108 16.4787 12.7769 16.6231 12.4475L18.2333 16.3132V17.7847C18.2333 17.9077 18.3339 18 18.4477 18H22.4819C22.8844 18 23.2038 17.6749 23.2038 17.2796V17.1961C23.2038 16.9238 23.0463 16.669 22.7969 16.546L21.4536 15.887L19.5416 7.7647C21.0861 6.27553 23.2563 5.60343 25.409 6.01196C25.5403 6.03832 25.6103 6.05589 25.6453 6.06028C27.6974 6.20085 27.9162 5.07189 27.9162 5.05432C28.1962 4.2109 27.7674 3.51683 26.7392 3.15662ZM24.4727 3.14783C24.2145 3.14783 24.0045 2.93698 24.0045 2.6778C24.0045 2.41862 24.2145 2.21216 24.4727 2.21216C24.7265 2.21216 24.9365 2.42302 24.9365 2.6778C24.9365 2.93698 24.7308 3.14783 24.4727 3.14783Z" fill="#FF9E9E"/>
</svg>
