<svg width="27" height="18" viewBox="0 0 27 18" fill="none" xmlns="http://www.w3.org/2000/svg">
<path d="M26.5014 14.7441C26.3598 14.7524 26.0528 13.595 26.0667 12.7143C26.0739 12.2525 26.1363 11.9563 26.2309 11.7785C26.193 11.6439 26.1479 11.509 26.0997 11.3655C25.9222 10.837 25.7012 10.1793 25.717 9.07961C25.7333 7.9515 25.5995 7.10445 25.3273 6.56996C25.3256 6.61113 25.3234 6.65292 25.319 6.69721C25.2461 7.41252 25.0508 8.29687 24.8486 9.08266L25.564 13.2265C25.5829 13.3356 25.582 13.4471 25.5612 13.5558L25.0616 16.1828C24.9807 16.7785 24.8714 17.2124 24.8433 17.3186C24.7353 17.7278 24.3678 18 23.9638 18C23.8967 18 23.8285 17.9925 23.7604 17.9768C23.2823 17.8669 22.9764 17.3956 23.0686 16.9108L23.2546 15.9327C23.3561 15.1712 23.3937 14.1794 23.114 13.4958C22.7234 12.5404 22.0532 12.2653 20.992 11.8955C20.9894 11.8946 20.9868 11.8937 20.9842 11.8928C20.4214 12.2967 19.8585 12.6881 19.4324 12.8401C19.1647 12.9356 19.5659 11.7222 19.3518 11.7821C19.1345 11.8428 18.1625 13.1896 17.7651 13.2324C15.9661 13.4261 13.1251 14.1626 11.5285 14.2973L11.0868 17.4457C11.0444 17.7479 10.7874 17.9714 10.4859 17.9714C10.4803 17.9714 10.4745 17.9713 10.4689 17.9712C10.1601 17.9626 9.90695 17.7221 9.88063 17.4122L9.48115 12.6986C9.39993 12.5384 9.32182 12.3759 9.24703 12.2126L9.2118 12.7598L7.44295 8.8207L5.87222 8.78767L4.44418 8.01589L3.07905 8.95685L2.88033 8.72351L2.80509 8.68622C2.71828 8.92793 2.48863 9.10153 2.21883 9.10153C1.87484 9.10153 1.59498 8.81986 1.59498 8.47366C1.59498 8.13583 1.86176 7.86017 2.19432 7.84701L2.91715 5.26361L3.76725 4.38771L4.56902 3.92674C4.37106 3.87948 4.13853 3.86586 3.86336 3.90391C2.25883 4.12553 -0.149748 1.90828 0.00731087 1.81071C0.150002 1.72205 1.37773 3.17376 4.33771 2.98121C2.90921 2.32602 1.58855 0.0430859 1.74886 0.000771291C1.92747 -0.0463379 2.82044 2.07845 6.48828 2.56697C7.22623 2.66522 7.5687 3.194 7.72409 3.73389L7.89257 3.79044L10.9117 4.02096L9.86506 6.22497L11.448 3.98025C11.448 3.98025 14.7094 3.674 17.3681 5.01916C19.5278 6.11181 22.8006 5.7379 23.3921 5.65875C23.7748 5.47359 24.4454 5.25387 25.056 5.58112C25.8442 6.00358 26.2299 7.18299 26.2026 9.08661C26.1879 10.1023 26.3854 10.6902 26.5597 11.2088C26.602 11.3347 26.6436 11.459 26.6809 11.5857C26.8737 11.6794 27.0107 12.003 26.9993 12.729C26.9857 13.6098 26.643 14.7358 26.5014 14.7441ZM1.82176 8.47374C1.82176 8.69406 1.99984 8.87329 2.21875 8.87329C2.3994 8.87329 2.55056 8.75046 2.59842 8.58401L2.24915 8.41095L2.20325 8.07578C1.99167 8.08415 1.82176 8.25874 1.82176 8.47374ZM3.99743 5.51179C3.90714 5.33682 3.2777 5.6659 3.36799 5.84079C3.45827 6.01576 3.67235 6.08395 3.84619 5.99308C4.02004 5.90214 4.08772 5.68668 3.99743 5.51179Z" fill="#77CEFF"/>
</svg>
