<svg width="165" height="94" viewBox="0 0 165 94" fill="none" xmlns="http://www.w3.org/2000/svg">
<path d="M0.559938 0.500145L8.42051 15.0044L12.8465 15.6973L12.8419 15.6927L10.8505 0L16.6687 11.5905L24.9804 14.7796L42.8167 15.6192L63.8941 3.56067L78.401 9.47983L87.6474 21.1484L116.689 30.8806L135.335 32.0369L157.605 36.3363L164.496 54.0158L158.198 67.0655L161.036 54.0158L152.979 39.1445L139.479 37.9285L146.027 47.2386L146.183 53.3551L138.947 65.4687L141.663 80.7805L136.027 92.9263L126.237 93.119L134.403 81.1935L126.999 71.5852L112.608 85.7361L111.437 93.3392L102.356 94L106.749 84.5798L111.053 77.9724L108.844 71.8605L76.6659 69.1579L68.289 74.8338L77.9956 91.9168L68.5818 91.7975L57.6783 72.9204L60.1141 65.7119L42.594 66.9921L49.3451 83.7539L40.1285 81.4596L35.1604 62.5871L45.8824 57.627L38.7683 53.8414L32.4602 41.9985L17.7364 47.2386L11.8233 47.5093L6.13625 45.082L12.758 33.0234L10.9538 26.0076L11.6549 24.0024L3.71546 20.3775L0.559938 0.500145Z" fill="url(#paint0_radial_394_16034)"/>
<defs>
<radialGradient id="paint0_radial_394_16034" cx="0" cy="0" r="1" gradientUnits="userSpaceOnUse" gradientTransform="translate(176.291 17.7437) scale(171.424 171.619)">
<stop offset="0.03" stop-color="#03B300"/>
<stop offset="0.08" stop-color="#039900"/>
<stop offset="0.18" stop-color="#027100"/>
<stop offset="0.29" stop-color="#014E00"/>
<stop offset="0.4" stop-color="#013100"/>
<stop offset="0.51" stop-color="#001B00"/>
<stop offset="0.64" stop-color="#000C00"/>
<stop offset="0.79" stop-color="#000300"/>
<stop offset="1"/>
</radialGradient>
</defs>
</svg>
