<svg width="131" height="75" viewBox="0 0 131 75" fill="none" xmlns="http://www.w3.org/2000/svg">
<circle cx="37.5" cy="37.5" r="37.5" fill="#94C2FA" fill-opacity="0.2"/>
<circle cx="37.5" cy="37.5" r="31.5" fill="#3390FF"/>
<path d="M39.913 28.5833L35.5431 28.5929L35.5682 40.0716L39.9381 40.0621L39.913 28.5833Z" fill="white"/>
<path d="M48.6668 35.1231L44.2969 35.1327L44.3184 44.9716L48.6883 44.962L48.6668 35.1231Z" fill="white"/>
<path d="M31.0047 38.4414L26.6338 38.451L26.6625 51.5695L31.0334 51.56L31.0047 38.4414Z" fill="white"/>
<path d="M88.2393 35.174C88.1882 34.6584 87.9688 34.2578 87.581 33.9723C87.1932 33.6868 86.6669 33.544 86.0021 33.544C85.5504 33.544 85.169 33.608 84.858 33.7358C84.5469 33.8594 84.3082 34.032 84.142 34.2536C83.9801 34.4751 83.8991 34.7266 83.8991 35.0078C83.8906 35.2422 83.9396 35.4467 84.0462 35.6214C84.157 35.7962 84.3082 35.9474 84.5 36.0753C84.6918 36.1989 84.9134 36.3075 85.1648 36.4013C85.4162 36.4908 85.6847 36.5675 85.9702 36.6314L87.1463 36.9126C87.7173 37.0405 88.2415 37.2109 88.7188 37.424C89.196 37.6371 89.6094 37.8991 89.9588 38.2102C90.3082 38.5213 90.5788 38.8878 90.7706 39.3097C90.9666 39.7315 91.0668 40.2152 91.071 40.7607C91.0668 41.5618 90.8622 42.2564 90.4574 42.8445C90.0568 43.4283 89.4773 43.8821 88.7188 44.206C87.9645 44.5256 87.0547 44.6854 85.9893 44.6854C84.9325 44.6854 84.0121 44.5234 83.228 44.1996C82.4482 43.8757 81.8388 43.3963 81.3999 42.7614C80.9652 42.1222 80.7372 41.3317 80.7159 40.3899H83.3942C83.424 40.8288 83.5497 41.1953 83.7713 41.4893C83.9972 41.7791 84.2976 41.9986 84.6726 42.1477C85.0518 42.2926 85.4801 42.3651 85.9574 42.3651C86.4261 42.3651 86.8331 42.2969 87.1783 42.1605C87.5277 42.0241 87.7983 41.8345 87.9901 41.5916C88.1818 41.3487 88.2777 41.0696 88.2777 40.7543C88.2777 40.4602 88.1903 40.2131 88.0156 40.0128C87.8452 39.8125 87.5938 39.642 87.2614 39.5014C86.9332 39.3608 86.5305 39.233 86.0533 39.1179L84.6278 38.7599C83.5241 38.4915 82.6527 38.0717 82.0135 37.5007C81.3743 36.9297 81.0568 36.1605 81.0611 35.1932C81.0568 34.4006 81.2678 33.7081 81.6939 33.1158C82.1243 32.5234 82.7145 32.0611 83.4645 31.7287C84.2145 31.3963 85.0668 31.2301 86.0213 31.2301C86.9929 31.2301 87.8409 31.3963 88.5653 31.7287C89.294 32.0611 89.8608 32.5234 90.2656 33.1158C90.6705 33.7081 90.8793 34.3942 90.892 35.174H88.2393ZM98.1039 34.6818V36.7273H92.1912V34.6818H98.1039ZM93.5336 32.3295H96.2566V41.483C96.2566 41.7344 96.2949 41.9304 96.3716 42.071C96.4483 42.2074 96.5549 42.3033 96.6912 42.3587C96.8319 42.4141 96.9938 42.4418 97.177 42.4418C97.3049 42.4418 97.4327 42.4311 97.5605 42.4098C97.6884 42.3842 97.7864 42.3651 97.8546 42.3523L98.2828 44.3786C98.1465 44.4212 97.9547 44.4702 97.7076 44.5256C97.4604 44.5852 97.16 44.6214 96.8063 44.6342C96.15 44.6598 95.5748 44.5724 95.0804 44.3722C94.5904 44.1719 94.209 43.8608 93.9363 43.4389C93.6635 43.017 93.5293 42.4844 93.5336 41.8409V32.3295ZM104.208 44.6918C103.215 44.6918 102.357 44.4808 101.632 44.0589C100.912 43.6328 100.356 43.0405 99.964 42.282C99.5719 41.5192 99.3759 40.6349 99.3759 39.6293C99.3759 38.6151 99.5719 37.7287 99.964 36.9702C100.356 36.2074 100.912 35.6151 101.632 35.1932C102.357 34.767 103.215 34.554 104.208 34.554C105.201 34.554 106.058 34.767 106.778 35.1932C107.502 35.6151 108.061 36.2074 108.453 36.9702C108.845 37.7287 109.041 38.6151 109.041 39.6293C109.041 40.6349 108.845 41.5192 108.453 42.282C108.061 43.0405 107.502 43.6328 106.778 44.0589C106.058 44.4808 105.201 44.6918 104.208 44.6918ZM104.221 42.5824C104.673 42.5824 105.05 42.4545 105.352 42.1989C105.655 41.9389 105.883 41.5852 106.036 41.1378C106.194 40.6903 106.273 40.1811 106.273 39.6101C106.273 39.0391 106.194 38.5298 106.036 38.0824C105.883 37.6349 105.655 37.2812 105.352 37.0213C105.05 36.7614 104.673 36.6314 104.221 36.6314C103.765 36.6314 103.382 36.7614 103.07 37.0213C102.764 37.2812 102.531 37.6349 102.374 38.0824C102.22 38.5298 102.144 39.0391 102.144 39.6101C102.144 40.1811 102.22 40.6903 102.374 41.1378C102.531 41.5852 102.764 41.9389 103.07 42.1989C103.382 42.4545 103.765 42.5824 104.221 42.5824ZM115.247 44.6918C114.242 44.6918 113.377 44.4787 112.652 44.0526C111.932 43.6222 111.378 43.0256 110.99 42.2628C110.607 41.5 110.415 40.6222 110.415 39.6293C110.415 38.6236 110.609 37.7415 110.997 36.983C111.389 36.2202 111.945 35.6257 112.665 35.1996C113.385 34.7692 114.242 34.554 115.235 34.554C116.091 34.554 116.841 34.7095 117.485 35.0206C118.128 35.3317 118.637 35.7685 119.012 36.331C119.387 36.8935 119.594 37.554 119.632 38.3125H117.063C116.99 37.8224 116.798 37.4283 116.487 37.13C116.181 36.8274 115.778 36.6761 115.279 36.6761C114.857 36.6761 114.489 36.7912 114.173 37.0213C113.862 37.2472 113.619 37.5774 113.445 38.0121C113.27 38.4467 113.183 38.973 113.183 39.5909C113.183 40.2173 113.268 40.75 113.438 41.1889C113.613 41.6278 113.858 41.9624 114.173 42.1925C114.489 42.4226 114.857 42.5376 115.279 42.5376C115.59 42.5376 115.869 42.4737 116.117 42.3459C116.368 42.218 116.575 42.0327 116.737 41.7898C116.903 41.5426 117.012 41.2464 117.063 40.9013H119.632C119.59 41.6513 119.385 42.3118 119.019 42.8828C118.656 43.4496 118.156 43.8928 117.517 44.2124C116.877 44.532 116.121 44.6918 115.247 44.6918ZM123.843 41.6747L123.849 38.4084H124.246L127.391 34.6818H130.516L126.291 39.6165H125.646L123.843 41.6747ZM121.376 44.5V31.4091H124.099V44.5H121.376ZM127.512 44.5L124.623 40.2237L126.438 38.2997L130.702 44.5H127.512Z" fill="white"/>
</svg>
