<svg width="150" height="75" viewBox="0 0 150 75" fill="none" xmlns="http://www.w3.org/2000/svg">
<circle cx="37.5" cy="37.5" r="37.5" fill="#ED1A3B" fill-opacity="0.2"/>
<circle cx="37.5" cy="37.5" r="31.5" fill="#ED1A3B"/>
<mask id="mask0_361_8207" style="mask-type:alpha" maskUnits="userSpaceOnUse" x="17" y="19" width="36" height="36">
<rect x="17" y="19" width="36" height="36" fill="white"/>
</mask>
<g mask="url(#mask0_361_8207)">
<path d="M19.3251 48.775V38.9125H23.9751V48.775H19.3251ZM26.0376 40.4125V33.5875H30.6501V40.4125H26.0376ZM32.7126 32.0875V25.1875H37.2876V32.0875H32.7126ZM39.3501 28.6375V23.275H44.0001V28.6375H39.3501ZM46.0626 48.775V23.275H50.6751V48.775H46.0626Z" fill="white"/>
</g>
<path d="M93.1676 37.9545C93.1676 39.3821 92.897 40.5966 92.3558 41.598C91.8189 42.5994 91.0859 43.3643 90.157 43.8928C89.2322 44.4169 88.1925 44.679 87.0376 44.679C85.8743 44.679 84.8303 44.4148 83.9055 43.8864C82.9808 43.358 82.25 42.593 81.7131 41.5916C81.1761 40.5902 80.9077 39.3778 80.9077 37.9545C80.9077 36.527 81.1761 35.3125 81.7131 34.3111C82.25 33.3097 82.9808 32.5469 83.9055 32.0227C84.8303 31.4943 85.8743 31.2301 87.0376 31.2301C88.1925 31.2301 89.2322 31.4943 90.157 32.0227C91.0859 32.5469 91.8189 33.3097 92.3558 34.3111C92.897 35.3125 93.1676 36.527 93.1676 37.9545ZM90.3615 37.9545C90.3615 37.0298 90.223 36.25 89.946 35.6151C89.6733 34.9801 89.2876 34.4986 88.7891 34.1705C88.2905 33.8423 87.7067 33.6783 87.0376 33.6783C86.3686 33.6783 85.7848 33.8423 85.2862 34.1705C84.7876 34.4986 84.3999 34.9801 84.1229 35.6151C83.8501 36.25 83.7138 37.0298 83.7138 37.9545C83.7138 38.8793 83.8501 39.6591 84.1229 40.294C84.3999 40.929 84.7876 41.4105 85.2862 41.7386C85.7848 42.0668 86.3686 42.2308 87.0376 42.2308C87.7067 42.2308 88.2905 42.0668 88.7891 41.7386C89.2876 41.4105 89.6733 40.929 89.946 40.294C90.223 39.6591 90.3615 38.8793 90.3615 37.9545ZM95.1667 48.1818V34.6818H97.8514V36.331H97.9728C98.0922 36.0668 98.2647 35.7983 98.4906 35.5256C98.7207 35.2486 99.019 35.0185 99.3855 34.8352C99.7562 34.6477 100.216 34.554 100.766 34.554C101.482 34.554 102.143 34.7415 102.748 35.1165C103.353 35.4872 103.836 36.0476 104.199 36.7976C104.561 37.5433 104.742 38.4787 104.742 39.6037C104.742 40.6989 104.565 41.6236 104.211 42.3778C103.862 43.1278 103.385 43.6967 102.78 44.0845C102.179 44.468 101.506 44.6598 100.76 44.6598C100.231 44.6598 99.7818 44.5724 99.411 44.3977C99.0446 44.223 98.7441 44.0036 98.5098 43.7393C98.2754 43.4709 98.0964 43.2003 97.9728 42.9276H97.8897V48.1818H95.1667ZM97.8322 39.5909C97.8322 40.1747 97.9132 40.6839 98.0751 41.1186C98.237 41.5533 98.4714 41.892 98.7782 42.1349C99.085 42.3736 99.4579 42.4929 99.8968 42.4929C100.34 42.4929 100.715 42.3714 101.022 42.1286C101.329 41.8814 101.561 41.5405 101.719 41.1058C101.881 40.6669 101.961 40.1619 101.961 39.5909C101.961 39.0241 101.883 38.5256 101.725 38.0952C101.567 37.6648 101.335 37.3281 101.028 37.0852C100.721 36.8423 100.344 36.7209 99.8968 36.7209C99.4537 36.7209 99.0787 36.8381 98.7718 37.0724C98.4693 37.3068 98.237 37.6392 98.0751 38.0696C97.9132 38.5 97.8322 39.0071 97.8322 39.5909ZM111.78 34.6818V36.7273H105.867V34.6818H111.78ZM107.209 32.3295H109.932V41.483C109.932 41.7344 109.971 41.9304 110.047 42.071C110.124 42.2074 110.231 42.3033 110.367 42.3587C110.508 42.4141 110.67 42.4418 110.853 42.4418C110.981 42.4418 111.108 42.4311 111.236 42.4098C111.364 42.3842 111.462 42.3651 111.53 42.3523L111.959 44.3786C111.822 44.4212 111.631 44.4702 111.383 44.5256C111.136 44.5852 110.836 44.6214 110.482 44.6342C109.826 44.6598 109.251 44.5724 108.756 44.3722C108.266 44.1719 107.885 43.8608 107.612 43.4389C107.339 43.017 107.205 42.4844 107.209 41.8409V32.3295ZM113.553 44.5V34.6818H116.276V44.5H113.553ZM114.921 33.4162C114.517 33.4162 114.169 33.282 113.879 33.0135C113.594 32.7408 113.451 32.4148 113.451 32.0355C113.451 31.6605 113.594 31.3388 113.879 31.0703C114.169 30.7976 114.517 30.6612 114.921 30.6612C115.326 30.6612 115.671 30.7976 115.957 31.0703C116.247 31.3388 116.392 31.6605 116.392 32.0355C116.392 32.4148 116.247 32.7408 115.957 33.0135C115.671 33.282 115.326 33.4162 114.921 33.4162ZM122.894 44.6918C121.901 44.6918 121.042 44.4808 120.318 44.0589C119.598 43.6328 119.042 43.0405 118.65 42.282C118.257 41.5192 118.061 40.6349 118.061 39.6293C118.061 38.6151 118.257 37.7287 118.65 36.9702C119.042 36.2074 119.598 35.6151 120.318 35.1932C121.042 34.767 121.901 34.554 122.894 34.554C123.887 34.554 124.743 34.767 125.463 35.1932C126.188 35.6151 126.746 36.2074 127.138 36.9702C127.53 37.7287 127.726 38.6151 127.726 39.6293C127.726 40.6349 127.53 41.5192 127.138 42.282C126.746 43.0405 126.188 43.6328 125.463 44.0589C124.743 44.4808 123.887 44.6918 122.894 44.6918ZM122.907 42.5824C123.358 42.5824 123.735 42.4545 124.038 42.1989C124.341 41.9389 124.569 41.5852 124.722 41.1378C124.88 40.6903 124.958 40.1811 124.958 39.6101C124.958 39.0391 124.88 38.5298 124.722 38.0824C124.569 37.6349 124.341 37.2812 124.038 37.0213C123.735 36.7614 123.358 36.6314 122.907 36.6314C122.451 36.6314 122.067 36.7614 121.756 37.0213C121.449 37.2812 121.217 37.6349 121.059 38.0824C120.906 38.5298 120.829 39.0391 120.829 39.6101C120.829 40.1811 120.906 40.6903 121.059 41.1378C121.217 41.5852 121.449 41.9389 121.756 42.1989C122.067 42.4545 122.451 42.5824 122.907 42.5824ZM132.22 38.8239V44.5H129.497V34.6818H132.092V36.4141H132.207C132.424 35.843 132.789 35.3913 133.3 35.0589C133.811 34.7223 134.431 34.554 135.16 34.554C135.842 34.554 136.436 34.7031 136.944 35.0014C137.451 35.2997 137.845 35.7259 138.126 36.2798C138.407 36.8295 138.548 37.4858 138.548 38.2486V44.5H135.825V38.7344C135.829 38.1335 135.676 37.6648 135.365 37.3281C135.054 36.9872 134.625 36.8168 134.08 36.8168C133.713 36.8168 133.39 36.8956 133.108 37.0533C132.831 37.2109 132.614 37.4411 132.456 37.7436C132.303 38.0419 132.224 38.402 132.22 38.8239ZM148.863 37.4815L146.37 37.6349C146.328 37.4219 146.236 37.2301 146.095 37.0597C145.955 36.8849 145.769 36.7464 145.539 36.6442C145.313 36.5376 145.043 36.4844 144.727 36.4844C144.306 36.4844 143.95 36.5739 143.66 36.7528C143.37 36.9276 143.225 37.1619 143.225 37.456C143.225 37.6903 143.319 37.8885 143.507 38.0504C143.694 38.2124 144.016 38.3423 144.472 38.4403L146.249 38.7983C147.203 38.9943 147.915 39.3097 148.384 39.7443C148.852 40.179 149.087 40.75 149.087 41.4574C149.087 42.1009 148.897 42.6655 148.518 43.1513C148.143 43.6371 147.627 44.0163 146.971 44.2891C146.319 44.5575 145.567 44.6918 144.715 44.6918C143.415 44.6918 142.379 44.4212 141.608 43.88C140.841 43.3345 140.392 42.593 140.259 41.6555L142.938 41.5149C143.019 41.9112 143.215 42.2138 143.526 42.4226C143.837 42.6271 144.235 42.7294 144.721 42.7294C145.198 42.7294 145.582 42.6378 145.872 42.4545C146.166 42.267 146.315 42.0263 146.319 41.7322C146.315 41.4851 146.21 41.2827 146.006 41.125C145.801 40.9631 145.486 40.8395 145.06 40.7543L143.36 40.4155C142.401 40.2237 141.687 39.8913 141.218 39.4183C140.754 38.9453 140.521 38.3423 140.521 37.6094C140.521 36.9787 140.692 36.4354 141.033 35.9794C141.378 35.5234 141.862 35.1719 142.484 34.9247C143.11 34.6776 143.843 34.554 144.683 34.554C145.923 34.554 146.899 34.8161 147.61 35.3402C148.326 35.8643 148.744 36.5781 148.863 37.4815Z" fill="#F5F5F5"/>
</svg>
