<svg width="148" height="75" viewBox="0 0 148 75" fill="none" xmlns="http://www.w3.org/2000/svg">
<circle cx="37.5" cy="37.5" r="37.5" fill="#FFE94F" fill-opacity="0.2"/>
<circle cx="37.5" cy="37.5" r="31.5" fill="#EEA339"/>
<mask id="mask0_361_8215" style="mask-type:alpha" maskUnits="userSpaceOnUse" x="21" y="20" width="36" height="36">
<rect x="21" y="20" width="36" height="36" fill="white"/>
</mask>
<g mask="url(#mask0_361_8215)">
<path d="M25.8 48.575L23.325 46.1L35.25 34.175L41.4 40.3625L46.2375 34.8875C44.7375 33.2625 43.0813 32.0125 41.2688 31.1375C39.4563 30.2625 37.4875 29.825 35.3625 29.825C33.5625 29.825 31.8438 30.15 30.2063 30.8C28.5688 31.45 27.0875 32.3625 25.7625 33.5375L23.2875 31.025C24.9125 29.55 26.7438 28.3875 28.7813 27.5375C30.8188 26.6875 33.0125 26.2625 35.3625 26.2625C37.9125 26.2625 40.3313 26.8062 42.6188 27.8937C44.9063 28.9812 46.9 30.4625 48.6 32.3375L52.2375 28.2125L54.7125 30.6875L50.7 35.2625C51.6 36.5125 52.3313 37.9875 52.8938 39.6875C53.4563 41.3875 53.85 43.125 54.075 44.9H50.5125C50.3625 43.625 50.1 42.4125 49.725 41.2625C49.35 40.1125 48.8625 39.0125 48.2625 37.9625L41.55 45.4625L35.25 39.125L25.8 48.575Z" fill="white"/>
</g>
<path d="M81.1378 71V57.9091H89.8054V60.1911H83.9055V63.3104H89.2301V65.5923H83.9055V71H81.1378ZM97.2969 66.8196V61.1818H100.02V71H97.4055V69.2166H97.3033C97.0817 69.7919 96.7131 70.2543 96.1974 70.6037C95.6861 70.9531 95.0618 71.1278 94.3246 71.1278C93.6683 71.1278 93.0909 70.9787 92.5923 70.6804C92.0938 70.3821 91.7038 69.9581 91.4226 69.4084C91.1456 68.8587 91.005 68.2003 91.0007 67.4332V61.1818H93.7237V66.9474C93.728 67.527 93.8835 67.9851 94.1903 68.3217C94.4972 68.6584 94.9084 68.8267 95.424 68.8267C95.7521 68.8267 96.0589 68.7521 96.3445 68.603C96.63 68.4496 96.8601 68.2237 97.0348 67.9254C97.2138 67.6271 97.3011 67.2585 97.2969 66.8196ZM107.42 61.1818V63.2273H101.508V61.1818H107.42ZM102.85 58.8295H105.573V67.983C105.573 68.2344 105.611 68.4304 105.688 68.571C105.765 68.7074 105.871 68.8033 106.008 68.8587C106.148 68.9141 106.31 68.9418 106.493 68.9418C106.621 68.9418 106.749 68.9311 106.877 68.9098C107.005 68.8842 107.103 68.8651 107.171 68.8523L107.599 70.8786C107.463 70.9212 107.271 70.9702 107.024 71.0256C106.777 71.0852 106.476 71.1214 106.123 71.1342C105.466 71.1598 104.891 71.0724 104.397 70.8722C103.907 70.6719 103.525 70.3608 103.253 69.9389C102.98 69.517 102.846 68.9844 102.85 68.3409V58.8295ZM115.49 66.8196V61.1818H118.213V71H115.599V69.2166H115.497C115.275 69.7919 114.906 70.2543 114.391 70.6037C113.879 70.9531 113.255 71.1278 112.518 71.1278C111.862 71.1278 111.284 70.9787 110.786 70.6804C110.287 70.3821 109.897 69.9581 109.616 69.4084C109.339 68.8587 109.198 68.2003 109.194 67.4332V61.1818H111.917V66.9474C111.921 67.527 112.077 67.9851 112.384 68.3217C112.691 68.6584 113.102 68.8267 113.617 68.8267C113.945 68.8267 114.252 68.7521 114.538 68.603C114.823 68.4496 115.053 68.2237 115.228 67.9254C115.407 67.6271 115.494 67.2585 115.49 66.8196ZM120.391 71V61.1818H123.031V62.8949H123.134C123.313 62.2855 123.613 61.8253 124.035 61.5142C124.457 61.1989 124.942 61.0412 125.492 61.0412C125.629 61.0412 125.776 61.0497 125.933 61.0668C126.091 61.0838 126.229 61.1072 126.349 61.1371V63.5533C126.221 63.5149 126.044 63.4808 125.818 63.451C125.592 63.4212 125.386 63.4062 125.198 63.4062C124.798 63.4062 124.44 63.4936 124.124 63.6683C123.813 63.8388 123.566 64.0774 123.383 64.3842C123.204 64.6911 123.114 65.0447 123.114 65.4453V71H120.391ZM131.774 71.1918C130.764 71.1918 129.895 70.9872 129.166 70.5781C128.442 70.1648 127.883 69.581 127.491 68.8267C127.099 68.0682 126.903 67.1712 126.903 66.1357C126.903 65.1257 127.099 64.2393 127.491 63.4766C127.883 62.7138 128.435 62.1193 129.147 61.6932C129.863 61.267 130.702 61.054 131.665 61.054C132.313 61.054 132.916 61.1584 133.474 61.3672C134.037 61.5717 134.527 61.8807 134.944 62.294C135.366 62.7074 135.694 63.2273 135.929 63.8537C136.163 64.4759 136.28 65.2045 136.28 66.0398V66.7876H127.99V65.1001H133.717C133.717 64.7081 133.632 64.3608 133.461 64.0582C133.291 63.7557 133.055 63.5192 132.752 63.3487C132.454 63.174 132.106 63.0866 131.71 63.0866C131.297 63.0866 130.93 63.1825 130.611 63.3743C130.295 63.5618 130.048 63.8153 129.869 64.1349C129.69 64.4503 129.599 64.8018 129.594 65.1896V66.794C129.594 67.2798 129.684 67.6996 129.863 68.0533C130.046 68.407 130.304 68.6797 130.636 68.8714C130.969 69.0632 131.363 69.1591 131.819 69.1591C132.121 69.1591 132.398 69.1165 132.65 69.0312C132.901 68.946 133.116 68.8182 133.295 68.6477C133.474 68.4773 133.611 68.2685 133.704 68.0213L136.223 68.1875C136.095 68.7926 135.833 69.321 135.437 69.7727C135.045 70.2202 134.537 70.5696 133.915 70.821C133.297 71.0682 132.584 71.1918 131.774 71.1918ZM146.226 63.9815L143.733 64.1349C143.691 63.9219 143.599 63.7301 143.459 63.5597C143.318 63.3849 143.133 63.2464 142.903 63.1442C142.677 63.0376 142.406 62.9844 142.091 62.9844C141.669 62.9844 141.313 63.0739 141.023 63.2528C140.733 63.4276 140.589 63.6619 140.589 63.956C140.589 64.1903 140.682 64.3885 140.87 64.5504C141.057 64.7124 141.379 64.8423 141.835 64.9403L143.612 65.2983C144.567 65.4943 145.278 65.8097 145.747 66.2443C146.216 66.679 146.45 67.25 146.45 67.9574C146.45 68.6009 146.26 69.1655 145.881 69.6513C145.506 70.1371 144.991 70.5163 144.334 70.7891C143.682 71.0575 142.93 71.1918 142.078 71.1918C140.778 71.1918 139.743 70.9212 138.971 70.38C138.204 69.8345 137.755 69.093 137.623 68.1555L140.301 68.0149C140.382 68.4112 140.578 68.7138 140.889 68.9226C141.2 69.1271 141.599 69.2294 142.084 69.2294C142.562 69.2294 142.945 69.1378 143.235 68.9545C143.529 68.767 143.678 68.5263 143.682 68.2322C143.678 67.9851 143.574 67.7827 143.369 67.625C143.165 67.4631 142.849 67.3395 142.423 67.2543L140.723 66.9155C139.764 66.7237 139.05 66.3913 138.581 65.9183C138.117 65.4453 137.885 64.8423 137.885 64.1094C137.885 63.4787 138.055 62.9354 138.396 62.4794C138.741 62.0234 139.225 61.6719 139.847 61.4247C140.474 61.1776 141.206 61.054 142.046 61.054C143.286 61.054 144.262 61.3161 144.974 61.8402C145.689 62.3643 146.107 63.0781 146.226 63.9815Z" fill="#F5F5F5"/>
</svg>
