<svg width="164" height="75" viewBox="0 0 164 75" fill="none" xmlns="http://www.w3.org/2000/svg">
<circle cx="37.5" cy="37.5" r="37.5" fill="#65B760" fill-opacity="0.2"/>
<circle cx="37.5" cy="37.5" r="31.5" fill="#65B760"/>
<mask id="mask0_361_8190" style="mask-type:alpha" maskUnits="userSpaceOnUse" x="20" y="22" width="36" height="36">
<rect x="20" y="22" width="36" height="36" fill="white"/>
</mask>
<g mask="url(#mask0_361_8190)">
<path d="M38 55.9375C35.8 55.9375 33.7312 55.525 31.7938 54.7C29.8563 53.875 28.1625 52.7375 26.7125 51.2875C25.2625 49.8375 24.125 48.1438 23.3 46.2063C22.475 44.2688 22.0625 42.2 22.0625 40C22.0625 37.775 22.475 35.6938 23.3 33.7563C24.125 31.8188 25.2625 30.1375 26.7125 28.7125L38 40V24.025C40.225 24.025 42.3063 24.4438 44.2438 25.2813C46.1812 26.1188 47.8688 27.2563 49.3063 28.6938C50.7437 30.1313 51.8813 31.8188 52.7188 33.7563C53.5562 35.6938 53.975 37.775 53.975 40C53.975 42.2 53.5562 44.2688 52.7188 46.2063C51.8813 48.1438 50.7437 49.8375 49.3063 51.2875C47.8688 52.7375 46.1812 53.875 44.2438 54.7C42.3063 55.525 40.225 55.9375 38 55.9375Z" fill="white"/>
</g>
<path d="M88.2393 35.174C88.1882 34.6584 87.9688 34.2578 87.581 33.9723C87.1932 33.6868 86.6669 33.544 86.0021 33.544C85.5504 33.544 85.169 33.608 84.858 33.7358C84.5469 33.8594 84.3082 34.032 84.142 34.2536C83.9801 34.4751 83.8991 34.7266 83.8991 35.0078C83.8906 35.2422 83.9396 35.4467 84.0462 35.6214C84.157 35.7962 84.3082 35.9474 84.5 36.0753C84.6918 36.1989 84.9134 36.3075 85.1648 36.4013C85.4162 36.4908 85.6847 36.5675 85.9702 36.6314L87.1463 36.9126C87.7173 37.0405 88.2415 37.2109 88.7188 37.424C89.196 37.6371 89.6094 37.8991 89.9588 38.2102C90.3082 38.5213 90.5788 38.8878 90.7706 39.3097C90.9666 39.7315 91.0668 40.2152 91.071 40.7607C91.0668 41.5618 90.8622 42.2564 90.4574 42.8445C90.0568 43.4283 89.4773 43.8821 88.7188 44.206C87.9645 44.5256 87.0547 44.6854 85.9893 44.6854C84.9325 44.6854 84.0121 44.5234 83.228 44.1996C82.4482 43.8757 81.8388 43.3963 81.3999 42.7614C80.9652 42.1222 80.7372 41.3317 80.7159 40.3899H83.3942C83.424 40.8288 83.5497 41.1953 83.7713 41.4893C83.9972 41.7791 84.2976 41.9986 84.6726 42.1477C85.0518 42.2926 85.4801 42.3651 85.9574 42.3651C86.4261 42.3651 86.8331 42.2969 87.1783 42.1605C87.5277 42.0241 87.7983 41.8345 87.9901 41.5916C88.1818 41.3487 88.2777 41.0696 88.2777 40.7543C88.2777 40.4602 88.1903 40.2131 88.0156 40.0128C87.8452 39.8125 87.5938 39.642 87.2614 39.5014C86.9332 39.3608 86.5305 39.233 86.0533 39.1179L84.6278 38.7599C83.5241 38.4915 82.6527 38.0717 82.0135 37.5007C81.3743 36.9297 81.0568 36.1605 81.0611 35.1932C81.0568 34.4006 81.2678 33.7081 81.6939 33.1158C82.1243 32.5234 82.7145 32.0611 83.4645 31.7287C84.2145 31.3963 85.0668 31.2301 86.0213 31.2301C86.9929 31.2301 87.8409 31.3963 88.5653 31.7287C89.294 32.0611 89.8608 32.5234 90.2656 33.1158C90.6705 33.7081 90.8793 34.3942 90.892 35.174H88.2393ZM97.3176 44.6918C96.312 44.6918 95.4469 44.4787 94.7225 44.0526C94.0023 43.6222 93.4483 43.0256 93.0605 42.2628C92.677 41.5 92.4853 40.6222 92.4853 39.6293C92.4853 38.6236 92.6792 37.7415 93.0669 36.983C93.459 36.2202 94.0151 35.6257 94.7353 35.1996C95.4554 34.7692 96.312 34.554 97.3049 34.554C98.1614 34.554 98.9114 34.7095 99.5549 35.0206C100.198 35.3317 100.708 35.7685 101.083 36.331C101.458 36.8935 101.664 37.554 101.703 38.3125H99.133C99.0605 37.8224 98.8688 37.4283 98.5577 37.13C98.2509 36.8274 97.8482 36.6761 97.3496 36.6761C96.9277 36.6761 96.5591 36.7912 96.2438 37.0213C95.9327 37.2472 95.6898 37.5774 95.5151 38.0121C95.3404 38.4467 95.253 38.973 95.253 39.5909C95.253 40.2173 95.3382 40.75 95.5087 41.1889C95.6834 41.6278 95.9284 41.9624 96.2438 42.1925C96.5591 42.4226 96.9277 42.5376 97.3496 42.5376C97.6607 42.5376 97.9398 42.4737 98.187 42.3459C98.4384 42.218 98.6451 42.0327 98.807 41.7898C98.9732 41.5426 99.0819 41.2464 99.133 40.9013H101.703C101.66 41.6513 101.455 42.3118 101.089 42.8828C100.727 43.4496 100.226 43.8928 99.5868 44.2124C98.9476 44.532 98.1912 44.6918 97.3176 44.6918ZM106.246 44.6854C105.619 44.6854 105.061 44.5767 104.571 44.3594C104.081 44.1378 103.693 43.8118 103.408 43.3814C103.126 42.9467 102.986 42.4055 102.986 41.7578C102.986 41.2124 103.086 40.7543 103.286 40.3835C103.487 40.0128 103.759 39.7145 104.104 39.4886C104.45 39.2628 104.842 39.0923 105.281 38.9773C105.724 38.8622 106.188 38.7812 106.674 38.7344C107.245 38.6747 107.705 38.6193 108.055 38.5682C108.404 38.5128 108.658 38.4318 108.815 38.3253C108.973 38.2187 109.052 38.0611 109.052 37.8523V37.8139C109.052 37.4091 108.924 37.0959 108.668 36.8743C108.417 36.6527 108.059 36.5419 107.594 36.5419C107.104 36.5419 106.714 36.6506 106.425 36.8679C106.135 37.081 105.943 37.3494 105.849 37.6733L103.331 37.4688C103.459 36.8722 103.71 36.3565 104.085 35.9219C104.46 35.483 104.944 35.1463 105.536 34.9119C106.133 34.6733 106.823 34.554 107.607 34.554C108.153 34.554 108.675 34.6179 109.173 34.7457C109.676 34.8736 110.121 35.0717 110.509 35.3402C110.901 35.6087 111.21 35.9538 111.436 36.3757C111.662 36.7933 111.775 37.294 111.775 37.8778V44.5H109.192V43.1385H109.116C108.958 43.4453 108.747 43.7159 108.483 43.9503C108.219 44.1804 107.901 44.3615 107.531 44.4936C107.16 44.6214 106.732 44.6854 106.246 44.6854ZM107.026 42.8061C107.426 42.8061 107.78 42.7273 108.087 42.5696C108.393 42.4077 108.634 42.1903 108.809 41.9176C108.984 41.6449 109.071 41.3359 109.071 40.9908V39.9489C108.986 40.0043 108.869 40.0554 108.719 40.1023C108.575 40.1449 108.411 40.1854 108.227 40.2237C108.044 40.2578 107.861 40.2898 107.678 40.3196C107.494 40.3452 107.328 40.3686 107.179 40.3899C106.859 40.4368 106.58 40.5114 106.342 40.6136C106.103 40.7159 105.918 40.8544 105.786 41.0291C105.653 41.1996 105.587 41.4126 105.587 41.6683C105.587 42.0391 105.722 42.3224 105.99 42.5185C106.263 42.7102 106.608 42.8061 107.026 42.8061ZM116.61 38.8239V44.5H113.887V34.6818H116.483V36.4141H116.598C116.815 35.843 117.179 35.3913 117.691 35.0589C118.202 34.7223 118.822 34.554 119.551 34.554C120.233 34.554 120.827 34.7031 121.334 35.0014C121.841 35.2997 122.235 35.7259 122.517 36.2798C122.798 36.8295 122.939 37.4858 122.939 38.2486V44.5H120.216V38.7344C120.22 38.1335 120.066 37.6648 119.755 37.3281C119.444 36.9872 119.016 36.8168 118.471 36.8168C118.104 36.8168 117.78 36.8956 117.499 37.0533C117.222 37.2109 117.005 37.4411 116.847 37.7436C116.694 38.0419 116.615 38.402 116.61 38.8239ZM127.808 38.8239V44.5H125.085V34.6818H127.68V36.4141H127.795C128.012 35.843 128.377 35.3913 128.888 35.0589C129.399 34.7223 130.019 34.554 130.748 34.554C131.43 34.554 132.024 34.7031 132.531 35.0014C133.039 35.2997 133.433 35.7259 133.714 36.2798C133.995 36.8295 134.136 37.4858 134.136 38.2486V44.5H131.413V38.7344C131.417 38.1335 131.264 37.6648 130.953 37.3281C130.642 36.9872 130.213 36.8168 129.668 36.8168C129.301 36.8168 128.977 36.8956 128.696 37.0533C128.419 37.2109 128.202 37.4411 128.044 37.7436C127.891 38.0419 127.812 38.402 127.808 38.8239ZM140.756 44.6918C139.746 44.6918 138.877 44.4872 138.148 44.0781C137.424 43.6648 136.866 43.081 136.474 42.3267C136.082 41.5682 135.886 40.6712 135.886 39.6357C135.886 38.6257 136.082 37.7393 136.474 36.9766C136.866 36.2138 137.418 35.6193 138.129 35.1932C138.845 34.767 139.685 34.554 140.648 34.554C141.295 34.554 141.898 34.6584 142.457 34.8672C143.019 35.0717 143.509 35.3807 143.927 35.794C144.349 36.2074 144.677 36.7273 144.911 37.3537C145.146 37.9759 145.263 38.7045 145.263 39.5398V40.2876H136.972V38.6001H142.7C142.7 38.2081 142.614 37.8608 142.444 37.5582C142.273 37.2557 142.037 37.0192 141.734 36.8487C141.436 36.674 141.089 36.5866 140.692 36.5866C140.279 36.5866 139.913 36.6825 139.593 36.8743C139.278 37.0618 139.031 37.3153 138.852 37.6349C138.673 37.9503 138.581 38.3018 138.577 38.6896V40.294C138.577 40.7798 138.666 41.1996 138.845 41.5533C139.028 41.907 139.286 42.1797 139.619 42.3714C139.951 42.5632 140.345 42.6591 140.801 42.6591C141.104 42.6591 141.381 42.6165 141.632 42.5312C141.884 42.446 142.099 42.3182 142.278 42.1477C142.457 41.9773 142.593 41.7685 142.687 41.5213L145.205 41.6875C145.077 42.2926 144.815 42.821 144.419 43.2727C144.027 43.7202 143.52 44.0696 142.898 44.321C142.28 44.5682 141.566 44.6918 140.756 44.6918ZM147.04 44.5V34.6818H149.68V36.3949H149.782C149.961 35.7855 150.261 35.3253 150.683 35.0142C151.105 34.6989 151.591 34.5412 152.141 34.5412C152.277 34.5412 152.424 34.5497 152.582 34.5668C152.739 34.5838 152.878 34.6072 152.997 34.6371V37.0533C152.869 37.0149 152.692 36.9808 152.467 36.951C152.241 36.9212 152.034 36.9062 151.847 36.9062C151.446 36.9062 151.088 36.9936 150.773 37.1683C150.462 37.3388 150.214 37.5774 150.031 37.8842C149.852 38.1911 149.763 38.5447 149.763 38.9453V44.5H147.04ZM162.574 37.4815L160.081 37.6349C160.039 37.4219 159.947 37.2301 159.806 37.0597C159.666 36.8849 159.48 36.7464 159.25 36.6442C159.024 36.5376 158.754 36.4844 158.438 36.4844C158.017 36.4844 157.661 36.5739 157.371 36.7528C157.081 36.9276 156.936 37.1619 156.936 37.456C156.936 37.6903 157.03 37.8885 157.218 38.0504C157.405 38.2124 157.727 38.3423 158.183 38.4403L159.96 38.7983C160.914 38.9943 161.626 39.3097 162.095 39.7443C162.563 40.179 162.798 40.75 162.798 41.4574C162.798 42.1009 162.608 42.6655 162.229 43.1513C161.854 43.6371 161.338 44.0163 160.682 44.2891C160.03 44.5575 159.278 44.6918 158.426 44.6918C157.126 44.6918 156.09 44.4212 155.319 43.88C154.552 43.3345 154.102 42.593 153.97 41.6555L156.649 41.5149C156.73 41.9112 156.926 42.2138 157.237 42.4226C157.548 42.6271 157.946 42.7294 158.432 42.7294C158.909 42.7294 159.293 42.6378 159.583 42.4545C159.877 42.267 160.026 42.0263 160.03 41.7322C160.026 41.4851 159.921 41.2827 159.717 41.125C159.512 40.9631 159.197 40.8395 158.771 40.7543L157.07 40.4155C156.112 40.2237 155.398 39.8913 154.929 39.4183C154.465 38.9453 154.232 38.3423 154.232 37.6094C154.232 36.9787 154.403 36.4354 154.744 35.9794C155.089 35.5234 155.573 35.1719 156.195 34.9247C156.821 34.6776 157.554 34.554 158.394 34.554C159.634 34.554 160.61 34.8161 161.321 35.3402C162.037 35.8643 162.455 36.5781 162.574 37.4815Z" fill="#F5F5F5"/>
</svg>
