<svg width="517" height="427" viewBox="0 0 517 427" fill="none" xmlns="http://www.w3.org/2000/svg">
<g opacity="0.1">
<path d="M53.5291 294.807H0V107.086H53.5291V294.807Z" fill="#009B66"/>
<path d="M33.7536 344.051H16.8767V45.0338H33.7536V344.051Z" fill="#009B66"/>
<path d="M119.005 289.765H64.9991V164.501H119.005V289.765Z" fill="#ED1A3B"/>
<path d="M98.7527 322.091H81.8759V124.093H98.7527V322.091Z" fill="#ED1A3B"/>
<path d="M189.004 263.122H134.998V137.858H189.004V263.122Z" fill="#009B66"/>
<path d="M168.752 295.448H151.875V57.0426H168.752V295.448Z" fill="#009B66"/>
<path d="M254.003 402.755H199.997V176.472H254.003V402.755Z" fill="#ED1A3B"/>
<path d="M233.751 427H216.874V140.105H233.751V427Z" fill="#ED1A3B"/>
</g>
<g opacity="0.1">
<path d="M316.526 249.773H262.997V62.0522H316.526V249.773Z" fill="#009B66"/>
<path d="M296.75 299.017H279.873V0H296.75V299.017Z" fill="#009B66"/>
<path d="M382.002 244.731H327.996V119.467H382.002V244.731Z" fill="#ED1A3B"/>
<path d="M361.749 277.057H344.872V79.0594H361.749V277.057Z" fill="#ED1A3B"/>
<path d="M452.001 218.088H397.995V92.8242H452.001V218.088Z" fill="#009B66"/>
<path d="M431.748 250.414H414.872V12.0089H431.748V250.414Z" fill="#009B66"/>
<path d="M517 357.722H462.994V131.438H517V357.722Z" fill="#ED1A3B"/>
<path d="M496.748 381.966H479.871V95.0714H496.748V381.966Z" fill="#ED1A3B"/>
</g>
</svg>
