<svg width="16" height="17" viewBox="0 0 16 17" fill="none" xmlns="http://www.w3.org/2000/svg">
<ellipse cx="8.25425" cy="8.67467" rx="7.68735" ry="7.6787" fill="#04CE00"/>
<path d="M9.98026 7.85648L9.77399 8.06252C8.6702 9.16507 7.5663 10.2677 6.4623 11.3705C6.23896 11.5936 5.97508 11.6424 5.71153 11.5206C5.45762 11.4013 5.31828 11.1831 5.35529 10.9192C5.38854 10.7285 5.4786 10.5523 5.6137 10.4136C6.68112 9.32804 7.76239 8.25635 8.83947 7.18048L9.04349 6.97669C8.97766 6.96545 8.91127 6.95772 8.84462 6.95355C8.41275 6.95162 7.98057 6.9558 7.54903 6.95033C7.20727 6.94647 6.97139 6.7115 6.96689 6.38491C6.96238 6.02876 7.17638 5.78992 7.53391 5.78767C8.52721 5.78125 9.51998 5.7805 10.5122 5.78542C10.9135 5.78767 11.1394 6.00433 11.1468 6.40066C11.165 7.38449 11.1759 8.36843 11.1793 9.35247C11.1806 9.71313 10.9457 9.92528 10.5869 9.92239C10.2483 9.91917 10.0256 9.70188 10.0153 9.35151C10.0044 8.93556 10.0034 8.51929 9.99732 8.10302C9.99603 8.03745 9.98766 7.97316 9.98026 7.85648Z" fill="white"/>
</svg>
