<svg width="22" height="22" viewBox="0 0 22 22" fill="none" xmlns="http://www.w3.org/2000/svg">
<path d="M11 21.6251C9.53333 21.6251 8.15417 21.3501 6.8625 20.8001C5.57083 20.2501 4.44167 19.4918 3.475 18.5251C2.50833 17.5584 1.75 16.4293 1.2 15.1376C0.65 13.8459 0.375 12.4668 0.375 11.0001C0.375 9.51676 0.65 8.12926 1.2 6.8376C1.75 5.54593 2.50833 4.4251 3.475 3.4751L11 11.0001V0.350098C12.4833 0.350098 13.8708 0.629264 15.1625 1.1876C16.4542 1.74593 17.5792 2.50426 18.5375 3.4626C19.4958 4.42093 20.2542 5.54593 20.8125 6.8376C21.3708 8.12926 21.65 9.51676 21.65 11.0001C21.65 12.4668 21.3708 13.8459 20.8125 15.1376C20.2542 16.4293 19.4958 17.5584 18.5375 18.5251C17.5792 19.4918 16.4542 20.2501 15.1625 20.8001C13.8708 21.3501 12.4833 21.6251 11 21.6251Z" fill="#E8EAF6"/>
</svg>
