<svg width="10%" height="10%" viewBox="0 0 256.000000 256.000000" xmlns="http://www.w3.org/2000/svg">
  <g transform="translate(0.000000,256.000000) scale(0.100000,-0.100000)" fill="#fefefe" stroke="none"> 
  </g>
  <g transform="translate(0.000000,256.000000) scale(0.100000,-0.100000)" fill="#fed417" stroke="none">
    <path d="M1133 1916 c-196 -48 -369 -218 -417 -412 l-16 -63 0 -85 c0 -109 14
-174 55 -262 l34 -70 71 -80 c39 -43 81 -96 91 -117 26 -49 59 -179 59 -229
l0 -38 270 0 270 0 0 33 c1 122 53 244 149 351 l71 79 30 61 c81 167 82 358 3
526 l-36 75 -76 76 -76 76 -75 36 c-41 19 -99 40 -128 46 -69 14 -213 13 -279
-3z m288 -106 c132 -41 251 -145 314 -275 l34 -70 10 -65 11 -64 -16 -23 -15
-23 -19 10 -19 10 -6 57 c-16 146 -84 258 -197 329 -52 33 -141 64 -184 64
-18 0 -44 4 -58 10 l-26 10 0 18 c0 10 3 22 7 25 13 14 102 7 164 -13z" />
  </g>
  <g transform="translate(0.000000,256.000000) scale(0.100000,-0.100000)" fill="#210b20" stroke="none">
    <path d="M1240 2535 c-6 -14 -10 -86 -10 -158 l0 -133 16 -22 c17 -25 46 -29
63 -8 l12 14 -3 163 -3 164 -33 3 -32 3 -10 -26z" />
    <path d="M622 2368 c-7 -7 -12 -21 -12 -32 0 -20 140 -245 166 -267 l15 -12
24 11 25 12 0 21 c0 22 -114 212 -153 257 -23 24 -47 28 -65 10z" />
    <path d="M1893 2348 c-29 -33 -163 -243 -163 -256 0 -17 39 -40 60 -35 l18 5
81 122 c45 67 81 132 81 144 l0 21 -19 11 c-28 14 -35 13 -58 -12z" />
    <path d="M1125 1996 c-126 -32 -238 -99 -332 -199 l-61 -66 -40 -80 -40 -80
-18 -77 -17 -77 5 -101 6 -101 25 -73 c33 -96 77 -166 159 -259 l67 -75 21
-56 21 -56 8 -95 8 -94 19 -14 18 -13 306 0 306 0 19 14 19 14 7 93 7 94 21
56 22 57 61 68 c87 98 134 176 164 268 l26 81 5 95 5 95 -16 75 -16 75 -41 85
-42 85 -82 81 -81 82 -95 45 c-52 25 -118 50 -147 56 -70 14 -234 13 -297 -3z
m277 -87 c29 -6 87 -27 128 -46 l75 -36 76 -76 76 -76 36 -75 c78 -166 77
-341 -3 -506 l-30 -61 -71 -79 c-96 -107 -148 -229 -149 -351 l0 -33 -260 0
-260 0 0 38 c0 50 -33 180 -59 229 -10 21 -52 74 -91 117 l-71 80 -34 70
c-203 428 172 901 637 805z" />
    <path d="M1247 1833 c-4 -3 -7 -19 -7 -35 l0 -28 26 -10 c14 -6 40 -10 58 -10
121 0 277 -110 338 -237 l30 -62 9 -73 10 -73 17 -12 c24 -19 40 -16 58 12
l16 24 -12 73 -11 73 -34 70 c-63 130 -182 234 -314 275 l-63 20 -57 0 c-32 0
-61 -3 -64 -7z" />
    <path d="M238 1953 c-10 -3 -21 -15 -24 -29 l-6 -24 12 -15 c19 -23 249 -145
274 -145 44 0 61 44 29 72 -10 9 -74 45 -143 80 l-125 65 -17 -4z" />
    <path d="M2166 1885 c-137 -74 -146 -81 -146 -106 0 -23 37 -49 59 -42 9 3 71
36 139 72 l123 66 5 23 6 22 -12 15 c-21 25 -51 17 -174 -50z" />
    <path d="M980 429 c-14 -5 -33 -20 -42 -32 l-18 -22 0 -41 0 -41 25 -25 c14
-14 39 -28 56 -32 41 -8 517 -8 558 0 63 13 97 72 77 135 l-11 34 -35 17 -35
18 -275 -1 -275 0 -25 -10z m564 -88 c11 -18 -30 -21 -264 -21 -234 0 -275 3
-264 21 l5 9 259 0 259 0 5 -9z" />
    <path d="M1053 190 c-59 -24 -74 -116 -27 -164 l27 -26 227 0 227 0 26 25 c13
14 27 38 30 53 l6 27 -17 35 c-9 19 -28 40 -42 47 l-25 13 -205 -1 c-113 0
-215 -4 -227 -9z m417 -90 l0 -10 -190 0 -190 0 0 10 0 10 190 0 190 0 0 -10z" />
  </g>
  <g transform="translate(0.000000,256.000000) scale(0.100000,-0.100000)" fill="#e6e5e6" stroke="none">
    <path d="M1300 2545 c7 -9 15 -13 17 -11 7 7 -7 26 -19 26 l-10 0 12 -15z" />
    <path d="M1237 2523 c-10 -9 -9 -281 1 -286 4 -3 7 62 7 144 0 82 0 149 -1
149 0 0 -4 -3 -7 -7z" />
    <path d="M1866 2314 c-10 -14 -16 -28 -13 -30 2 -3 12 7 21 22 10 14 16 28 13
30 -2 3 -12 -7 -21 -22z" />
    <path d="M620 2305 c0 -5 9 -21 20 -35 11 -14 20 -20 20 -15 0 6 -9 21 -20 35
-11 14 -20 21 -20 15z" />
    <path d="M1873 2180 c-45 -66 -78 -120 -74 -120 10 0 164 230 158 236 -2 2
-40 -50 -84 -116z" />
    <path d="M740 2265 c0 -5 9 -21 20 -35 11 -14 20 -20 20 -15 0 6 -9 21 -20 35
-11 14 -20 21 -20 15z" />
    <path d="M690 2195 c0 -5 9 -21 20 -35 11 -14 20 -20 20 -15 0 6 -9 21 -20 35
-11 14 -20 21 -20 15z" />
    <path d="M2204 1905 c-10 -8 -14 -15 -8 -15 5 0 19 7 30 15 10 8 14 15 8 15
-5 0 -19 -7 -30 -15z" />
    <path d="M374 1885 c11 -8 25 -15 30 -15 6 0 2 7 -8 15 -11 8 -25 15 -30 15
-6 0 -2 -7 8 -15z" />
    <path d="M2074 1835 c-10 -8 -14 -15 -8 -15 5 0 19 7 30 15 10 8 14 15 8 15
-5 0 -19 -7 -30 -15z" />
    <path d="M2134 1775 c-10 -8 -14 -15 -8 -15 5 0 19 7 30 15 10 8 14 15 8 15
-5 0 -19 -7 -30 -15z" />
    <path d="M444 1755 c11 -8 25 -15 30 -15 6 0 2 7 -8 15 -11 8 -25 15 -30 15
-6 0 -2 -7 8 -15z" />
    <path d="M645 1158 c4 -13 11 -27 16 -33 5 -5 4 5 -2 23 -12 36 -24 44 -14 10z" />
    <path d="M1859 1058 c-12 -23 -31 -56 -41 -71 -11 -16 -18 -30 -16 -33 6 -5
46 53 72 104 10 19 15 36 12 39 -2 3 -15 -15 -27 -39z" />
    <path d="M690 1054 c0 -5 7 -19 15 -30 8 -10 15 -14 15 -8 0 5 -7 19 -15 30
-8 10 -15 14 -15 8z" />
    <path d="M905 738 c4 -13 11 -27 16 -33 5 -5 4 5 -2 23 -12 36 -24 44 -14 10z" />
    <path d="M932 555 l0 -30 5 18 c2 9 2 23 0 30 -3 6 -5 -1 -5 -18z" />
    <path d="M1003 344 l-6 -16 14 -9 14 -9 255 0 255 0 14 9 14 9 -6 16 -6 16
-271 0 -271 0 -6 -16z" />
    <path d="M920 304 c0 -15 49 -64 64 -64 6 0 1 8 -11 18 -12 9 -29 26 -37 37
-9 11 -16 15 -16 9z" />
    <path d="M1080 100 l0 -20 198 0 c109 0 201 3 205 6 3 3 3 12 0 20 l-5 14
-199 0 -199 0 0 -20z" />
    <path d="M1000 64 c0 -15 49 -64 64 -64 6 0 1 8 -11 18 -12 9 -29 26 -37 37
-9 11 -16 15 -16 9z" />
    <path d="M1510 20 c-14 -11 -20 -20 -15 -19 13 0 50 28 44 33 -2 3 -15 -4 -29
-14z" />
  </g>
  <g transform="translate(0.000000,256.000000) scale(0.100000,-0.100000)" fill="#2a1426" stroke="none">
    <path d="M1251 2551 c-7 -5 -12 -14 -10 -20 l4 -11 13 20 c14 22 13 23 -7 11z" />
    <path d="M1945 2350 c21 -24 26 -25 19 -6 -3 8 -13 17 -22 21 l-16 6 19 -21z" />
    <path d="M820 2085 l-12 -15 10 0 c12 0 26 19 19 26 -2 2 -10 -2 -17 -11z" />
    <path d="M1630 1900 c14 -11 30 -20 35 -20 6 0 -1 9 -15 20 -14 11 -29 20 -35
20 -5 0 1 -9 15 -20z" />
    <path d="M2210 1905 c-14 -8 -20 -14 -14 -15 5 0 19 7 30 15 24 18 16 19 -16
0z" />
    <path d="M374 1886 c11 -9 24 -16 30 -16 12 0 7 5 -24 19 l-25 12 19 -15z" />
    <path d="M1590 1830 c14 -11 30 -20 35 -20 6 0 -1 9 -15 20 -14 11 -29 20 -35
20 -5 0 1 -9 15 -20z" />
    <path d="M2080 1835 c-14 -8 -20 -14 -14 -15 5 0 19 7 30 15 24 18 16 19 -16
0z" />
    <path d="M1243 1825 c-9 -24 1 -27 15 -5 l12 20 -10 0 c-6 0 -13 -7 -17 -15z" />
    <path d="M1650 1785 c7 -8 17 -15 22 -15 l10 0 -12 15 c-7 8 -17 15 -22 15
l-10 0 12 -15z" />
    <path d="M1242 1779 c2 -6 14 -16 26 -20 29 -11 28 -5 -4 16 l-26 17 4 -13z" />
    <path d="M1740 1695 c0 -5 9 -21 20 -35 11 -14 20 -20 20 -15 0 6 -9 21 -20
35 -11 14 -20 21 -20 15z" />
    <path d="M1710 1312 c0 -12 19 -26 26 -19 2 2 -2 10 -11 17 l-15 12 0 -10z" />
    <path d="M1870 1079 c-7 -11 -10 -23 -7 -25 2 -2 9 7 15 21 14 30 7 33 -8 4z" />
    <path d="M701 1040 c14 -31 19 -36 19 -24 0 6 -7 19 -16 30 l-15 19 12 -25z" />
    <path d="M780 1055 c0 -5 9 -21 20 -35 11 -14 20 -20 20 -15 0 6 -9 21 -20 35
-11 14 -20 21 -20 15z" />
    <path d="M1756 1034 c-10 -14 -16 -28 -13 -30 2 -3 12 7 21 22 10 14 16 28 13
30 -2 3 -12 -7 -21 -22z" />
    <path d="M1660 925 c-20 -24 -6 -28 15 -5 10 11 13 20 8 20 -6 0 -16 -7 -23
-15z" />
    <path d="M780 924 c0 -6 16 -25 35 -44 19 -19 35 -29 35 -24 0 6 -16 25 -35
44 -19 19 -35 29 -35 24z" />
    <path d="M975 778 c4 -13 11 -27 16 -33 5 -5 4 5 -2 23 -12 36 -24 44 -14 10z" />
    <path d="M1600 405 c7 -9 15 -13 17 -11 7 7 -7 26 -19 26 l-10 0 12 -15z" />
    <path d="M1017 318 c6 -10 520 -10 526 0 3 4 -116 7 -263 7 -147 0 -266 -3
-263 -7z" />
  </g>
  <g transform="translate(0.000000,256.000000) scale(0.100000,-0.100000)" fill="#cecace" stroke="none">
    <path d="M1771 2167 c-22 -35 -41 -67 -41 -72 0 -4 17 18 38 51 51 80 54 84
49 84 -3 0 -23 -28 -46 -63z" />
    <path d="M810 2075 c-14 -8 -20 -14 -14 -15 5 0 19 7 30 15 24 18 16 19 -16 0z" />
    <path d="M649 1554 c-5 -15 -8 -29 -5 -31 2 -2 8 10 14 26 13 38 5 41 -9 5z" />
    <path d="M830 865 c13 -14 26 -25 28 -25 3 0 -5 11 -18 25 -13 14 -26 25 -28
25 -3 0 5 -11 18 -25z" />
    <path d="M1622 550 c0 -19 2 -27 5 -17 2 9 2 25 0 35 -3 9 -5 1 -5 -18z" />
    <path d="M1133 483 c87 -2 227 -2 310 0 84 1 13 3 -158 3 -170 0 -239 -2 -152
-3z" />
    <path d="M932 389 c-19 -30 -11 -32 11 -3 10 13 14 24 10 24 -5 0 -14 -9 -21
-21z" />
    <path d="M1470 105 l12 -15 -198 -2 -199 -3 190 -2 c104 -2 195 -1 202 1 l13
5 -6 16 c-3 8 -11 15 -16 15 l-10 0 12 -15z" />
  </g>
  <g transform="translate(0.000000,256.000000) scale(0.100000,-0.100000)" fill="#635462" stroke="none">
    <path d="M1836 2124 c-26 -36 -42 -63 -36 -59 12 7 93 125 86 125 -2 0 -25
-30 -50 -66z" />
    <path d="M826 2125 c8 -37 14 -45 14 -19 0 10 -5 26 -10 34 l-11 15 7 -30z" />
    <path d="M1932 1350 c0 -19 2 -27 5 -17 2 9 2 25 0 35 -3 9 -5 1 -5 -18z" />
    <path d="M891 780 c14 -31 19 -36 19 -24 0 6 -7 19 -16 30 l-15 19 12 -25z" />
    <path d="M1143 353 c75 -2 199 -2 275 0 75 1 13 3 -138 3 -151 0 -213 -2 -137
-3z" />
  </g>
  <g transform="translate(0.000000,256.000000) scale(0.100000,-0.100000)" fill="#776a77" stroke="none">
    <path d="M1298 2542 c9 -10 19 -17 21 -16 6 5 -20 34 -30 34 -5 0 -1 -8 9 -18z" />
    <path d="M1877 2324 c-40 -57 -74 -112 -60 -99 16 16 103 145 97 145 -2 0 -19
-21 -37 -46z" />
    <path d="M1916 2243 c-20 -32 -27 -46 -14 -31 26 30 62 88 55 88 -2 0 -21 -26
-41 -57z" />
    <path d="M2326 1940 c7 -8 14 -24 17 -35 l5 -20 1 21 c0 12 -7 28 -16 35 l-18
14 11 -15z" />
    <path d="M211 1914 c0 -12 7 -28 17 -35 l17 -14 -11 15 c-7 8 -14 24 -17 35
l-5 20 -1 -21z" />
    <path d="M1183 193 c53 -2 141 -2 195 0 53 1 9 3 -98 3 -107 0 -151 -2 -97 -3z" />
  </g>
  <g transform="translate(0.000000,256.000000) scale(0.100000,-0.100000)" fill="#999099" stroke="none">
    <path d="M1290 2214 l-25 -14 16 0 c9 0 22 7 29 15 15 18 13 18 -20 -1z" />
    <path d="M994 1944 l-19 -15 25 12 c31 14 36 19 24 19 -6 0 -19 -7 -30 -16z" />
    <path d="M1551 1946 c2 -2 15 -9 29 -15 l25 -12 -19 15 c-16 13 -49 24 -35 12z" />
    <path d="M2042 1814 c-12 -8 -22 -23 -21 -32 l1 -17 5 15 c3 8 15 23 27 32 26
22 18 23 -12 2z" />
    <path d="M1143 433 c75 -2 199 -2 275 0 75 1 13 3 -138 3 -151 0 -213 -2 -137
-3z" />
    <path d="M1604 268 l-29 -33 33 29 c30 28 37 36 29 36 -2 0 -16 -15 -33 -32z" />
  </g>
  <g transform="translate(0.000000,256.000000) scale(0.100000,-0.100000)" fill="#dbd8db" stroke="none">
    <path d="M1743 897 c-35 -39 -37 -53 -2 -20 18 18 31 35 28 38 -3 3 -15 -5
-26 -18z" />
    <path d="M1148 233 c72 -2 192 -2 265 0 72 1 13 3 -133 3 -146 0 -205 -2 -132
-3z" />
  </g>
  <g transform="translate(0.000000,256.000000) scale(0.100000,-0.100000)" fill="#887c87" stroke="none">
    <path d="M1187 113 c51 -2 135 -2 186 0 50 1 9 3 -93 3 -102 0 -143 -2 -93 -3z" />
  </g>
  <g transform="translate(0.000000,256.000000) scale(0.100000,-0.100000)" fill="#deb718" stroke="none">
    <path d="M958 1834 c-16 -8 -28 -17 -28 -19 0 -10 16 -4 40 15 30 23 25 25
-12 4z" />
    <path d="M1590 1831 c14 -11 30 -21 35 -21 11 0 -7 14 -40 31 l-20 10 25 -20z" />
    <path d="M1461 1806 c10 -9 69 -36 69 -32 0 6 -55 36 -66 36 -4 0 -5 -2 -3 -4z" />
    <path d="M881 1774 c-18 -14 -36 -36 -43 -48 l-11 -21 47 45 c25 25 46 46 46
48 0 6 -11 0 -39 -24z" />
    <path d="M1679 1757 c19 -20 37 -37 39 -37 11 0 -27 45 -49 59 l-24 15 34 -37z" />
    <path d="M1390 1744 c0 -7 52 -25 57 -20 2 2 -10 8 -26 14 -17 6 -31 9 -31 6z" />
    <path d="M1494 1696 c11 -9 24 -16 30 -16 12 0 7 5 -24 19 l-25 12 19 -15z" />
    <path d="M798 1678 c-22 -34 -39 -68 -35 -68 8 0 59 82 54 86 -2 3 -11 -6 -19
-18z" />
    <path d="M1740 1695 c0 -5 10 -21 21 -35 l20 -25 -10 20 c-17 33 -31 51 -31
40z" />
    <path d="M1721 1580 c14 -31 19 -36 19 -24 0 6 -7 19 -16 30 l-15 19 12 -25z" />
    <path d="M1819 1164 c-5 -15 -8 -29 -5 -31 2 -2 8 10 14 26 13 38 5 41 -9 5z" />
    <path d="M789 1045 c17 -33 31 -51 31 -40 0 6 -10 21 -21 35 l-20 25 10 -20z" />
    <path d="M1755 1034 c-9 -14 -15 -27 -13 -30 2 -2 12 10 22 26 21 37 15 40 -9
4z" />
    <path d="M848 965 c13 -25 62 -72 62 -59 0 6 -16 26 -36 45 l-37 34 11 -20z" />
    <path d="M1682 947 c-18 -18 -32 -36 -32 -40 0 -4 16 8 35 27 31 31 41 46 32
46 -2 0 -17 -15 -35 -33z" />
    <path d="M1610 859 c-7 -11 -10 -23 -7 -25 2 -2 9 7 15 21 14 30 7 33 -8 4z" />
  </g>
  <g transform="translate(0.000000,256.000000) scale(0.100000,-0.100000)" fill="#6d501c" stroke="none">
    <path d="M726 1535 c-3 -9 -6 -22 -5 -28 0 -7 5 -1 10 12 5 13 8 26 5 28 -2 2
-6 -3 -10 -12z" />
    <path d="M1541 592 l-1 -23 -264 3 c-145 2 -262 0 -259 -4 2 -5 121 -8 264 -8
l260 0 5 15 c3 8 4 20 1 27 l-5 13 -1 -23z" />
  </g>
  <g transform="translate(0.000000,256.000000) scale(0.100000,-0.100000)" fill="#bab4ba" stroke="none">
    <path d="M1861 1650 c14 -31 19 -36 19 -24 0 6 -7 19 -16 30 l-15 19 12 -25z" />
    <path d="M1667 795 c-9 -19 -15 -35 -12 -35 7 0 37 61 33 66 -3 2 -12 -12 -21
-31z" />
  </g>
  <g transform="translate(0.000000,256.000000) scale(0.100000,-0.100000)" fill="#331f32" stroke="none">
    <path d="M1744 898 l-29 -33 33 29 c30 28 37 36 29 36 -2 0 -16 -15 -33 -32z" />
  </g>
  <g transform="translate(0.000000,256.000000) scale(0.100000,-0.100000)" fill="#503e4f" stroke="none" />
  <g transform="translate(0.000000,256.000000) scale(0.100000,-0.100000)" fill="#a8a0a8" stroke="none">
    <path d="M690 1649 c-7 -11 -10 -23 -7 -25 2 -2 9 7 15 21 14 30 7 33 -8 4z" />
  </g>
  <g transform="translate(0.000000,256.000000) scale(0.100000,-0.100000)" fill="#3f2c3e" stroke="none" />
  <g transform="translate(0.000000,256.000000) scale(0.100000,-0.100000)" fill="#b18e1a" stroke="none">
    <path d="M1258 1923 c12 -2 32 -2 45 0 12 2 2 4 -23 4 -25 0 -35 -2 -22 -4z" />
    <path d="M1780 1636 c0 -11 30 -66 36 -66 2 0 -3 15 -12 33 -19 36 -24 44 -24
33z" />
    <path d="M703 1350 c0 -25 2 -35 4 -22 2 12 2 32 0 45 -2 12 -4 2 -4 -23z" />
    <path d="M757 1095 c9 -19 18 -33 21 -31 4 5 -26 66 -33 66 -3 0 3 -16 12 -35z" />
    <path d="M1795 1099 c-9 -17 -15 -33 -13 -35 3 -2 12 12 21 31 21 43 13 47 -8
4z" />
  </g>
  <g transform="translate(0.000000,256.000000) scale(0.100000,-0.100000)" fill="#9a791b" stroke="none" />
  <g transform="translate(0.000000,256.000000) scale(0.100000,-0.100000)" fill="#361e1f" stroke="none">
    <path d="M795 1674 c-9 -15 -12 -23 -6 -20 11 7 35 46 28 46 -3 0 -12 -12 -22
-26z" />
    <path d="M880 925 c19 -19 36 -35 39 -35 3 0 -10 16 -29 35 -19 19 -36 35 -39
35 -3 0 10 -16 29 -35z" />
  </g>
  <g transform="translate(0.000000,256.000000) scale(0.100000,-0.100000)" fill="#c5a019" stroke="none">
    <path d="M1020 1870 c-19 -11 -31 -19 -27 -20 11 0 67 29 67 35 0 7 -1 7 -40
-15z" />
    <path d="M1534 1866 c11 -9 24 -16 30 -16 12 0 7 5 -24 19 l-25 12 19 -15z" />
    <path d="M751 1593 l-11 -28 15 19 c8 11 15 23 15 28 0 15 -7 8 -19 -19z" />
  </g>
  <g transform="translate(0.000000,256.000000) scale(0.100000,-0.100000)" fill="#492f1e" stroke="none" />
  <g transform="translate(0.000000,256.000000) scale(0.100000,-0.100000)" fill="#80621c" stroke="none" />
  <g transform="translate(0.000000,256.000000) scale(0.100000,-0.100000)" fill="#5a3f1d" stroke="none" />
</svg>