<svg width="105" height="93" viewBox="0 0 105 93" fill="none" xmlns="http://www.w3.org/2000/svg">
<g clip-path="url(#clip0_90_1317)">
<path d="M67.3864 31.9285C67.3864 31.9285 65.0388 31.7066 64.5523 34.7118C64.0658 37.717 63.7578 38.4632 62.5879 39.3796C62.5879 39.3796 64.9504 38.6842 65.0571 36.1691C65.1639 33.6539 65.4973 32.4676 67.3864 31.9285Z" fill="#009B66"/>
<path d="M61.7077 30.891C61.7077 30.891 57.6442 30.9114 57.547 28.3999C57.547 28.3999 56.1873 32.2919 61.7077 30.891Z" fill="#009B66"/>
<path d="M71.9398 30.6173C71.6464 30.6085 71.354 30.5776 71.0648 30.5249C70.5888 30.437 69.9273 30.1226 68.144 31.247C68.2528 30.855 68.4739 30.5083 68.7767 30.2544C69.0796 30.0006 69.4495 29.8521 69.8354 29.8295C71.2249 29.7204 71.5005 30.0764 71.9398 30.6173Z" fill="#009B66"/>
<path d="M72.5228 30.3703C72.5228 30.3703 72.2008 28.5071 69.5478 29.3929C69.4834 29.2534 69.4621 29.0959 69.4871 28.9429C69.5121 28.7899 69.582 28.6491 69.6869 28.5404C69.6869 28.5404 67.3594 28.7919 67.2614 26.2194C67.2614 26.2194 68.335 26.2037 68.9939 27.1108C68.7728 27.2058 68.5711 27.3449 68.3998 27.5204C68.3998 27.5204 68.594 28.0651 69.3491 28.0318C70.1043 27.9985 71.1333 26.8972 67.8695 25.8246C67.8695 25.8246 68.482 25.5379 69.5119 25.4944C69.2042 25.3749 68.8768 25.3221 68.5494 25.3391C67.9868 25.3631 66.7644 25.2577 65.8159 24.334C64.8674 23.4102 63.232 22.1147 60.0208 21.6367C60.0208 21.6367 59.9849 20.6759 61.4523 20.6139C62.9196 20.552 64.0326 21.5386 65.5709 23.0339C65.5709 23.0339 64.3354 19.57 60.0584 20.0601C60.0584 20.0601 59.8081 19.1973 58.4834 17.7927C58.4834 17.7927 63.2276 18.391 66.6209 22.0287C66.6209 22.0287 65.6426 19.3564 63.701 19.0457C63.701 19.0457 65.2664 18.4909 67.1363 19.8178C67.1363 19.8178 66.5938 19.9546 66.6227 20.7157C66.6515 21.4767 67.7602 22.1665 68.2747 22.6686C68.7892 23.1707 69.0683 23.5619 69.518 24.1731C69.9678 24.7843 70.6144 25.0358 71.6898 25.3844C72.7651 25.733 72.9533 26.1427 72.9646 26.4284C72.976 26.7141 72.4108 27.1496 72.4326 27.7229C72.4545 28.2962 73.053 28.9999 72.5228 30.3703Z" fill="#009B66"/>
<path d="M57.5941 18.553C58.5828 18.9525 58.9678 20.3571 58.6029 21.0284C58.2381 21.6997 57.3123 21.8227 57.0174 21.8375C56.7226 21.8523 55.0224 21.7164 51.9039 18.6769C48.7854 15.6375 50.2878 11.4662 50.8496 10.8236C51.1261 10.5101 50.1636 13.7335 52.0868 15.3749C54.0101 17.0162 56.6648 18.1785 57.5941 18.553Z" fill="#009B66"/>
<path d="M67.8447 20.0869C67.6977 20.0869 67.6163 20.748 67.9838 21.2547C68.3513 21.7615 69.1843 22.5881 69.6883 22.4568C70.1923 22.3255 72.6012 21.7245 73.7588 19.484C74.9164 17.2435 73.7824 13.8156 72.1646 12.7966C72.1646 12.7966 72.9757 14.0339 72.7394 16.5592C72.4857 19.2417 69.8126 20.1313 67.8447 20.0869Z" fill="#009B66"/>
<path d="M63.9626 24.8029C63.9626 24.8029 63.7666 23.9356 63.2171 23.562C62.6676 23.1884 61.5835 23.4445 61.5835 23.4445C61.5835 23.4445 61.8092 23.5962 62.0919 24.1362C62.3745 24.6762 63.1016 25.2236 63.9626 24.8029Z" fill="#009B66"/>
<path d="M54.6367 23.7949C53.626 23.1264 52.4492 22.0464 52.4404 21.7403C52.4317 21.4342 53.0748 20.9552 53.5832 20.933C54.0915 20.9108 54.7154 21.7847 54.7154 21.7847C53.899 21.5896 53.3609 21.866 53.3609 21.866C55.173 24.2295 58.3379 23.7718 58.3379 23.7718C57.4598 24.2228 56.493 24.4472 55.5169 24.4265C55.5169 24.4265 54.543 26.3924 53.0135 29.9515C52.7843 29.5742 52.5235 29.1683 52.3057 28.8234C54.0329 25.5213 54.6367 23.7949 54.6367 23.7949Z" fill="#009B66"/>
<path d="M24.1097 69.9064H21.9126L19.0566 66.4462H17.2803V69.9064H15.4341V59.5388C16.9872 59.5388 18.5403 59.5527 20.0935 59.5527C22.4017 59.5684 23.6188 61.1949 23.6188 62.9842C23.6188 64.4036 23.0063 65.8378 21.1417 66.2373L24.1097 69.7714V69.9064ZM17.2803 61.3715V64.6847H20.0935C21.2686 64.6847 21.7726 63.8525 21.7726 63.0277C21.7726 62.2028 21.2537 61.3715 20.0935 61.3715H17.2803Z" fill="#ED1A3B"/>
<path d="M32.4484 69.9063H25.1177V59.5498H32.4484V61.4454H26.9499V63.8265H32.2524V65.6453H26.9499V67.982H32.4493L32.4484 69.9063Z" fill="#ED1A3B"/>
<path d="M42.7764 64.6402C42.8175 67.2571 41.3072 69.9045 37.8764 69.9045H34.0264V59.5498H37.8764C41.2372 59.5498 42.7344 62.0825 42.7764 64.6402ZM35.8639 68.0273H37.8764C40.1006 68.0273 40.9826 66.3111 40.9389 64.6254C40.8977 63.0137 40.0017 61.402 37.8764 61.402H35.8639V68.0273Z" fill="#ED1A3B"/>
<path d="M51.5504 62.0827C50.8916 61.417 49.9116 61.0462 49.0584 61.0462C46.9584 61.0462 45.6862 62.7337 45.6862 64.8623C45.6862 66.5628 46.6251 68.3225 49.0584 68.3225C49.8284 68.3225 50.4996 68.145 51.2687 67.4903V65.6603H48.7644V63.9155H52.9644V68.2791C52.0019 69.446 50.7813 70.1414 49.0602 70.1414C45.3799 70.1414 43.8828 67.5828 43.8828 64.8623C43.8828 61.9487 45.6048 59.2578 49.0602 59.2578C50.4227 59.259 51.7296 59.8294 52.6958 60.8446L51.5504 62.0827Z" fill="#009B66"/>
<path d="M63.3037 69.9064H61.1074L58.2523 66.4462H56.4752V69.9064H54.6289V59.5388C56.1812 59.5388 57.7343 59.5527 59.2874 59.5527C61.5965 59.5684 62.8137 61.1949 62.8137 62.9842C62.8137 64.4036 62.2012 65.8378 60.3365 66.2373L63.3037 69.7714V69.9064ZM56.4787 61.3734V64.6866H59.2909C60.4669 64.6866 60.97 63.8543 60.97 63.0295C60.97 62.2047 60.4538 61.3734 59.2909 61.3734H56.4787Z" fill="#009B66"/>
<path d="M71.6433 69.9063H64.3125V59.5498H71.6441V61.4454H66.1448V63.8265H71.4472V65.6453H66.1448V67.982H71.6433V69.9063Z" fill="#009B66"/>
<path d="M80.6559 69.9063H73.3252V59.5498H80.6577V61.4454H75.1557V63.8265H80.4599V65.6453H75.1557V67.982H80.6559V69.9063Z" fill="#009B66"/>
<path d="M89.0934 59.5388H90.9405V69.9064H89.7934V69.9221L84.644 62.925V69.9064H82.7969V59.5499H84.2949L89.0934 65.9682V59.5388Z" fill="#009B66"/>
<path d="M31.3573 74.2062H30.3887V73.6514H32.9052V74.2062H31.9374V76.8878H31.3599L31.3573 74.2062Z" fill="#0A0809"/>
<path d="M36.2248 76.8841H35.5423L34.6498 75.8041H34.0951V76.8841H33.5176V73.6477C34.0023 73.6477 34.488 73.6477 34.9718 73.6477C35.6928 73.6533 36.0726 74.16 36.0726 74.7194C36.0726 75.1623 35.8801 75.6099 35.3 75.7366L36.2248 76.8416V76.8841ZM34.0942 74.221V75.2539H34.9692C35.3367 75.2539 35.4942 74.9968 35.4942 74.7379C35.4942 74.479 35.3332 74.221 34.9692 74.221H34.0942Z" fill="#0A0809"/>
<path d="M38.8956 76.2747H37.2979L37.0354 76.8841H36.4106L37.7826 73.6477H38.4126L39.7846 76.8841H39.1546L38.8956 76.2747ZM38.0968 74.3329L37.528 75.7079H38.6655L38.0968 74.3329Z" fill="#0A0809"/>
<path d="M43.0884 75.2409C43.1015 76.0574 42.629 76.8841 41.5589 76.8841H40.3584V73.6477H41.5624C42.6071 73.6523 43.0744 74.4429 43.0884 75.2409ZM40.9315 76.2969H41.5624C42.2571 76.2969 42.5328 75.7625 42.5196 75.2354C42.5065 74.7324 42.2265 74.2303 41.5624 74.2303H40.935L40.9315 76.2969Z" fill="#0A0809"/>
<path d="M46.0094 76.8841H43.7222V73.6477H46.0094V74.2395H44.2935V74.9793H45.9482V75.547H44.2935V76.2868H46.0094V76.8841Z" fill="#0A0809"/>
<path d="M49.4297 76.8841H48.7437L47.853 75.8041H47.2982V76.8841H46.7251V73.6477C47.209 73.6477 47.6946 73.6477 48.1802 73.6477C48.9003 73.6533 49.2792 74.16 49.2792 74.7194C49.2792 75.1623 49.0885 75.6099 48.5066 75.7366L49.4297 76.8416V76.8841ZM47.2982 74.221V75.2539H48.1732C48.539 75.2539 48.6982 74.9968 48.6982 74.7379C48.6982 74.479 48.5363 74.221 48.1732 74.221H47.2982Z" fill="#0A0809"/>
<path d="M51.9488 74.4373C51.8438 74.2524 51.5559 74.0767 51.2243 74.0767C50.7964 74.0767 50.5917 74.2616 50.5917 74.5057C50.5917 74.7831 50.9058 74.8664 51.2733 74.9117C51.9094 74.994 52.5036 75.1706 52.5036 75.9408C52.5036 76.6612 51.9007 76.97 51.2199 76.97C50.5952 76.97 50.1157 76.7675 49.8882 76.1766L50.3686 75.9131C50.5033 76.2691 50.8577 76.4263 51.2287 76.4263C51.5997 76.4263 51.9287 76.2913 51.9287 75.9408C51.9287 75.6357 51.6286 75.5118 51.2217 75.4646C50.5978 75.3879 50.0203 75.2113 50.0203 74.4872C50.0203 73.8224 50.6407 73.5496 51.2042 73.5459C51.6802 73.5459 52.1746 73.6892 52.4047 74.1876L51.9488 74.4373Z" fill="#0A0809"/>
<path d="M57.0501 76.4762C56.8965 76.6341 56.7146 76.758 56.515 76.8406C56.3155 76.9231 56.1023 76.9627 55.8881 76.957C54.7506 76.957 54.272 76.1303 54.2676 75.2926C54.2632 74.4548 54.783 73.5884 55.8881 73.5884C56.0968 73.5883 56.3035 73.6318 56.4962 73.7166C56.6888 73.8013 56.8637 73.9256 57.0107 74.0822L56.6266 74.4752C56.4275 74.2757 56.1624 74.1665 55.8881 74.1709C55.1505 74.1709 54.832 74.7516 54.8381 75.2926C54.8442 75.8335 55.1356 76.3865 55.8881 76.3865C56.1746 76.3841 56.4495 76.2668 56.6572 76.0582L57.0501 76.4762Z" fill="#0A0809"/>
<path d="M59.6748 76.2747H58.0718L57.8093 76.8841H57.1846L58.5557 73.6477H59.1857L60.5568 76.8841H59.9277L59.6748 76.2747ZM58.8759 74.3329L58.3072 75.7079H59.4447L58.8759 74.3329Z" fill="#0A0809"/>
<path d="M61.0332 76.884V73.6577H63.2295V74.244H61.6089V75.1252H63.142V75.6883H61.6089V76.884H61.0332Z" fill="#0A0809"/>
<path d="M66.1685 76.8841H63.8804V73.6477H66.1685V74.2395H64.4517V74.9793H66.1081V75.547H64.4517V76.2868H66.1685V76.8841Z" fill="#0A0809"/>
<path d="M68.6001 73.6523V76.32H70.1751V76.8841H68.02V73.6477L68.6001 73.6523Z" fill="#0A0809"/>
<path d="M71.4133 73.6523V76.32H72.9883V76.8841H70.8384V73.6477L71.4133 73.6523Z" fill="#0A0809"/>
<path d="M75.0941 75.9326H74.2304V76.8841H73.6538V73.6477C74.1333 73.6477 74.6163 73.6477 75.0941 73.6477C76.5886 73.6486 76.5929 75.9326 75.0941 75.9326ZM74.2304 75.3778H75.0941C75.8334 75.3778 75.8282 74.233 75.0941 74.233H74.2304V75.3778Z" fill="#0A0809"/>
<path d="M15.4385 82.423V82.0716H15.6677V80.2795H15.4385V79.9355H16.3004L16.6924 81.0886C16.7037 81.1247 16.7169 81.17 16.7309 81.2227C16.7449 81.2754 16.758 81.3457 16.7755 81.4317H16.7912C16.8087 81.3503 16.8236 81.2828 16.8367 81.232C16.8499 81.1811 16.8621 81.1395 16.8735 81.108L17.2602 79.9355H18.102V80.2795H17.8754V82.0716H18.102V82.423H17.2069V82.0716H17.4825V80.6392C17.4825 80.5569 17.4825 80.495 17.4825 80.4543C17.4837 80.4168 17.4875 80.3794 17.4939 80.3424H17.472C17.4545 80.4192 17.4414 80.4793 17.43 80.5227C17.42 80.5626 17.4077 80.6018 17.3932 80.6402L16.9015 82.1197H16.639L16.1472 80.6402C16.1297 80.5902 16.1131 80.5412 16.0982 80.4931C16.0834 80.445 16.0694 80.3951 16.0562 80.3433H16.0396C16.0449 80.3803 16.0492 80.4247 16.0519 80.4719C16.0545 80.519 16.0519 80.5754 16.0519 80.6402V82.0725H16.3336V82.4239L15.4385 82.423Z" fill="#ED1A3B"/>
<path d="M20.4751 82.423V82.0716H20.6746L21.2495 80.2795H21.0001V79.9355H22.2067V80.2795H21.9626L22.5156 82.0716H22.7002V82.423H21.8348V82.0716H22.0973L21.953 81.5907H21.2162L21.0666 82.0716H21.3291V82.423H20.4751ZM21.848 81.2588L21.68 80.6596C21.6778 80.6499 21.6752 80.6403 21.6721 80.6309C21.6397 80.5172 21.6131 80.4018 21.5925 80.2851C21.5855 80.3378 21.5732 80.396 21.5592 80.4598C21.5452 80.5236 21.526 80.593 21.5023 80.6679L21.3177 81.2588H21.848Z" fill="#ED1A3B"/>
<path d="M25.0371 82.423V82.0716H25.2366L25.8124 80.2795H25.563V79.9355H26.7705V80.2795H26.5246L27.0785 82.0716H27.264V82.423H26.3986V82.0716H26.655L26.5115 81.5907H25.7756L25.626 82.0716H25.8841V82.423H25.0371ZM26.41 81.2588L26.242 80.6596C26.2403 80.6499 26.2379 80.6403 26.235 80.6309C26.2024 80.5172 26.1755 80.4018 26.1545 80.2851C26.1462 80.3439 26.1351 80.4022 26.1212 80.4598C26.1064 80.5227 26.0871 80.593 26.0644 80.6679L25.8806 81.2588H26.41Z" fill="#ED1A3B"/>
<path d="M30.9673 82.0716V81.6749H31.3252V82.423H29.6548V82.0716H29.8797V80.2795H29.6548V79.9355H30.5884V80.2795H30.2944V82.0716H30.9673Z" fill="#ED1A3B"/>
<path d="M38.1499 82.0716V81.6749H38.4999V82.423H36.8374V82.0716H37.0632V80.2795H36.8374V79.9355H37.7719V80.2795H37.4779V82.0716H38.1499Z" fill="#ED1A3B"/>
<path d="M40.894 82.423V82.0716H41.1189V80.2795H40.894V79.9355H42.7V80.5893H42.35V80.2795H41.5345V80.9102H41.825V80.6688H42.168V81.55H41.825V81.2967H41.5354V82.0753H42.35V81.686H42.7V82.4257L40.894 82.423Z" fill="#ED1A3B"/>
<path d="M45.3252 82.4192V81.9355H45.7373V82.4192H45.3252Z" fill="#0A0809"/>
<path d="M48.439 82.4192V81.9355H48.8502V82.4192H48.439Z" fill="#0A0809"/>
<path d="M51.5586 82.4192V81.9355H51.9698V82.4192H51.5586Z" fill="#0A0809"/>
<path d="M54.5371 82.423V82.0716H54.7664V80.2795H54.5371V79.9355H55.3999L55.7901 81.0886C55.8032 81.1247 55.8164 81.17 55.8304 81.2227C55.8444 81.2754 55.8575 81.3457 55.875 81.4317H55.8907C55.9082 81.3503 55.9231 81.2828 55.9354 81.232C55.9457 81.1899 55.9583 81.1486 55.973 81.108L56.3597 79.9355H57.1997V80.2795H56.974V82.0716H57.1997V82.423H56.3046V82.0716H56.5802V80.6392C56.5802 80.5569 56.5802 80.495 56.5802 80.4543C56.5819 80.4168 56.5857 80.3794 56.5916 80.3424H56.5706C56.5531 80.4192 56.5382 80.4793 56.5277 80.5227C56.5172 80.5662 56.5041 80.605 56.4919 80.6402L55.9992 82.1197H55.742L55.2494 80.6402C55.2319 80.5902 55.2152 80.5412 55.2012 80.4931C55.1872 80.445 55.1715 80.3951 55.1575 80.3433H55.1417C55.1417 80.3803 55.1505 80.4247 55.154 80.4719C55.1575 80.519 55.154 80.5754 55.154 80.6402V82.0725H55.4366V82.4239L54.5371 82.423Z" fill="#009B66"/>
<path d="M59.5762 82.423V82.0716H59.7757L60.3497 80.2795H60.102V79.9355H61.3087V80.2795H61.0619L61.6167 82.0716H61.8022V82.423H60.9368V82.0716H61.1932L61.0497 81.5907H60.3138L60.1642 82.0716H60.4223V82.423H59.5762ZM60.9499 81.2588L60.781 80.6596C60.7789 80.6499 60.7763 80.6403 60.7732 80.6309C60.7406 80.5173 60.7143 80.4019 60.6944 80.2851C60.6863 80.3375 60.6749 80.3957 60.6603 80.4598C60.6454 80.5227 60.627 80.593 60.6025 80.6679L60.4188 81.2588H60.9499Z" fill="#009B66"/>
<path d="M64.1377 82.423V82.0716H64.3372L64.9129 80.2795H64.6627V79.9355H65.8702V80.2795H65.6252L66.1791 82.0716H66.3637V82.423H65.4992V82.0716H65.7556L65.6121 81.5907H64.8762L64.7248 82.0716H64.9873V82.423H64.1377ZM65.5114 81.2588L65.3443 80.6596C65.3443 80.6596 65.3443 80.6448 65.3356 80.6309C65.3032 80.5172 65.2766 80.4018 65.2559 80.2851C65.2481 80.3378 65.2376 80.396 65.2218 80.4598C65.2061 80.5236 65.1877 80.593 65.1649 80.6679L64.9821 81.2588H65.5114Z" fill="#009B66"/>
<path d="M70.0664 82.0716V81.6749H70.4217V82.423H68.7539V82.0716H68.9797V80.2795H68.7539V79.9355H69.6875V80.2795H69.3944V82.0716H70.0664Z" fill="#009B66"/>
<path d="M77.2461 82.0716V81.6749H77.6013V82.423H75.9336V82.0716H76.1585V80.2795H75.9336V79.9355H76.8672V80.2795H76.5732V82.0716H77.2461Z" fill="#009B66"/>
<path d="M79.9355 82.423V82.0716H80.1359L80.7108 80.2795H80.4614V79.9355H81.668V80.2795H81.4222L81.976 82.0716H82.1624V82.423H81.2962V82.0716H81.5499L81.4073 81.5907H80.6749L80.5244 82.0716H80.7869V82.423H79.9355ZM81.3084 81.2588L81.1413 80.6596C81.1391 80.6498 81.1362 80.6402 81.1325 80.6309C81.094 80.4867 81.0669 80.372 81.0529 80.2851C81.045 80.3378 81.0345 80.396 81.0197 80.4598C81.0048 80.5236 80.9856 80.593 80.9619 80.6679L80.7782 81.2588H81.3084Z" fill="#009B66"/>
<path d="M84.4951 82.423V82.0716H84.6999L85.2739 80.2795H85.0254V79.9355H86.232V80.2795H85.9861L86.5374 82.0716H86.7229V82.423H85.8566V82.0716H86.1139L85.9704 81.5907H85.2336L85.0849 82.0716H85.3474V82.423H84.4951ZM85.8689 81.2588L85.7009 80.6596C85.6992 80.6498 85.6965 80.6402 85.693 80.6309C85.6536 80.4867 85.6282 80.372 85.6134 80.2851C85.6064 80.3378 85.5941 80.396 85.5801 80.4598C85.5661 80.5236 85.546 80.593 85.5224 80.6679L85.3386 81.2588H85.8689Z" fill="#009B66"/>
<path d="M89.7968 82.4822L89.0749 80.2815H88.8833V79.9375H89.7408V80.2815H89.4993L89.8651 81.4124C89.8834 81.4679 89.8992 81.5215 89.9114 81.5751C89.9237 81.6288 89.9324 81.6815 89.9403 81.7332C89.9464 81.6861 89.9543 81.6408 89.9657 81.5834C89.9771 81.5261 89.9902 81.478 90.0051 81.4189L90.3192 80.2815H90.068V79.9375H90.9229V80.2815H90.7278L90.0899 82.4822H89.7968Z" fill="#009B66"/>
<path d="M28.5267 74.8516H15.4341V75.1618H28.5267V74.8516Z" fill="#0A0809"/>
<path d="M90.9406 74.8516H77.8462V75.1618H90.9406V74.8516Z" fill="#0A0809"/>
<path d="M53.1869 30.6905C52.9813 30.1357 52.0424 28.769 51.6749 28.1374C51.3074 27.5059 51.5235 26.8161 51.625 26.7069C51.912 26.4036 52.5648 25.8044 52.5648 24.7216C52.5648 23.6388 51.7869 22.4793 50.4823 22.2851C49.9548 21.8028 49.4725 21.268 49.042 20.6881C48.2746 19.671 46.9674 19.0376 45.5175 18.5882C44.0677 18.1388 43.6888 17.8142 42.3343 16.8858C40.9798 15.9574 40.0908 15.4165 39.3812 15.4165C38.6715 15.4165 37.2602 15.7374 37.3687 16.614C37.4772 17.4906 37.5638 17.5387 37.3582 17.9159C37.1525 18.2932 36.3957 19.3205 36.4779 20.5328C36.4779 21.1514 36.9915 21.1514 36.9915 21.1514C36.9915 21.1514 37.429 22.6207 38.4554 23.7036C38.4554 23.7036 38.9192 24.9796 38.9192 26.8614C38.9192 28.7431 38.1745 29.8 38.1745 29.8C38.1288 29.7913 38.087 29.767 38.0555 29.731C38.0239 29.695 38.0043 29.6491 37.9995 29.6003C37.9628 29.4153 37.7869 29.5272 37.7099 29.7732C37.6329 30.0192 37.0974 31.4829 37.919 32.9236C38.7406 34.3643 39.8379 34.491 40.075 34.491C40.3121 34.491 40.8161 34.8118 40.425 36.2358C40.0339 37.6599 39.7697 38.2285 39.7697 40.2934C39.7697 42.3582 41.489 47.7676 48.3 47.9914C48.3 47.9914 42.7875 46.1836 41.9309 39.4843C41.9309 39.4843 42.6309 42.2657 46.7075 45.3283C46.7075 45.3283 43.2189 41.7553 43.9697 35.117C43.9697 35.117 44.4833 38.026 46.8152 40.224C46.8152 40.224 46.0005 35.6875 47.0304 33.5265C47.0304 33.5265 47.3428 37.7921 50.3038 40.3368C50.3038 40.3368 49.5005 39.2947 49.5005 36.6482C49.5005 34.699 48.5188 33.7688 48.5188 33.7688C48.5188 33.7688 51.0563 34.8322 51.0563 37.0976C51.0563 38.5568 51.6487 39.5888 52.4423 40.3257C54.8853 37.2909 54.6613 34.6629 53.1869 30.6905ZM38.108 21.3891C38.1289 21.8204 38.1947 22.248 38.304 22.6642C38.304 22.6642 37.6915 22.1593 37.324 21.07C37.324 21.07 38.178 20.4875 40.4521 20.4875C42.7263 20.4875 42.9896 22.3008 42.9896 22.3008C42.9896 22.3008 42.1146 21.3225 41.5958 21.3225C41.0769 21.3225 41.0069 22.7299 40.7365 22.7299C40.4661 22.7299 40.1573 21.2032 40.1573 21.2032C40.1573 21.2032 39.0136 20.9582 38.108 21.3891ZM40.1065 27.2849C40.194 27.2849 40.495 27.3468 40.6543 26.5904C40.8135 25.834 40.9561 25.5677 41.5214 25.5677C42.0866 25.5677 42.4314 26.9548 41.713 28.0505C40.9946 29.1463 40.4434 29.3044 39.8125 29.42C39.7143 29.4383 39.6134 29.4333 39.5172 29.4052C39.4211 29.3771 39.332 29.3268 39.2566 29.2578C39.1812 29.1888 39.1213 29.1029 39.0812 29.0063C39.0411 28.9098 39.0219 28.805 39.025 28.6996C39.025 28.1217 39.4048 27.9072 39.4048 26.8577C39.4048 25.8081 39.6139 25.5862 39.9 25.5862C40.1861 25.5862 40.3883 25.8969 40.229 26.4656C40.0698 27.0343 40.0216 27.2849 40.1065 27.2849V27.2849ZM38.1728 31.6087C38.0098 31.4172 37.8946 31.1857 37.8377 30.9353C37.7807 30.6849 37.7837 30.4234 37.8464 30.1745C37.8464 30.1745 37.9601 31.2767 39.0784 31.2767C40.1966 31.2767 40.2981 30.5425 40.3393 30.2892C40.3804 30.0358 40.4828 29.985 40.6096 30.1597C40.7365 30.3345 40.9273 30.4519 41.2781 30.4519C41.9545 30.4519 42.5906 29.629 42.5906 29.629C42.5906 29.629 42.4244 30.7016 41.3656 31.4497C40.6219 31.974 38.7363 32.2717 38.1728 31.6087V31.6087ZM52.1605 37.2854C52.2786 32.2837 50.2066 32.3771 48.3586 32.3771C46.5106 32.3771 46.025 28.2364 46.025 28.2364C44.9654 30.7978 45.6987 33.0928 45.6987 33.0928C44.4737 31.7983 44.359 30.291 44.359 30.291C41.1784 35.3629 39.0312 32.7729 39.0312 32.7729C43.5252 33.3064 43.8174 25.9949 43.4376 23.1931C43.0579 20.3913 41.8171 19.8559 40.4495 19.8559C39.0819 19.8559 38.4125 20.1583 37.6626 20.1583C36.9128 20.1583 37.0379 19.499 37.2759 19.0736C37.5139 18.6483 37.7134 18.2072 37.7134 18.2072C38.5412 19.081 39.5299 17.7014 39.9342 17.1965C40.3384 16.6916 41.1592 16.8951 42.1217 17.4628C43.0842 18.0306 44.6495 18.9072 45.8238 20.1491C46.998 21.3909 47.9343 21.4103 47.9343 21.4103C47.1844 21.1024 47.1914 20.2609 46.7731 19.9382C46.3549 19.6155 45.4668 19.1411 45.4668 19.1411C47.2115 19.6035 48.2081 20.3284 49.1671 22.0493C50.1261 23.7701 51.135 25.2071 51.135 25.2071C51.8989 24.4757 51.3975 23.7526 50.9915 23.4678C50.5855 23.183 50.5112 22.8778 50.5112 22.8778C51.9567 22.8778 52.5665 24.7272 51.4019 25.8118C50.2373 26.8965 50.7281 27.7324 51.1648 28.6044C51.6014 29.4764 53.0355 31.8963 53.0355 34.3504C53.0355 36.8045 52.1605 37.2854 52.1605 37.2854V37.2854ZM46.473 23.7535C45.0441 22.8464 44.6469 22.1972 43.7719 20.7464C42.8969 19.2956 42.0761 19.0487 42.0761 19.0487C43.6923 20.2582 44.3993 22.0456 44.6513 23.7359C44.8099 24.9011 44.8872 26.0771 44.8823 27.2544C44.9873 25.6398 45.4073 24.4202 46.4109 24.4202C47.4145 24.4202 47.9264 25.7147 47.9264 25.7147C47.9264 25.7147 47.9089 24.6606 46.4774 23.7535H46.473Z" fill="#ED1A3B"/>
<path d="M48.7252 14.488C48.6939 13.8436 48.7356 13.1976 48.8494 12.5637C46.0071 12.8271 43.1992 13.407 40.4722 14.2938C41.1678 14.5444 41.9063 15.0049 42.762 15.5884C44.7198 15.0588 46.7135 14.6909 48.7252 14.488V14.488Z" fill="#ED1A3B"/>
<path d="M67.7085 33.0863C62.546 47.8675 52.4302 54.4688 52.4302 54.4688C52.4302 54.4688 64.7791 47.6021 70.0291 31.8093C69.7491 31.8768 69.3658 32.0396 68.7988 32.3993L67.7085 33.0863Z" fill="#009B66"/>
<path d="M46.5796 49.1555C46.1885 49.0935 45.8088 49.0186 45.4526 48.9243C49.2615 52.7081 52.4299 54.4724 52.4299 54.4724C52.4299 54.4724 49.8215 52.7627 46.5796 49.1555Z" fill="#ED1A3B"/>
<path d="M34.3304 19.1171C34.3304 19.1171 34.7959 18.8046 35.6621 18.3413C35.8166 18.006 35.992 17.682 36.1871 17.3713L36.1941 17.3602C36.1941 17.3436 36.1898 17.3278 36.188 17.313C36.1661 17.1771 36.1416 17.0088 36.1145 16.7887C36.0826 16.523 36.1013 16.2533 36.1696 15.9954C33.8308 17.0985 32.52 18.0297 32.52 18.0297C32.695 27.1637 35.2684 34.4031 38.5103 39.9512C38.513 39.0544 38.6272 38.1619 38.8498 37.2965C36.601 32.3827 34.8326 26.3537 34.3304 19.1171Z" fill="#ED1A3B"/>
<path d="M69.5141 18.5151C70.1616 18.3209 70.8319 17.9603 71.2011 17.313C68.6269 15.7984 61.8045 12.3872 52.4298 12.3872C52.3239 12.3872 52.2241 12.3946 52.1191 12.3965C52.1515 13.0761 52.3178 13.8316 52.8611 14.3143C61.1815 14.4086 67.2313 17.2492 69.5141 18.5151Z" fill="#009B66"/>
<path d="M70.6851 23.5304C70.8854 23.6864 71.2214 23.8276 71.8497 24.0362C71.9013 23.6827 71.9538 23.3302 71.9967 22.9702C71.5736 23.1918 71.1351 23.3791 70.6851 23.5304V23.5304Z" fill="#009B66"/>
<path d="M52.3016 43.5723H50.6216V49.4061H52.3016V43.5723Z" fill="#ED1A3B"/>
<path d="M51.6029 41.8005H51.3203V51.5754H51.6029V41.8005Z" fill="#ED1A3B"/>
<path d="M55.8467 42.3081H54.1685V48.142H55.8467V42.3081Z" fill="#009B66"/>
<path d="M55.1503 40.5374H54.8677V50.3113H55.1503V40.5374Z" fill="#009B66"/>
</g>
<defs>
<clipPath id="clip0_90_1317">
<rect width="105" height="92.4688" fill="white"/>
</clipPath>
</defs>
</svg>
