<svg width="22" height="16" viewBox="0 0 22 16" fill="none" xmlns="http://www.w3.org/2000/svg">
<path d="M2.20002 15.0503L0.550024 13.4003L8.50002 5.45029L12.6 9.57529L15.825 5.92529C14.825 4.84196 13.7209 4.00863 12.5125 3.42529C11.3042 2.84196 9.99169 2.55029 8.57502 2.55029C7.37502 2.55029 6.22919 2.76696 5.13752 3.20029C4.04586 3.63363 3.05836 4.24196 2.17502 5.02529L0.525024 3.35029C1.60836 2.36696 2.82919 1.59196 4.18752 1.02529C5.54586 0.458626 7.00836 0.175293 8.57502 0.175293C10.275 0.175293 11.8875 0.537793 13.4125 1.26279C14.9375 1.98779 16.2667 2.97529 17.4 4.22529L19.825 1.47529L21.475 3.12529L18.8 6.17529C19.4 7.00863 19.8875 7.99196 20.2625 9.12529C20.6375 10.2586 20.9 11.417 21.05 12.6003H18.675C18.575 11.7503 18.4 10.942 18.15 10.1753C17.9 9.40863 17.575 8.67529 17.175 7.97529L12.7 12.9753L8.50002 8.75029L2.20002 15.0503Z" fill="#E8EAF6"/>
</svg>
