<svg width="21" height="21" viewBox="0 0 21 21" fill="none" xmlns="http://www.w3.org/2000/svg">
<path d="M10.5 21C16.299 21 21 16.299 21 10.5C21 4.70101 16.299 0 10.5 0C4.70101 0 0 4.70101 0 10.5C0 16.299 4.70101 21 10.5 21Z" fill="#00C99F"/>
<path d="M15.8054 5.25H13.3464C13.129 5.25 12.9205 5.32907 12.7668 5.4698C12.6131 5.61054 12.5268 5.80142 12.5268 6.00045C12.5268 6.19948 12.6131 6.39036 12.7668 6.5311C12.9205 6.67184 13.129 6.7509 13.3464 6.7509H13.8259L11.7071 8.69082L9.00638 6.22183C8.85281 6.08206 8.64507 6.00361 8.42853 6.00361C8.21199 6.00361 8.00425 6.08206 7.85068 6.22183L4.57209 9.22364C4.43781 9.3672 4.36764 9.55187 4.37561 9.74074C4.38358 9.92961 4.4691 10.1088 4.61507 10.2424C4.76104 10.3761 4.95673 10.4544 5.16301 10.4617C5.3693 10.469 5.57099 10.4047 5.72779 10.2818L8.42853 7.81279L11.1293 10.2818C11.2828 10.4215 11.4906 10.5 11.7071 10.5C11.9237 10.5 12.1314 10.4215 12.285 10.2818L14.9857 7.81279V8.62703C14.9857 8.82606 15.0721 9.01694 15.2258 9.15768C15.3795 9.29842 15.588 9.37748 15.8054 9.37748C16.0227 9.37748 16.2312 9.29842 16.3849 9.15768C16.5386 9.01694 16.625 8.82606 16.625 8.62703V6.00045C16.625 5.80142 16.5386 5.61054 16.3849 5.4698C16.2312 5.32907 16.0227 5.25 15.8054 5.25Z" fill="white"/>
<path d="M12.4688 16.625C12.2662 16.625 12.0701 16.5496 11.9439 16.4151L9.1875 13.475V16.1C9.1875 16.3899 8.89396 16.625 8.53125 16.625C8.16854 16.625 7.875 16.3899 7.875 16.1V11.9C7.875 11.6739 8.05573 11.4735 8.32361 11.402C8.59281 11.3304 8.88694 11.4045 9.05612 11.585L11.8125 14.525V11.9C11.8125 11.6101 12.106 11.375 12.4688 11.375C12.8315 11.375 13.125 11.6101 13.125 11.9V16.1C13.125 16.3261 12.9443 16.5266 12.6764 16.5981C12.6078 16.6163 12.538 16.625 12.4688 16.625Z" fill="#FAFAFF"/>
</svg>
