<svg width="25" height="25" viewBox="0 0 25 25" fill="none" xmlns="http://www.w3.org/2000/svg">
<path d="M24.9837 9.6849L23.7512 4.61774C23.7313 4.53704 23.6885 4.46384 23.6278 4.40702C23.5671 4.35021 23.4913 4.31222 23.4094 4.29767C23.3276 4.28312 23.2433 4.29264 23.1668 4.32506C23.0902 4.35748 23.0247 4.41142 22.9783 4.48033L21.7415 6.30537L9.17241 0.0444203C9.09004 0.00372483 8.99678 -0.009477 8.90635 0.0067547C8.81592 0.0229864 8.73307 0.0677958 8.66999 0.134599L3.73595 5.36064L0.622659 3.78896C0.557289 3.75602 0.484583 3.74034 0.411446 3.7434C0.338309 3.74647 0.267169 3.76818 0.204783 3.80647C0.142396 3.84476 0.0908341 3.89837 0.0549929 3.96219C0.0191518 4.02602 0.000221524 4.09795 0 4.17115V7.5378C0.000240349 7.6171 0.0224345 7.69479 0.0641224 7.76224C0.10581 7.8297 0.165363 7.8843 0.236181 7.91998L3.67154 9.63766C3.75212 9.67893 3.84368 9.69368 3.93314 9.6798C4.0226 9.66592 4.10539 9.62412 4.16967 9.56037L9.53313 4.19262L19.8092 9.1653L19.0362 10.3119C18.9883 10.3817 18.9622 10.464 18.961 10.5487C18.9598 10.6333 18.9836 10.7164 19.0295 10.7875C19.0754 10.8586 19.1413 10.9146 19.2189 10.9484C19.2964 10.9822 19.3823 10.9923 19.4656 10.9775L24.6401 10.226C24.6998 10.2162 24.7568 10.1939 24.8073 10.1605C24.8578 10.1271 24.9007 10.0835 24.9331 10.0324C24.9655 9.9813 24.9868 9.92394 24.9955 9.86405C25.0042 9.80417 25.0002 9.74312 24.9837 9.6849Z" fill="#EE2121"/>
<path d="M23.8756 18.277C23.4763 17.8475 23.0168 17.3279 22.8966 17.1648C22.8966 16.8556 23.0426 16.1041 22.6862 15.5158C22.2567 14.8244 20.9685 14.4294 20.2084 14.1202C19.3238 13.738 17.4773 11.6081 16.3694 11.4062C14.5014 11.0756 13.5867 11.6725 12.4788 11.5694C11.3709 11.4664 11.3108 11.2474 10.0011 11.0326C8.23183 10.854 6.44775 11.1707 4.84804 11.9473C3.57696 12.6559 1.71757 14.4122 1.58874 15.6618C1.55919 15.8031 1.56574 15.9496 1.60777 16.0877C1.6498 16.2258 1.72596 16.351 1.82922 16.4519C1.98638 16.5511 2.16621 16.6087 2.35177 16.6192C2.53733 16.6297 2.72252 16.5929 2.88989 16.512C2.79579 17.4361 2.83484 18.3689 3.00583 19.2818C3.38372 22.043 3.1046 21.7037 2.71812 23.7821C2.70667 23.8446 2.70924 23.9089 2.72563 23.9703C2.74202 24.0317 2.77183 24.0886 2.81291 24.1371C2.85399 24.1856 2.90531 24.2243 2.96318 24.2506C3.02104 24.2768 3.08401 24.2899 3.14754 24.2888H8.05152C8.11548 24.29 8.1789 24.2769 8.23713 24.2504C8.29537 24.2239 8.34695 24.1847 8.38811 24.1358C8.42927 24.0868 8.45896 24.0292 8.47502 23.9673C8.49108 23.9054 8.4931 23.8406 8.48094 23.7778C8.3607 23.1552 8.27911 22.7429 7.68651 22.3779C7.09391 22.0129 7.0295 22.262 7.03808 21.6093C7.08061 21.2022 7.18036 20.8032 7.33439 20.4241C8.98632 20.9861 10.7876 20.9188 12.393 20.2351C12.8261 21.6225 13.4863 22.9285 14.3468 24.0999C14.3864 24.154 14.438 24.1981 14.4977 24.2287C14.5573 24.2593 14.6233 24.2755 14.6904 24.276H17.3356C17.3978 24.2767 17.4595 24.2638 17.5163 24.2383C17.5731 24.2129 17.6236 24.1753 17.6645 24.1283C17.7053 24.0814 17.7355 24.0261 17.7528 23.9663C17.7702 23.9065 17.7743 23.8437 17.765 23.7821C17.5975 22.7 16.5154 22.3006 16.2835 21.5148C16.0516 20.729 16.2835 19.8443 16.5197 18.9383C17.0641 18.6969 17.6288 18.5043 18.2073 18.3628C18.8686 18.3628 22.2653 20.0032 22.7334 20.0161C23.1628 20.0161 23.5579 19.5867 23.9272 18.6935C23.955 18.6255 23.9648 18.5514 23.9558 18.4785C23.9468 18.4056 23.9192 18.3362 23.8756 18.277Z" fill="#EE2121"/>
</svg>
