<svg width="25" height="26" viewBox="0 0 25 26" fill="none" xmlns="http://www.w3.org/2000/svg">
<path d="M1.03134 12.0702L2.13397 14.1047L2.75481 14.2019L2.75417 14.2013L2.47483 12L3.29097 13.6258L4.45687 14.0732L6.95883 14.191L9.91542 12.4995L11.9503 13.3298L13.2474 14.9666L17.3211 16.3317L19.9367 16.4939L23.0606 17.097L24.0272 19.577L23.1437 21.4075L23.5418 19.577L22.4117 17.4909L20.518 17.3204L21.4364 18.6263L21.4583 19.4843L20.4433 21.1835L20.8244 23.3313L20.0337 25.0351L18.6604 25.0621L19.8059 23.3893L18.7673 22.0415L16.7487 24.0265L16.5844 25.093L15.3105 25.1857L15.9268 23.8643L16.5306 22.9374L16.2206 22.0801L11.707 21.701L10.5319 22.4972L11.8935 24.8935L10.573 24.8767L9.04351 22.2288L9.38518 21.2176L6.92758 21.3972L7.87458 23.7484L6.58175 23.4266L5.88485 20.7793L7.38886 20.0835L6.39095 19.5525L5.50608 17.8913L3.44073 18.6263L2.61129 18.6643L1.81355 18.3238L2.74241 16.6323L2.48932 15.6482L2.58766 15.3669L1.47397 14.8584L1.03134 12.0702Z" fill="#039DF3"/>
<path d="M24.9837 1.29923L23.7512 6.36639C23.7313 6.44709 23.6885 6.52029 23.6278 6.57711C23.5671 6.63392 23.4913 6.67191 23.4094 6.68646C23.3276 6.70101 23.2433 6.69149 23.1668 6.65907C23.0902 6.62665 23.0247 6.57271 22.9783 6.5038L21.7415 4.67877L9.17241 10.9397C9.09004 10.9804 8.99678 10.9936 8.90635 10.9774C8.81592 10.9611 8.73307 10.9163 8.66999 10.8495L3.73595 5.62349L0.622659 7.19517C0.557289 7.22811 0.484583 7.24379 0.411446 7.24073C0.338309 7.23766 0.267169 7.21595 0.204783 7.17766C0.142396 7.13937 0.0908341 7.08577 0.0549929 7.02194C0.0191518 6.95811 0.000221524 6.88618 0 6.81298V3.44633C0.000240349 3.36703 0.0224345 3.28935 0.0641224 3.22189C0.10581 3.15443 0.165363 3.09983 0.236181 3.06415L3.67154 1.34647C3.75212 1.3052 3.84368 1.29045 3.93314 1.30433C4.0226 1.31821 4.10539 1.36001 4.16967 1.42376L9.53313 6.79151L19.8092 1.81883L19.0362 0.672276C18.9883 0.602476 18.9622 0.520092 18.961 0.435471C18.9598 0.350849 18.9836 0.267764 19.0295 0.196651C19.0754 0.125536 19.1413 0.0695648 19.2189 0.0357647C19.2964 0.00196552 19.3823 -0.00815487 19.4656 0.00667477L24.6401 0.75816C24.6998 0.767961 24.7568 0.790273 24.8073 0.823633C24.8578 0.856994 24.9007 0.90065 24.9331 0.951738C24.9655 1.00283 24.9868 1.06019 24.9955 1.12008C25.0042 1.17997 25.0002 1.24102 24.9837 1.29923Z" fill="#039DF3"/>
</svg>
