<svg width="140" height="124" viewBox="0 0 140 124" fill="none" xmlns="http://www.w3.org/2000/svg">
<g clip-path="url(#clip0_1144_174448)">
<path d="M89.7067 42.9707C89.7067 42.9707 86.5989 42.6755 85.9549 46.673C85.3109 50.6705 84.9031 51.6631 83.3544 52.882C83.3544 52.882 86.4819 51.9571 86.6233 48.6115C86.7646 45.2659 87.2059 43.6878 89.7067 42.9707Z" fill="white"/>
<path d="M82.1886 41.591C82.1886 41.591 76.8093 41.618 76.6807 38.2773C76.6807 38.2773 74.8806 43.4544 82.1886 41.591Z" fill="white"/>
<path d="M95.7352 41.2275C95.3469 41.2157 94.9598 41.1746 94.5769 41.1045C93.9468 40.9876 93.0711 40.5694 90.7104 42.0651C90.8544 41.5437 91.147 41.0824 91.548 40.7448C91.9489 40.4071 92.4385 40.2096 92.9494 40.1795C94.7889 40.0344 95.1538 40.5079 95.7352 41.2275Z" fill="white"/>
<path d="M96.505 40.8984C96.505 40.8984 96.0787 38.42 92.5667 39.5983C92.4814 39.4127 92.4533 39.2033 92.4864 38.9997C92.5194 38.7962 92.612 38.6088 92.7509 38.4643C92.7509 38.4643 89.6697 38.7988 89.54 35.377C89.54 35.377 90.9612 35.356 91.8335 36.5627C91.5408 36.6891 91.2738 36.874 91.0469 37.1076C91.0469 37.1076 91.3041 37.832 92.3037 37.7878C93.3034 37.7435 94.6656 36.2785 90.345 34.8517C90.345 34.8517 91.1558 34.4704 92.5192 34.4126C92.1118 34.2537 91.6785 34.1834 91.245 34.206C90.5002 34.238 88.882 34.0978 87.6264 32.869C86.3708 31.6402 84.2058 29.917 79.9547 29.2811C79.9547 29.2811 79.9073 28.0031 81.8498 27.9207C83.7923 27.8383 85.2657 29.1507 87.3021 31.1396C87.3021 31.1396 85.6665 26.532 80.0046 27.1839C80.0046 27.1839 79.6733 26.0363 77.9196 24.168C77.9196 24.168 84.2 24.9638 88.6921 29.8026C88.6921 29.8026 87.397 26.2479 84.8267 25.8346C84.8267 25.8346 86.899 25.0966 89.3743 26.8617C89.3743 26.8617 88.6561 27.0437 88.6944 28.056C88.7326 29.0683 90.2002 29.9859 90.8813 30.6538C91.5624 31.3216 91.9319 31.8419 92.5273 32.655C93.1227 33.468 93.9787 33.8026 95.4023 34.2663C96.8259 34.73 97.0749 35.2749 97.09 35.6549C97.105 36.035 96.3567 36.6143 96.3857 37.3769C96.4147 38.1395 97.207 39.0756 96.505 40.8984Z" fill="white"/>
<path d="M76.7442 25.1791C78.0531 25.7104 78.5628 27.5788 78.0798 28.4718C77.5967 29.3647 76.3712 29.5283 75.9809 29.548C75.5905 29.5677 73.3399 29.3869 69.2116 25.3439C65.0833 21.3009 67.0721 15.7523 67.8158 14.8975C68.1818 14.4805 66.9076 18.7683 69.4537 20.9515C71.9997 23.1348 75.5141 24.6809 76.7442 25.1791Z" fill="white"/>
<path d="M90.3137 27.2188C90.1191 27.2188 90.0114 28.0983 90.4979 28.7723C90.9844 29.4463 92.0871 30.546 92.7543 30.3713C93.4215 30.1966 96.6104 29.3971 98.1429 26.4168C99.6753 23.4366 98.1741 18.8769 96.0324 17.5215C96.0324 17.5215 97.1061 19.1672 96.7934 22.5264C96.4575 26.0946 92.9188 27.2778 90.3137 27.2188Z" fill="white"/>
<path d="M85.1724 33.4931C85.1724 33.4931 84.9129 32.3393 84.1855 31.8424C83.4581 31.3455 82.0229 31.6862 82.0229 31.6862C82.0229 31.6862 82.3217 31.8879 82.6959 32.6062C83.07 33.3246 84.0326 34.0527 85.1724 33.4931Z" fill="white"/>
<path d="M72.8298 32.1512C71.4919 31.2619 69.934 29.8252 69.9224 29.4181C69.9108 29.011 70.7622 28.3738 71.4352 28.3443C72.1082 28.3148 72.9341 29.4771 72.9341 29.4771C71.8533 29.2176 71.141 29.5854 71.141 29.5854C73.5399 32.7293 77.7296 32.1204 77.7296 32.1204C76.5671 32.7203 75.2873 33.0187 73.9951 32.9912C73.9951 32.9912 72.7059 35.6062 70.6811 40.3405C70.3776 39.8387 70.0324 39.2987 69.744 38.8399C72.0306 34.4476 72.8298 32.1512 72.8298 32.1512Z" fill="white"/>
<path d="M32.416 93.488H29.5075L25.7267 88.8854H23.3752V93.488H20.9312V79.6973C22.9872 79.6973 25.0432 79.7157 27.0993 79.7157C30.155 79.7366 31.7662 81.9002 31.7662 84.2802C31.7662 86.1683 30.9554 88.076 28.487 88.6074L32.416 93.3084V93.488ZM23.3752 82.1351V86.5422H27.0993C28.6549 86.5422 29.3221 85.4352 29.3221 84.3381C29.3221 83.2409 28.6352 82.1351 27.0993 82.1351H23.3752Z" fill="white"/>
<path d="M43.4549 93.4879H33.7504V79.7119H43.4549V82.2334H36.1759V85.4007H43.1954V87.8201H36.1759V90.9283H43.456L43.4549 93.4879Z" fill="white"/>
<path d="M57.129 86.4831C57.1835 89.964 55.1842 93.4854 50.6424 93.4854H45.5457V79.7119H50.6424C55.0915 79.7119 57.0734 83.0809 57.129 86.4831ZM47.9782 90.9886H50.6424C53.5869 90.9886 54.7545 88.7057 54.6965 86.4634C54.6421 84.3195 53.456 82.1756 50.6424 82.1756H47.9782V90.9886Z" fill="white"/>
<path d="M68.7432 83.0809C67.871 82.1953 66.5736 81.7021 65.4443 81.7021C62.6643 81.7021 60.98 83.9468 60.98 86.7783C60.98 89.0402 62.2229 91.3809 65.4443 91.3809C66.4636 91.3809 67.352 91.1448 68.3702 90.2739V87.8398H65.0551V85.5188H70.6151V91.3231C69.3409 92.8754 67.725 93.8003 65.4466 93.8003C60.5746 93.8003 58.5927 90.3969 58.5927 86.7783C58.5927 82.9025 60.8723 79.3232 65.4466 79.3232C67.2503 79.3248 68.9803 80.0835 70.2594 81.4339L68.7432 83.0809Z" fill="white"/>
<path d="M84.3019 93.488H81.3945L77.6149 88.8854H75.2623V93.488H72.8182V79.6973C74.8731 79.6973 76.9292 79.7157 78.9852 79.7157C82.042 79.7366 83.6533 81.9002 83.6533 84.2802C83.6533 86.1683 82.8425 88.076 80.374 88.6074L84.3019 93.3084V93.488ZM75.2669 82.1376V86.5447H78.9898C80.5466 86.5447 81.2127 85.4377 81.2127 84.3405C81.2127 83.2434 80.5293 82.1376 78.9898 82.1376H75.2669Z" fill="white"/>
<path d="M95.342 93.4879H85.6375V79.7119H95.3432V82.2334H88.0631V85.4007H95.0826V87.8201H88.0631V90.9283H95.342V93.4879Z" fill="white"/>
<path d="M107.272 93.4879H97.5673V79.7119H107.274V82.2334H99.9906V85.4007H107.012V87.8201H99.9906V90.9283H107.272V93.4879Z" fill="white"/>
<path d="M118.443 79.6973H120.888V93.488H119.369V93.5089L112.553 84.2015V93.488H110.107V79.712H112.09L118.443 88.2495V79.6973Z" fill="white"/>
<path d="M42.0112 99.2077H40.7289V98.4697H44.0602V99.2077H42.7791V102.775H42.0146L42.0112 99.2077Z" fill="white"/>
<path d="M48.455 102.77H47.5515L46.37 101.333H45.6356V102.77H44.8711V98.4648C45.5128 98.4648 46.1557 98.4648 46.7962 98.4648C47.7507 98.4722 48.2534 99.1463 48.2534 99.8904C48.2534 100.48 47.9986 101.075 47.2306 101.243L48.455 102.713V102.77ZM45.6344 99.2274V100.601H46.7928C47.2793 100.601 47.4878 100.259 47.4878 99.915C47.4878 99.5706 47.2746 99.2274 46.7928 99.2274H45.6344Z" fill="white"/>
<path d="M51.9898 101.958H49.8747L49.5272 102.769H48.7001L50.5164 98.4639H51.3504L53.1667 102.769H52.3327L51.9898 101.958ZM50.9322 99.3753L50.1793 101.204H51.6852L50.9322 99.3753Z" fill="white"/>
<path d="M57.5421 100.583C57.5595 101.669 56.934 102.769 55.5173 102.769H53.9281V98.4639H55.522C56.905 98.47 57.5236 99.5217 57.5421 100.583ZM54.6868 101.988H55.522C56.4417 101.988 56.8066 101.277 56.7892 100.576C56.7718 99.9067 56.4011 99.2388 55.522 99.2388H54.6914L54.6868 101.988Z" fill="white"/>
<path d="M61.4084 102.769H58.3805V98.4639H61.4084V99.2511H59.1369V100.235H61.3273V100.99H59.1369V101.974H61.4084V102.769Z" fill="white"/>
<path d="M65.9349 102.769H65.0268L63.8476 101.332H63.1132V102.769H62.3545V98.4639C62.9951 98.4639 63.6379 98.4639 64.2808 98.4639C65.2341 98.4712 65.7357 99.1453 65.7357 99.8894C65.7357 100.479 65.4831 101.074 64.7129 101.242L65.9349 102.712V102.769ZM63.1132 99.2265V100.6H64.2715C64.7557 100.6 64.9665 100.258 64.9665 99.914C64.9665 99.5696 64.7522 99.2265 64.2715 99.2265H63.1132Z" fill="white"/>
<path d="M69.2684 99.5148C69.1294 99.2688 68.7483 99.0351 68.3093 99.0351C67.7429 99.0351 67.4718 99.2811 67.4718 99.6058C67.4718 99.9748 67.8877 100.086 68.3742 100.146C69.2163 100.255 70.0028 100.49 70.0028 101.515C70.0028 102.473 69.2047 102.884 68.3035 102.884C67.4765 102.884 66.8417 102.614 66.5405 101.828L67.1765 101.478C67.3548 101.951 67.824 102.161 68.3151 102.161C68.8062 102.161 69.2418 101.981 69.2418 101.515C69.2418 101.109 68.8445 100.944 68.3058 100.881C67.4799 100.779 66.7154 100.544 66.7154 99.5812C66.7154 98.6969 67.5367 98.334 68.2827 98.3291C68.9128 98.3291 69.5672 98.5198 69.8719 99.1827L69.2684 99.5148Z" fill="white"/>
<path d="M76.0233 102.228C75.82 102.438 75.5792 102.603 75.315 102.713C75.0508 102.823 74.7686 102.875 74.485 102.868C72.9792 102.868 72.3456 101.768 72.3398 100.654C72.334 99.5392 73.0221 98.3867 74.485 98.3867C74.7613 98.3866 75.0349 98.4445 75.29 98.5573C75.5451 98.67 75.7766 98.8353 75.9712 99.0435L75.4627 99.5663C75.1991 99.3009 74.8482 99.1557 74.485 99.1616C73.5086 99.1616 73.0869 99.9341 73.095 100.654C73.1032 101.373 73.4889 102.109 74.485 102.109C74.8643 102.106 75.2283 101.949 75.5032 101.672L76.0233 102.228Z" fill="white"/>
<path d="M79.4994 101.958H77.3773L77.0298 102.769H76.2028L78.0179 98.4639H78.8519L80.667 102.769H79.8341L79.4994 101.958ZM78.4418 99.3753L77.6889 101.204H79.1947L78.4418 99.3753Z" fill="white"/>
<path d="M81.296 102.77V98.4785H84.2034V99.2583H82.0582V100.431H84.0876V101.18H82.0582V102.77H81.296Z" fill="white"/>
<path d="M88.0925 102.769H85.0635V98.4639H88.0925V99.2511H85.8199V100.235H88.0126V100.99H85.8199V101.974H88.0925V102.769Z" fill="white"/>
<path d="M91.3129 98.47V102.019H93.3979V102.769H90.5449V98.4639L91.3129 98.47Z" fill="white"/>
<path d="M95.0369 98.47V102.019H97.1219V102.769H94.2759V98.4639L95.0369 98.47Z" fill="white"/>
<path d="M99.9109 101.503H98.7676V102.769H98.0043V98.4639C98.639 98.4639 99.2784 98.4639 99.9109 98.4639C101.889 98.4651 101.895 101.503 99.9109 101.503ZM98.7676 100.765H99.9109C100.89 100.765 100.883 99.2425 99.9109 99.2425H98.7676V100.765Z" fill="white"/>
<path d="M20.9389 110.137V109.669H21.2424V107.286H20.9389V106.828H22.0799L22.5988 108.362C22.6139 108.41 22.6312 108.47 22.6498 108.54C22.6683 108.61 22.6857 108.704 22.7088 108.818H22.7297C22.7529 108.71 22.7725 108.62 22.7899 108.553C22.8073 108.485 22.8235 108.43 22.8386 108.388L23.3506 106.828H24.4649V107.286H24.1649V109.669H24.4649V110.137H23.2799V109.669H23.6448V107.764C23.6448 107.655 23.6448 107.572 23.6448 107.518C23.6464 107.468 23.6515 107.418 23.6598 107.369H23.6309C23.6077 107.471 23.5903 107.551 23.5753 107.609C23.562 107.662 23.5458 107.714 23.5266 107.765L22.8756 109.733H22.5281L21.8772 107.765C21.854 107.699 21.832 107.634 21.8123 107.57C21.7926 107.506 21.7741 107.439 21.7567 107.371H21.7347C21.7416 107.42 21.7474 107.479 21.7509 107.542C21.7544 107.604 21.7509 107.679 21.7509 107.765V109.671H22.1239V110.138L20.9389 110.137Z" fill="white"/>
<path d="M27.6045 110.137V109.669H27.8686L28.6296 107.286H28.2995V106.828H29.8968V107.286H29.5737L30.3057 109.669H30.5501V110.137H29.4045V109.669H29.752L29.5609 109.03H28.5856L28.3875 109.669H28.735V110.137H27.6045ZM29.4219 108.588L29.1995 107.791C29.1967 107.778 29.1932 107.766 29.1891 107.753C29.1462 107.602 29.1111 107.448 29.0837 107.293C29.0744 107.363 29.0582 107.441 29.0397 107.526C29.0211 107.61 28.9957 107.703 28.9644 107.802L28.72 108.588H29.4219Z" fill="white"/>
<path d="M33.6445 110.137V109.669H33.9086L34.6708 107.286H34.3407V106.828H35.9392V107.286H35.6137L36.3469 109.669H36.5925V110.137H35.4469V109.669H35.7863L35.5963 109.03H34.6222L34.4241 109.669H34.7658V110.137H33.6445ZM35.462 108.588L35.2396 107.791C35.2373 107.778 35.2342 107.766 35.2303 107.753C35.1872 107.602 35.1516 107.448 35.1237 107.293C35.1127 107.371 35.098 107.449 35.0797 107.526C35.06 107.609 35.0345 107.703 35.0044 107.802L34.7612 108.588H35.462Z" fill="white"/>
<path d="M41.4942 109.669V109.142H41.9679V110.137H39.7567V109.669H40.0543V107.286H39.7567V106.828H40.9926V107.286H40.6034V109.669H41.4942Z" fill="white"/>
<path d="M51.0039 109.669V109.142H51.4672V110.137H49.2664V109.669H49.5652V107.286H49.2664V106.828H50.5035V107.286H50.1143V109.669H51.0039Z" fill="white"/>
<path d="M54.6366 110.137V109.669H54.9343V107.286H54.6366V106.828H57.0274V107.698H56.5641V107.286H55.4845V108.125H55.8691V107.804H56.3231V108.976H55.8691V108.639H55.4857V109.674H56.5641V109.157H57.0274V110.141L54.6366 110.137Z" fill="white"/>
<path d="M60.5006 110.133V109.489H61.0462V110.133H60.5006Z" fill="white"/>
<path d="M64.6246 110.133V109.489H65.169V110.133H64.6246Z" fill="white"/>
<path d="M68.7537 110.133V109.489H69.2981V110.133H68.7537Z" fill="white"/>
<path d="M72.6966 110.137V109.669H73.0001V107.286H72.6966V106.828H73.8387L74.3553 108.362C74.3727 108.41 74.3901 108.47 74.4086 108.54C74.4271 108.61 74.4445 108.704 74.4677 108.818H74.4885C74.5117 108.71 74.5314 108.62 74.5476 108.553C74.5613 108.497 74.578 108.442 74.5974 108.388L75.1094 106.828H76.2214V107.286H75.9225V109.669H76.2214V110.137H75.0364V109.669H75.4013V107.764C75.4013 107.655 75.4013 107.572 75.4013 107.518C75.4035 107.468 75.4086 107.419 75.4164 107.369H75.3886C75.3654 107.471 75.3457 107.551 75.3318 107.609C75.3179 107.667 75.3005 107.719 75.2843 107.765L74.6322 109.733H74.2916L73.6395 107.765C73.6163 107.699 73.5943 107.634 73.5758 107.57C73.5572 107.506 73.5364 107.439 73.5178 107.371H73.497C73.497 107.42 73.5086 107.479 73.5132 107.542C73.5179 107.604 73.5132 107.679 73.5132 107.765V109.671H73.8874V110.138L72.6966 110.137Z" fill="white"/>
<path d="M79.3674 110.137V109.669H79.6315L80.3914 107.286H80.0636V106.828H81.6609V107.286H81.3343L82.0687 109.669H82.3142V110.137H81.1686V109.669H81.508L81.3181 109.03H80.3439L80.1458 109.669H80.4875V110.137H79.3674ZM81.186 108.588L80.9625 107.791C80.9596 107.778 80.9561 107.766 80.952 107.753C80.9089 107.602 80.8741 107.448 80.8478 107.293C80.837 107.363 80.8219 107.44 80.8026 107.526C80.7829 107.609 80.7586 107.703 80.7262 107.802L80.4829 108.588H81.186Z" fill="white"/>
<path d="M85.4048 110.137V109.669H85.6689L86.4311 107.286H86.0998V106.828H87.6983V107.286H87.374L88.1072 109.669H88.3516V110.137H87.2072V109.669H87.5465L87.3566 109.03H86.3824L86.182 109.669H86.5295V110.137H85.4048ZM87.2234 108.588L87.0021 107.791C87.0021 107.791 87.0021 107.772 86.9905 107.753C86.9477 107.602 86.9125 107.448 86.8851 107.293C86.8747 107.363 86.8608 107.441 86.84 107.526C86.8191 107.61 86.7948 107.703 86.7647 107.802L86.5226 108.588H87.2234Z" fill="white"/>
<path d="M93.2547 109.669V109.142H93.725V110.137H91.5172V109.669H91.8161V107.286H91.5172V106.828H92.7532V107.286H92.3651V109.669H93.2547Z" fill="white"/>
<path d="M102.759 109.669V109.142H103.229V110.137H101.021V109.669H101.319V107.286H101.021V106.828H102.257V107.286H101.868V109.669H102.759Z" fill="white"/>
<path d="M106.32 110.137V109.669H106.585L107.346 107.286H107.016V106.828H108.613V107.286H108.288L109.021 109.669H109.267V110.137H108.121V109.669H108.457L108.268 109.03H107.298L107.099 109.669H107.447V110.137H106.32ZM108.137 108.588L107.916 107.791C107.913 107.778 107.909 107.765 107.904 107.753C107.853 107.561 107.817 107.409 107.799 107.293C107.788 107.363 107.774 107.441 107.755 107.526C107.735 107.61 107.71 107.703 107.678 107.802L107.435 108.588H108.137Z" fill="white"/>
<path d="M112.357 110.137V109.669H112.628L113.388 107.286H113.059V106.828H114.656V107.286H114.331L115.06 109.669H115.306V110.137H114.159V109.669H114.5L114.31 109.03H113.334L113.137 109.669H113.485V110.137H112.357ZM114.175 108.588L113.953 107.791C113.951 107.778 113.947 107.765 113.943 107.753C113.89 107.561 113.857 107.409 113.837 107.293C113.828 107.363 113.812 107.441 113.793 107.526C113.775 107.61 113.748 107.703 113.717 107.802L113.473 108.588H114.175Z" fill="white"/>
<path d="M119.373 110.216L118.418 107.289H118.164V106.831H119.299V107.289H118.979L119.464 108.793C119.488 108.867 119.509 108.938 119.525 109.009C119.541 109.081 119.553 109.151 119.563 109.22C119.571 109.157 119.582 109.097 119.597 109.02C119.612 108.944 119.629 108.88 119.649 108.802L120.065 107.289H119.732V106.831H120.864V107.289H120.606L119.761 110.216H119.373Z" fill="white"/>
<path d="M38.2633 100.066H20.9312V100.479H38.2633V100.066Z" fill="white"/>
<path d="M120.887 100.066H103.553V100.479H120.887V100.066Z" fill="white"/>
<path d="M70.908 41.323C70.6358 40.585 69.3929 38.7671 68.9064 37.927C68.4199 37.0869 68.706 36.1693 68.8404 36.0242C69.2203 35.6207 70.0845 34.8237 70.0845 33.3833C70.0845 31.943 69.0547 30.4006 67.3276 30.1423C66.6294 29.5008 65.9909 28.7895 65.421 28.0181C64.4052 26.6651 62.6746 25.8225 60.7553 25.2248C58.8359 24.627 58.3343 24.1952 56.5412 22.9603C54.7481 21.7254 53.5713 21.0059 52.6319 21.0059C51.6924 21.0059 49.8241 21.4327 49.9677 22.5987C50.1113 23.7647 50.226 23.8287 49.9538 24.3305C49.6816 24.8324 48.6796 26.1989 48.7885 27.8114C48.7885 28.6343 49.4685 28.6343 49.4685 28.6343C49.4685 28.6343 50.0476 30.5888 51.4063 32.0291C51.4063 32.0291 52.0203 33.7265 52.0203 36.2296C52.0203 38.7326 51.0345 40.1385 51.0345 40.1385C50.974 40.1269 50.9187 40.0946 50.8769 40.0467C50.8351 39.9988 50.8091 39.9378 50.8028 39.8728C50.7542 39.6268 50.5214 39.7757 50.4194 40.1028C50.3175 40.43 49.6086 42.3771 50.6963 44.2934C51.784 46.2098 53.2365 46.3783 53.5504 46.3783C53.8643 46.3783 54.5315 46.8051 54.0137 48.6993C53.496 50.5935 53.1462 51.35 53.1462 54.0965C53.1462 56.8431 55.4223 64.0386 64.4387 64.3363C64.4387 64.3363 57.1412 61.9316 56.0072 53.0203C56.0072 53.0203 56.9339 56.7201 62.3306 60.7939C62.3306 60.7939 57.7123 56.0412 58.7062 47.211C58.7062 47.211 59.3861 51.0806 62.4731 54.0043C62.4731 54.0043 61.3946 47.9699 62.758 45.0954C62.758 45.0954 63.1715 50.7694 67.0913 54.1544C67.0913 54.1544 66.028 52.7681 66.028 49.2479C66.028 46.655 64.7283 45.4177 64.7283 45.4177C64.7283 45.4177 68.0875 46.8322 68.0875 49.8457C68.0875 51.7866 68.8717 53.1593 69.9223 54.1396C73.1564 50.1027 72.8598 46.6071 70.908 41.323ZM50.9465 28.9504C50.9742 29.5242 51.0612 30.093 51.206 30.6466C51.206 30.6466 50.3951 29.975 49.9086 28.5261C49.9086 28.5261 51.0391 27.7512 54.0497 27.7512C57.0602 27.7512 57.4088 30.1632 57.4088 30.1632C57.4088 30.1632 56.2505 28.8619 55.5636 28.8619C54.8767 28.8619 54.784 30.7339 54.4261 30.7339C54.0682 30.7339 53.6593 28.7032 53.6593 28.7032C53.6593 28.7032 52.1454 28.3772 50.9465 28.9504ZM53.5921 36.7929C53.7079 36.7929 54.1064 36.8753 54.3172 35.8692C54.528 34.863 54.7169 34.5088 55.4651 34.5088C56.2134 34.5088 56.6698 36.3538 55.7188 37.8113C54.7678 39.2689 54.0381 39.4792 53.2029 39.633C53.0729 39.6574 52.9393 39.6507 52.812 39.6133C52.6847 39.576 52.5668 39.509 52.467 39.4173C52.3671 39.3255 52.2878 39.2112 52.2348 39.0828C52.1817 38.9543 52.1563 38.815 52.1604 38.6748C52.1604 37.9061 52.6631 37.6207 52.6631 36.2246C52.6631 34.8286 52.94 34.5334 53.3187 34.5334C53.6975 34.5334 53.9651 34.9467 53.7543 35.7031C53.5435 36.4596 53.4798 36.7929 53.5921 36.7929ZM51.0322 42.5444C50.8165 42.2896 50.664 41.9817 50.5886 41.6486C50.5131 41.3155 50.5171 40.9677 50.6001 40.6367C50.6001 40.6367 50.7507 42.1028 52.2311 42.1028C53.7114 42.1028 53.8458 41.1262 53.9002 40.7892C53.9547 40.4522 54.0902 40.3845 54.2582 40.617C54.4261 40.8494 54.6786 41.0057 55.1431 41.0057C56.0385 41.0057 56.8806 39.911 56.8806 39.911C56.8806 39.911 56.6605 41.3378 55.259 42.3328C54.2744 43.0302 51.7782 43.4263 51.0322 42.5444ZM69.5493 50.0954C69.7057 43.4423 66.9628 43.5665 64.5164 43.5665C62.07 43.5665 61.4271 38.0586 61.4271 38.0586C60.0243 41.4657 60.995 44.5185 60.995 44.5185C59.3734 42.7965 59.2216 40.7916 59.2216 40.7916C55.0111 47.5382 52.1685 44.093 52.1685 44.093C58.1177 44.8027 58.5046 35.0771 58.0019 31.3502C57.4992 27.6233 55.8567 26.9111 54.0462 26.9111C52.2357 26.9111 51.3496 27.3133 50.3569 27.3133C49.3642 27.3133 49.5298 26.4363 49.8449 25.8705C50.16 25.3047 50.4241 24.718 50.4241 24.718C51.5199 25.8803 52.8288 24.0452 53.3639 23.3736C53.8991 22.702 54.9856 22.9726 56.2598 23.7278C57.5339 24.4831 59.6062 25.6491 61.1607 27.301C62.7152 28.9529 63.9546 28.9787 63.9546 28.9787C62.9619 28.5691 62.9711 27.4498 62.4175 27.0206C61.8638 26.5913 60.6881 25.9603 60.6881 25.9603C62.9978 26.5753 64.3171 27.5396 65.5867 29.8286C66.8562 32.1177 68.1918 34.0291 68.1918 34.0291C69.203 33.0562 68.5392 32.0943 68.0018 31.7155C67.4643 31.3366 67.3659 30.9307 67.3659 30.9307C69.2794 30.9307 70.0868 33.3907 68.545 34.8335C67.0033 36.2763 67.6531 37.3882 68.2311 38.5481C68.8091 39.708 70.7076 42.9269 70.7076 46.1913C70.7076 49.4558 69.5493 50.0954 69.5493 50.0954ZM62.0201 32.0955C60.1286 30.8889 59.6027 30.0254 58.4444 28.0956C57.286 26.1657 56.1995 25.8373 56.1995 25.8373C58.339 27.4461 59.2749 29.8237 59.6085 32.0722C59.8186 33.6221 59.9208 35.1864 59.9143 36.7523C60.0533 34.6047 60.6093 32.9824 61.9379 32.9824C63.2665 32.9824 63.9441 34.7044 63.9441 34.7044C63.9441 34.7044 63.921 33.3022 62.0259 32.0955H62.0201Z" fill="white"/>
<path d="M65.0035 19.7725C64.9621 18.9154 65.0173 18.0561 65.1679 17.2129C61.4053 17.5632 57.6881 18.3346 54.0781 19.5142C54.9989 19.8476 55.9766 20.4601 57.1094 21.2362C59.7011 20.5318 62.3404 20.0424 65.0035 19.7725Z" fill="white"/>
<path d="M90.1326 44.5102C83.2984 64.1717 69.9069 72.9527 69.9069 72.9527C69.9069 72.9527 86.2545 63.8187 93.2045 42.8115C92.8338 42.9013 92.3265 43.1178 91.5759 43.5963L90.1326 44.5102Z" fill="white"/>
<path d="M62.1632 65.8846C61.6454 65.8022 61.1427 65.7026 60.6713 65.5771C65.7135 70.6103 69.9078 72.9571 69.9078 72.9571C69.9078 72.9571 66.4548 70.6829 62.1632 65.8846Z" fill="white"/>
<path d="M45.9463 25.9288C45.9463 25.9288 46.5625 25.5131 47.7093 24.8969C47.9138 24.4509 48.146 24.0199 48.4043 23.6066L48.4135 23.5918C48.4135 23.5697 48.4077 23.5488 48.4054 23.5291C48.3765 23.3483 48.344 23.1244 48.3081 22.8317C48.2658 22.4783 48.2906 22.1194 48.3811 21.7764C45.2849 23.2438 43.5497 24.4824 43.5497 24.4824C43.7813 36.6323 47.188 46.262 51.4796 53.642C51.4833 52.4491 51.6344 51.2618 51.9291 50.1106C48.9521 43.5744 46.6112 35.5548 45.9463 25.9288Z" fill="white"/>
<path d="M92.5238 25.1278C93.381 24.8695 94.2683 24.3898 94.7571 23.5288C91.3493 21.514 82.3177 16.9766 69.9074 16.9766C69.7672 16.9766 69.6352 16.9864 69.4962 16.9889C69.539 17.8929 69.7591 18.8978 70.4784 19.5399C81.493 19.6653 89.5017 23.4439 92.5238 25.1278Z" fill="white"/>
<path d="M94.0742 31.7999C94.3395 32.0073 94.7843 32.1952 95.616 32.4726C95.6843 32.0024 95.7538 31.5335 95.8106 31.0547C95.2505 31.3495 94.67 31.5986 94.0742 31.7999Z" fill="white"/>
<path d="M69.7367 58.459H67.5127V66.2191H69.7367V58.459Z" fill="white"/>
<path d="M68.8128 56.1025H68.4387V69.1049H68.8128V56.1025Z" fill="white"/>
<path d="M74.4298 56.7783H72.2081V64.5384H74.4298V56.7783Z" fill="white"/>
<path d="M73.5079 54.4219H73.1337V67.423H73.5079V54.4219Z" fill="white"/>
</g>
<defs>
<clipPath id="clip0_1144_174448">
<rect width="139" height="123" fill="white" transform="translate(0.5 0.5)"/>
</clipPath>
</defs>
</svg>
