<svg width="42" height="44" viewBox="0 0 42 44" fill="none" xmlns="http://www.w3.org/2000/svg">
<path d="M34.8664 21.1264C34.8664 21.1264 32.5187 20.9044 32.0322 23.9097C31.5457 26.9149 31.2377 27.6611 30.0679 28.5775C30.0679 28.5775 32.4304 27.8821 32.5371 25.367C32.6439 22.8518 32.9772 21.6654 34.8664 21.1264Z" fill="#009B66"/>
<path d="M29.1876 20.0888C29.1876 20.0888 25.1241 20.1092 25.027 17.5977C25.027 17.5977 23.6673 21.4897 29.1876 20.0888Z" fill="#009B66"/>
<path d="M39.4198 19.8151C39.1264 19.8063 38.834 19.7754 38.5448 19.7227C38.0688 19.6348 37.4073 19.3204 35.624 20.4449C35.7328 20.0529 35.9538 19.7061 36.2567 19.4523C36.5596 19.1984 36.9294 19.05 37.3154 19.0273C38.7049 18.9182 38.9805 19.2742 39.4198 19.8151Z" fill="#009B66"/>
<path d="M40.0028 19.5683C40.0028 19.5683 39.6808 17.705 37.0278 18.5909C36.9633 18.4513 36.9421 18.2939 36.9671 18.1409C36.9921 17.9878 37.062 17.847 37.1669 17.7383C37.1669 17.7383 34.8394 17.9898 34.7414 15.4173C34.7414 15.4173 35.815 15.4016 36.4739 16.3087C36.2528 16.4037 36.0511 16.5428 35.8798 16.7184C35.8798 16.7184 36.074 17.263 36.8291 17.2297C37.5843 17.1964 38.6133 16.0951 35.3495 15.0225C35.3495 15.0225 35.962 14.7358 36.9919 14.6924C36.6842 14.5729 36.3568 14.52 36.0294 14.537C35.4668 14.5611 34.2444 14.4557 33.2959 13.5319C32.3474 12.6081 30.712 11.3127 27.5008 10.8346C27.5008 10.8346 27.4649 9.87384 28.9323 9.81188C30.3996 9.74993 31.5126 10.7366 33.0509 12.2318C33.0509 12.2318 31.8154 8.76791 27.5384 9.258C27.5384 9.258 27.2881 8.39526 25.9634 6.99066C25.9634 6.99066 30.7076 7.58893 34.1009 11.2267C34.1009 11.2267 33.1226 8.55431 31.181 8.24361C31.181 8.24361 32.7464 7.6888 34.6163 9.01573C34.6163 9.01573 34.0738 9.15258 34.1026 9.9136C34.1315 10.6746 35.2401 11.3644 35.7546 11.8665C36.2691 12.3686 36.5483 12.7598 36.998 13.371C37.4478 13.9822 38.0944 14.2337 39.1698 14.5823C40.2451 14.931 40.4333 15.3406 40.4446 15.6263C40.456 15.912 39.8908 16.3476 39.9126 16.9209C39.9345 17.4942 40.533 18.1979 40.0028 19.5683Z" fill="#009B66"/>
<path d="M25.074 7.75077C26.0628 8.15023 26.4478 9.55483 26.0829 10.2262C25.7181 10.8975 24.7923 11.0205 24.4974 11.0353C24.2026 11.0501 22.5024 10.9141 19.3839 7.87468C16.2654 4.83523 17.7678 0.663963 18.3296 0.0213048C18.6061 -0.292164 17.6436 2.9313 19.5668 4.57262C21.4901 6.21394 24.1448 7.37627 25.074 7.75077Z" fill="#009B66"/>
<path d="M35.3247 9.28481C35.1777 9.28481 35.0963 9.94596 35.4638 10.4527C35.8313 10.9594 36.6643 11.7861 37.1683 11.6548C37.6723 11.5235 40.0812 10.9224 41.2388 8.68191C42.3964 6.44139 41.2624 3.01357 39.6445 1.99457C39.6445 1.99457 40.4557 3.2318 40.2194 5.75712C39.9657 8.43964 37.2925 9.32919 35.3247 9.28481Z" fill="#009B66"/>
<path d="M31.4426 14.0007C31.4426 14.0007 31.2466 13.1334 30.6971 12.7598C30.1476 12.3862 29.0635 12.6424 29.0635 12.6424C29.0635 12.6424 29.2892 12.794 29.5719 13.334C29.8545 13.874 30.5816 14.4215 31.4426 14.0007Z" fill="#009B66"/>
<path d="M22.1166 12.9928C21.106 12.3243 19.9291 11.2442 19.9204 10.9382C19.9116 10.6321 20.5548 10.1531 21.0631 10.1309C21.5715 10.1087 22.1954 10.9825 22.1954 10.9825C21.379 10.7874 20.8409 11.0639 20.8409 11.0639C22.653 13.4274 25.8179 12.9697 25.8179 12.9697C24.9398 13.4207 23.973 13.645 22.9969 13.6244C22.9969 13.6244 22.023 15.5903 20.4935 19.1494C20.2643 18.7721 20.0035 18.3662 19.7856 18.0213C21.5129 14.7192 22.1166 12.9928 22.1166 12.9928Z" fill="#009B66"/>
<path d="M20.6669 19.8882C20.4613 19.3334 19.5224 17.9667 19.1549 17.3351C18.7874 16.7036 19.0035 16.0137 19.105 15.9046C19.392 15.6013 20.0448 15.0021 20.0448 13.9193C20.0448 12.8365 19.2669 11.677 17.9623 11.4828C17.4348 11.0005 16.9525 10.4657 16.522 9.88584C15.7546 8.86868 14.4474 8.23527 12.9975 7.78587C11.5476 7.33648 11.1688 7.01191 9.81426 6.08352C8.45976 5.15514 7.57076 4.6142 6.86113 4.6142C6.15151 4.6142 4.74013 4.93506 4.84863 5.81167C4.95713 6.68827 5.04376 6.73635 4.83813 7.11363C4.63251 7.4909 3.87563 8.51823 3.95788 9.73049C3.95788 10.3491 4.47151 10.3491 4.47151 10.3491C4.47151 10.3491 4.909 11.8184 5.93538 12.9012C5.93538 12.9012 6.39913 14.1773 6.39913 16.0591C6.39913 17.9408 5.6545 18.9977 5.6545 18.9977C5.6088 18.9889 5.56702 18.9647 5.53546 18.9287C5.50389 18.8927 5.48426 18.8468 5.4795 18.798C5.44275 18.613 5.26688 18.7249 5.18988 18.9709C5.11288 19.2169 4.57738 20.6806 5.399 22.1213C6.22063 23.562 7.31788 23.6886 7.555 23.6886C7.79213 23.6886 8.29613 24.0095 7.905 25.4335C7.51388 26.8576 7.24963 27.4262 7.24963 29.4911C7.24963 31.5559 8.969 36.9653 15.78 37.1891C15.78 37.1891 10.2675 35.3813 9.41088 28.682C9.41088 28.682 10.1109 31.4634 14.1875 34.526C14.1875 34.526 10.6989 30.953 11.4496 24.3147C11.4496 24.3147 11.9633 27.2237 14.2951 29.4217C14.2951 29.4217 13.4805 24.8852 14.5104 22.7242C14.5104 22.7242 14.8228 26.9898 17.7838 29.5345C17.7838 29.5345 16.9805 28.4924 16.9805 25.8459C16.9805 23.8967 15.9988 22.9665 15.9988 22.9665C15.9988 22.9665 18.5363 24.0299 18.5363 26.2953C18.5363 27.7545 19.1286 28.7865 19.9223 29.5234C22.3653 26.4886 22.1413 23.8606 20.6669 19.8882ZM5.588 10.5868C5.60891 11.0181 5.67464 11.4457 5.78401 11.8619C5.78401 11.8619 5.1715 11.357 4.804 10.2677C4.804 10.2677 5.658 9.68518 7.93213 9.68518C10.2063 9.68518 10.4696 11.4985 10.4696 11.4985C10.4696 11.4985 9.59463 10.5202 9.07576 10.5202C8.55688 10.5202 8.48688 11.9275 8.2165 11.9275C7.94613 11.9275 7.63726 10.4009 7.63726 10.4009C7.63726 10.4009 6.49363 10.1558 5.588 10.5868ZM7.5865 16.4826C7.674 16.4826 7.975 16.5445 8.13425 15.7881C8.2935 15.0317 8.43613 14.7654 9.00138 14.7654C9.56663 14.7654 9.91138 16.1524 9.193 17.2482C8.47463 18.344 7.92338 18.5021 7.2925 18.6177C7.19426 18.636 7.09339 18.6309 6.99722 18.6029C6.90106 18.5748 6.81202 18.5245 6.73659 18.4555C6.66116 18.3865 6.60124 18.3006 6.56117 18.204C6.52111 18.1075 6.50192 18.0027 6.505 17.8973C6.505 17.3194 6.88475 17.1049 6.88475 16.0554C6.88475 15.0058 7.09388 14.7839 7.38 14.7839C7.66613 14.7839 7.86826 15.0946 7.70901 15.6633C7.54976 16.232 7.50163 16.4826 7.5865 16.4826V16.4826ZM5.65276 20.8064C5.4898 20.6149 5.37462 20.3834 5.31763 20.133C5.26065 19.8826 5.26365 19.6211 5.32638 19.3722C5.32638 19.3722 5.44013 20.4744 6.55838 20.4744C7.67663 20.4744 7.77813 19.7402 7.81925 19.4869C7.86038 19.2335 7.96275 19.1826 8.08963 19.3574C8.2165 19.5322 8.40725 19.6496 8.75813 19.6496C9.4345 19.6496 10.0706 18.8266 10.0706 18.8266C10.0706 18.8266 9.90438 19.8993 8.84563 20.6473C8.10188 21.1716 6.21626 21.4694 5.65276 20.8064V20.8064ZM19.6405 26.4831C19.7586 21.4814 17.6866 21.5748 15.8386 21.5748C13.9906 21.5748 13.505 17.4341 13.505 17.4341C12.4454 19.9954 13.1786 22.2905 13.1786 22.2905C11.9536 20.996 11.839 19.4887 11.839 19.4887C8.65838 24.5606 6.51113 21.9706 6.51113 21.9706C11.0051 22.5041 11.2974 15.1926 10.9176 12.3908C10.5379 9.58902 9.29713 9.05362 7.9295 9.05362C6.56188 9.05362 5.8925 9.35599 5.14263 9.35599C4.39275 9.35599 4.51788 8.69669 4.75588 8.27134C4.99388 7.84598 5.19338 7.4049 5.19338 7.4049C6.02113 8.27873 7.00988 6.8991 7.41413 6.39422C7.81838 5.88934 8.63913 6.09277 9.60163 6.66053C10.5641 7.22829 12.1295 8.10489 13.3038 9.34675C14.478 10.5886 15.4143 10.608 15.4143 10.608C14.6644 10.3001 14.6714 9.45863 14.2531 9.13592C13.8349 8.8132 12.9468 8.33884 12.9468 8.33884C14.6915 8.80118 15.6881 9.52614 16.6471 11.247C17.6061 12.9678 18.615 14.4048 18.615 14.4048C19.3789 13.6734 18.8775 12.9503 18.4715 12.6654C18.0655 12.3806 17.9911 12.0755 17.9911 12.0755C19.4366 12.0755 20.0465 13.9249 18.8819 15.0095C17.7173 16.0942 18.2081 16.9301 18.6448 17.8021C19.0814 18.6741 20.5155 21.094 20.5155 23.5481C20.5155 26.0022 19.6405 26.4831 19.6405 26.4831V26.4831ZM13.953 12.9512C12.5241 12.0441 12.1269 11.3949 11.2519 9.94409C10.3769 8.49326 9.55613 8.24637 9.55613 8.24637C11.1723 9.45586 11.8793 11.2433 12.1313 12.9336C12.2899 14.0988 12.3671 15.2748 12.3623 16.452C12.4673 14.8375 12.8873 13.6179 13.8909 13.6179C14.8945 13.6179 15.4064 14.9124 15.4064 14.9124C15.4064 14.9124 15.3889 13.8583 13.9574 12.9512H13.953Z" fill="#ED1A3B"/>
<path d="M16.2051 3.68581C16.1739 3.04145 16.2156 2.39544 16.3294 1.76154C13.4871 2.02491 10.6791 2.60483 7.95215 3.49163C8.64777 3.74222 9.38627 4.20271 10.242 4.78619C12.1997 4.25662 14.1935 3.88872 16.2051 3.68581V3.68581Z" fill="#ED1A3B"/>
<path d="M35.1885 22.2841C30.026 37.0652 19.9102 43.6665 19.9102 43.6665C19.9102 43.6665 32.259 36.7998 37.509 21.0071C37.229 21.0746 36.8458 21.2373 36.2788 21.597L35.1885 22.2841Z" fill="#009B66"/>
<path d="M14.0596 38.3533C13.6685 38.2913 13.2887 38.2164 12.9326 38.1221C16.7415 41.906 19.9099 43.6703 19.9099 43.6703C19.9099 43.6703 17.3015 41.9605 14.0596 38.3533Z" fill="#ED1A3B"/>
<path d="M1.81038 8.3148C1.81038 8.3148 2.27588 8.00226 3.14213 7.53899C3.29662 7.20373 3.472 6.87969 3.66713 6.56899L3.67412 6.55789C3.67412 6.54125 3.66975 6.52553 3.668 6.51073C3.64612 6.3748 3.62162 6.20651 3.5945 5.98644C3.56254 5.72074 3.58128 5.45097 3.64962 5.19305C1.31075 6.29621 0 7.22737 0 7.22737C0.175 16.3614 2.74837 23.6008 5.99025 29.1489C5.99301 28.2521 6.10715 27.3596 6.32975 26.4942C4.081 21.5804 2.31263 15.5514 1.81038 8.3148Z" fill="#ED1A3B"/>
<path d="M36.9941 7.7128C37.6416 7.51862 38.3119 7.15799 38.6811 6.51071C36.1069 4.99607 29.2845 1.5849 19.9097 1.5849C19.8039 1.5849 19.7041 1.5923 19.5991 1.59415C19.6315 2.27379 19.7977 3.02926 20.3411 3.51195C28.6615 3.60627 34.7112 6.44691 36.9941 7.7128Z" fill="#009B66"/>
<path d="M38.165 12.7282C38.3654 12.8842 38.7014 13.0254 39.3297 13.2339C39.3813 12.8805 39.4338 12.5279 39.4767 12.168C39.0536 12.3896 38.6151 12.5769 38.165 12.7282V12.7282Z" fill="#009B66"/>
<path d="M19.7816 32.77H18.1016V38.6039H19.7816V32.77Z" fill="#ED1A3B"/>
<path d="M19.0829 30.9983H18.8003V40.7732H19.0829V30.9983Z" fill="#ED1A3B"/>
<path d="M23.3267 31.506H21.6484V37.3398H23.3267V31.506Z" fill="#009B66"/>
<path d="M22.6303 29.7352H22.3477V39.5091H22.6303V29.7352Z" fill="#009B66"/>
</svg>
