<svg id="Layer_1" data-name="Layer 1" xmlns="http://www.w3.org/2000/svg" viewBox="0 0 1200 1000"><defs><style>.cls-1{fill:#009b66;}.cls-2{fill:#ed1a3b;}.cls-3{fill:#231f20;}.cls-4{fill:none;}</style></defs><path class="cls-1" d="M770.13,345.29s-26.83-2.4-32.39,30.1-9.08,40.57-22.45,50.48c0,0,27-7.52,28.22-34.72S748.54,351.12,770.13,345.29Z"/><path class="cls-1" d="M705.23,334.07s-46.44.22-47.55-26.94C657.68,307.13,642.14,349.22,705.23,334.07Z"/><path class="cls-1" d="M822.17,331.11a70.58,70.58,0,0,1-10-1c-5.44-.95-13-4.35-33.38,7.81a21.38,21.38,0,0,1,19.33-15.33C814,321.41,817.15,325.26,822.17,331.11Z"/><path class="cls-1" d="M828.83,328.44s-3.68-20.15-34-10.57a8,8,0,0,1,1.59-9.22s-26.6,2.72-27.72-25.1c0,0,12.27-.17,19.8,9.64a21.26,21.26,0,0,0-6.79,4.43s2.22,5.89,10.85,5.53,20.39-12.27-16.91-23.87c0,0,7-3.1,18.77-3.57a27.92,27.92,0,0,0-11-1.68c-6.43.26-20.4-.88-31.24-10.87s-29.53-24-66.23-29.17c0,0-.41-10.39,16.36-11.06s29.49,10,47.07,26.17c0,0-14.12-37.46-63-32.16,0,0-2.86-9.33-18-24.52,0,0,54.22,6.47,93,45.81,0,0-11.18-28.9-33.37-32.26,0,0,17.89-6,39.26,8.35,0,0-6.2,1.48-5.87,9.71s13,15.69,18.88,21.12,9.07,9.66,14.21,16.27,12.53,9.33,24.82,13.1,14.44,8.2,14.57,11.29-6.33,7.8-6.08,14S834.89,313.62,828.83,328.44Z"/><path class="cls-1" d="M658.22,200.64c11.3,4.32,15.7,19.51,11.53,26.77S655,236,651.63,236.16s-22.8-1.31-58.44-34.18S574.72,124,581.14,117.05c3.16-3.39-7.84,31.47,14.14,49.22S647.6,196.59,658.22,200.64Z"/><path class="cls-1" d="M775.37,217.23c-1.68,0-2.61,7.15,1.59,12.63s13.72,14.42,19.48,13,33.29-7.92,46.52-32.15.27-61.3-18.22-72.32c0,0,9.27,13.38,6.57,40.69C828.41,208.09,797.86,217.71,775.37,217.23Z"/><path class="cls-1" d="M731,268.23s-2.24-9.38-8.52-13.42-18.67-1.27-18.67-1.27,2.58,1.64,5.81,7.48S721.16,272.78,731,268.23Z"/><path class="cls-1" d="M624.42,257.33c-11.55-7.23-25-18.91-25.1-22.22s7.25-8.49,13.06-8.73,12.94,9.21,12.94,9.21c-9.33-2.11-15.48.88-15.48.88,20.71,25.56,56.88,20.61,56.88,20.61a70.53,70.53,0,0,1-32.24,7.08s-11.13,21.26-28.61,59.75c-2.62-4.08-5.6-8.47-8.09-12.2C617.52,276,624.42,257.33,624.42,257.33Z"/><path class="cls-2" d="M275.54,756H250.43l-32.64-37.42h-20.3V756h-21.1V643.88c17.75,0,35.5.15,53.25.15,26.38.17,40.29,17.76,40.29,37.11,0,15.35-7,30.86-28.31,35.18l33.92,38.22ZM197.49,663.7v35.83h32.15c13.43,0,19.19-9,19.19-17.92s-5.93-17.91-19.19-17.91Z"/><path class="cls-2" d="M370.84,756H287.06V644h83.78V664.5H308v25.75H368.6v19.67H308v25.27h62.85Z"/><path class="cls-2" d="M488.87,699.05c.47,28.3-16.79,56.93-56,56.93h-44V644h44C471.28,644,488.39,671.39,488.87,699.05Zm-79,36.63h23c25.42,0,35.5-18.56,35-36.79-.47-17.43-10.71-34.86-35-34.86h-23Z"/><path class="cls-1" d="M589.15,671.39c-7.53-7.2-18.73-11.21-28.48-11.21-24,0-38.54,18.25-38.54,41.27,0,18.39,10.73,37.42,38.54,37.42,8.8,0,16.47-1.92,25.26-9V710.08H557.31V691.21h48V738.4c-11,12.62-24.95,20.14-44.62,20.14-42.06,0-59.17-27.67-59.17-57.09,0-31.51,19.68-60.61,59.17-60.61A59,59,0,0,1,602.24,658Z"/><path class="cls-1" d="M723.47,756h-25.1l-32.63-37.42H645.43V756h-21.1V643.88c17.74,0,35.49.15,53.24.15,26.39.17,40.3,17.76,40.3,37.11,0,15.35-7,30.86-28.31,35.18l33.91,38.22Zm-78-92.28v35.83h32.14c13.44,0,19.19-9,19.19-17.92s-5.9-17.91-19.19-17.91Z"/><path class="cls-1" d="M818.78,756H735V644h83.79V664.5H755.94v25.75h60.6v19.67h-60.6v25.27h62.84Z"/><path class="cls-1" d="M921.78,756H838V644h83.8V664.5H858.92v25.75h60.62v19.67H858.92v25.27h62.86Z"/><path class="cls-1" d="M1018.21,643.88h21.11V756h-13.11v.17L967.36,680.5V756H946.25V644h17.12l54.84,69.41Z"/><path class="cls-3" d="M358.37,802.5H347.3v-6h28.76v6H365v29h-6.6Z"/><path class="cls-3" d="M414,831.46H406.2L396,819.78h-6.34v11.68h-6.6v-35c5.54,0,11.09,0,16.62,0,8.24.06,12.58,5.54,12.58,11.59,0,4.79-2.2,9.63-8.83,11L414,831Zm-24.35-28.8v11.17h10c4.2,0,6-2.78,6-5.58s-1.84-5.59-6-5.59Z"/><path class="cls-3" d="M444.52,824.87H426.26l-3,6.59h-7.14l15.68-35H439l15.68,35h-7.2Zm-9.13-21-6.5,14.87h13Z"/><path class="cls-3" d="M492.44,813.69c.15,8.83-5.25,17.77-17.48,17.77H461.24v-35H475C486.94,796.51,492.28,805.06,492.44,813.69Zm-24.65,11.42H475c7.94,0,11.09-5.78,10.94-11.48-.15-5.44-3.35-10.87-10.94-10.87h-7.17Z"/><path class="cls-3" d="M525.82,831.46H499.68v-35h26.14v6.4H506.21v8h18.91v6.14H506.21V825h19.61Z"/><path class="cls-3" d="M564.91,831.46h-7.84l-10.18-11.68h-6.34v11.68H534v-35c5.53,0,11.08,0,16.63,0,8.23.06,12.56,5.54,12.56,11.59,0,4.79-2.18,9.63-8.83,11L564.91,831Zm-24.36-28.8v11.17h10c4.18,0,6-2.78,6-5.58s-1.85-5.59-6-5.59Z"/><path class="cls-3" d="M593.7,805c-1.2-2-4.49-3.9-8.28-3.9-4.89,0-7.23,2-7.23,4.64,0,3,3.59,3.9,7.79,4.39,7.27.89,14.06,2.8,14.06,11.13,0,7.79-6.89,11.13-14.67,11.13-7.14,0-12.62-2.19-15.22-8.58l5.49-2.85c1.54,3.85,5.59,5.55,9.83,5.55s8-1.46,8-5.25c0-3.3-3.43-4.64-8.08-5.15-7.13-.83-13.73-2.74-13.73-10.57,0-7.19,7.09-10.14,13.53-10.18,5.44,0,11.09,1.55,13.72,6.94Z"/><path class="cls-3" d="M652,827.05a18.38,18.38,0,0,1-13.28,5.2c-13,0-18.47-8.94-18.52-18s5.89-18.43,18.52-18.43a18.06,18.06,0,0,1,12.83,5.34l-4.39,4.25a12,12,0,0,0-8.44-3.29c-8.43,0-12.07,6.28-12,12.13s3.4,11.83,12,11.83a12.91,12.91,0,0,0,8.79-3.55Z"/><path class="cls-3" d="M682,824.87H663.68l-3,6.59h-7.14l15.67-35h7.2l15.67,35h-7.19Zm-9.13-21-6.5,14.87h13Z"/><path class="cls-3" d="M697.52,831.46V796.57h25.1v6.34H704.1v9.53h17.52v6.09H704.1v12.93Z"/><path class="cls-3" d="M756.21,831.46H730.06v-35h26.15v6.4H736.59v8h18.93v6.14H736.59V825h19.62Z"/><path class="cls-3" d="M784,796.51v28.85h18v6.1H777.37v-35Z"/><path class="cls-3" d="M816.15,796.51v28.85h18v6.1H809.58v-35Z"/><path class="cls-3" d="M858.22,821.17h-9.87v10.29h-6.59v-35c5.48,0,11,0,16.46,0C875.3,796.47,875.35,821.17,858.22,821.17Zm-9.87-6h9.87c8.45,0,8.39-12.38,0-12.38h-9.87Z"/><path class="cls-2" d="M176.44,891.36v-3.8h2.62V868.18h-2.62v-3.72h9.85l4.48,12.47c.13.39.28.88.44,1.45s.31,1.33.51,2.26h.18c.2-.88.37-1.61.52-2.16s.29-1,.42-1.34l4.42-12.68h9.62v3.72h-2.59v19.38h2.59v3.8H196.65v-3.8h3.15V872.07c0-.89,0-1.56,0-2a8.47,8.47,0,0,1,.13-1.21h-.25c-.2.83-.35,1.48-.48,1.95a11.12,11.12,0,0,1-.42,1.27l-5.62,16h-3l-5.62-16c-.2-.54-.39-1.07-.56-1.59s-.33-1.06-.48-1.62h-.19c.06.4.11.88.14,1.39s0,1.12,0,1.82v15.49h3.22v3.8Z"/><path class="cls-2" d="M234,891.36v-3.8h2.28l6.57-19.38H240v-3.72h13.79v3.72H251l6.32,19.38h2.11v3.8h-9.89v-3.8h3l-1.65-5.2h-8.42l-1.71,5.2h3v3.8Zm15.69-12.59-1.92-6.48a3.1,3.1,0,0,0-.09-.31,35.93,35.93,0,0,1-.91-3.74c-.08.57-.22,1.2-.38,1.89s-.38,1.44-.65,2.25l-2.11,6.39Z"/><path class="cls-2" d="M286.14,891.36v-3.8h2.28L295,868.18h-2.85v-3.72h13.8v3.72h-2.81l6.33,19.38h2.12v3.8h-9.89v-3.8h2.93l-1.64-5.2h-8.41l-1.71,5.2h2.95v3.8Zm15.69-12.59-1.92-6.48a2.33,2.33,0,0,0-.08-.31,36.43,36.43,0,0,1-.92-3.74,19.14,19.14,0,0,1-.38,1.89c-.17.68-.39,1.44-.65,2.25l-2.1,6.39Z"/><path class="cls-2" d="M353.91,887.56v-4.29H358v8.09H338.91v-3.8h2.57V868.18h-2.57v-3.72h10.67v3.72h-3.36v19.38Z"/><path class="cls-2" d="M436,887.56v-4.29h4v8.09H421v-3.8h2.58V868.18H421v-3.72h10.68v3.72h-3.36v19.38Z"/><path class="cls-2" d="M467.36,891.36v-3.8h2.57V868.18h-2.57v-3.72H488v7.07h-4v-3.35h-9.32V875H478v-2.61h3.92v9.53H478v-2.74h-3.31v8.42H484v-4.21h4v8Z"/><path class="cls-3" d="M518,891.36v-5.27h4.71v5.27Z"/><path class="cls-3" d="M553.59,891.36v-5.27h4.7v5.27Z"/><path class="cls-3" d="M589.24,891.36v-5.27h4.7v5.27Z"/><path class="cls-1" d="M623.28,891.36v-3.8h2.62V868.18h-2.62v-3.72h9.86l4.46,12.47c.15.39.3.88.46,1.45s.31,1.33.51,2.26h.18c.2-.88.37-1.61.51-2.16a12.71,12.71,0,0,1,.43-1.34l4.42-12.68h9.6v3.72h-2.58v19.38h2.58v3.8H643.48v-3.8h3.15V872.07c0-.89,0-1.56,0-2a10.2,10.2,0,0,1,.13-1.21h-.24c-.2.83-.37,1.48-.49,1.95s-.27.89-.41,1.27l-5.63,16h-2.94l-5.63-16c-.2-.54-.39-1.07-.55-1.59s-.34-1.06-.5-1.62h-.18c0,.4.1.88.14,1.39s0,1.12,0,1.82v15.49h3.23v3.8Z"/><path class="cls-1" d="M680.87,891.36v-3.8h2.28l6.56-19.38h-2.83v-3.72h13.79v3.72h-2.82l6.34,19.38h2.12v3.8h-9.89v-3.8h2.93l-1.64-5.2H689.3l-1.71,5.2h2.95v3.8Zm15.7-12.59-1.93-6.48a3.1,3.1,0,0,0-.09-.31,33.09,33.09,0,0,1-.9-3.74q-.14.85-.39,1.89c-.17.68-.38,1.44-.66,2.25l-2.1,6.39Z"/><path class="cls-1" d="M733,891.36v-3.8h2.28l6.58-19.38H739v-3.72h13.8v3.72H750l6.33,19.38h2.11v3.8h-9.88v-3.8h2.93l-1.64-5.2h-8.41l-1.73,5.2h3v3.8Zm15.7-12.59-1.91-6.48s0-.16-.1-.31a35.93,35.93,0,0,1-.91-3.74c-.09.57-.21,1.2-.39,1.89s-.39,1.44-.65,2.25l-2.09,6.39Z"/><path class="cls-1" d="M800.76,887.56v-4.29h4.06v8.09H785.76v-3.8h2.58V868.18h-2.58v-3.72h10.67v3.72h-3.35v19.38Z"/><path class="cls-1" d="M882.81,887.56v-4.29h4.06v8.09H867.81v-3.8h2.57V868.18h-2.57v-3.72h10.67v3.72h-3.36v19.38Z"/><path class="cls-1" d="M913.55,891.36v-3.8h2.29l6.57-19.38h-2.85v-3.72h13.79v3.72h-2.81l6.33,19.38H939v3.8H929.1v-3.8H932l-1.63-5.2H922l-1.72,5.2h3v3.8Zm15.69-12.59-1.91-6.48a2,2,0,0,0-.1-.31c-.44-1.56-.75-2.8-.91-3.74-.09.57-.21,1.2-.38,1.89s-.39,1.44-.66,2.25l-2.1,6.39Z"/><path class="cls-1" d="M965.66,891.36v-3.8H968l6.56-19.38h-2.84v-3.72h13.79v3.72h-2.81L989,887.56h2.12v3.8h-9.9v-3.8h2.94l-1.64-5.2h-8.42l-1.7,5.2h3v3.8Zm15.7-12.59-1.92-6.48a1.62,1.62,0,0,0-.09-.31c-.45-1.56-.74-2.8-.91-3.74-.08.57-.22,1.2-.38,1.89s-.39,1.44-.66,2.25l-2.1,6.39Z"/><path class="cls-1" d="M1026.25,892l-8.25-23.8h-2.19v-3.72h9.8v3.72h-2.76l4.18,12.23c.21.6.39,1.18.53,1.76s.24,1.15.33,1.71c.07-.51.16-1,.29-1.62s.28-1.14.45-1.78l3.59-12.3h-2.87v-3.72h9.77v3.72h-2.23L1029.6,892Z"/><rect class="cls-3" x="176.39" y="809.48" width="149.63" height="3.4"/><rect class="cls-3" x="889.67" y="809.48" width="149.65" height="3.4"/><path class="cls-2" d="M607.85,331.9c-2.35-6-13.08-20.78-17.28-27.61S588.84,290,590,288.82c3.28-3.28,10.74-9.76,10.74-21.47S591.85,243.1,576.94,241a124.25,124.25,0,0,1-16.46-17.27c-8.77-11-23.71-17.85-40.28-22.71s-20.9-8.37-36.38-18.41-25.64-15.89-33.75-15.89-24.24,3.47-23,12.95,2.23,10-.12,14.08-11,15.19-10.06,28.3c0,6.69,5.87,6.69,5.87,6.69s5,15.89,16.73,27.6c0,0,5.3,13.8,5.3,34.15s-8.51,31.78-8.51,31.78a2.45,2.45,0,0,1-2-2.16c-.42-2-2.43-.79-3.31,1.87s-7,18.49,2.39,34.07S455.29,373,458,373s8.47,3.47,4,18.87-7.49,21.55-7.49,43.88S474.16,516.58,552,519c0,0-63-19.55-72.79-92,0,0,8,30.08,54.59,63.2,0,0-39.87-38.64-31.29-110.43,0,0,5.87,31.46,32.52,55.23,0,0-9.31-49.06,2.46-72.43,0,0,3.57,46.13,37.41,73.65,0,0-9.18-11.27-9.18-39.89,0-21.08-11.22-31.14-11.22-31.14s29,11.5,29,36c0,15.78,6.77,26.94,15.84,34.91C627.26,403.28,624.7,374.86,607.85,331.9ZM435.52,231.31a63.72,63.72,0,0,0,2.24,13.79s-7-5.46-11.2-17.24c0,0,9.76-6.3,35.75-6.3s29,19.61,29,19.61-10-10.58-15.93-10.58-6.73,15.22-9.82,15.22-6.62-16.51-6.62-16.51S445.87,226.65,435.52,231.31Zm22.84,63.76c1,0,4.44.67,6.26-7.51s3.45-11.06,9.91-11.06,10.4,15,2.19,26.85S462.21,316.91,455,318.16a7.67,7.67,0,0,1-9-7.79c0-6.25,4.34-8.57,4.34-19.92s2.39-13.75,5.66-13.75,5.58,3.36,3.76,9.51S457.39,295.07,458.36,295.07Zm-22.1,46.76a16.75,16.75,0,0,1-3.73-15.51s1.3,11.92,14.08,11.92,13.94-7.94,14.41-10.68,1.64-3.29,3.09-1.4,3.63,3.16,7.64,3.16c7.73,0,15-8.9,15-8.9s-1.9,11.6-14,19.69C464.25,345.78,442.7,349,436.26,341.83Zm159.86,61.39c1.35-54.09-22.33-53.08-43.45-53.08S526,305.36,526,305.36c-12.11,27.7-3.73,52.52-3.73,52.52-14-14-15.31-30.3-15.31-30.3-36.35,54.85-60.89,26.84-60.89,26.84,51.36,5.77,54.7-73.3,50.36-103.6s-18.52-36.09-34.15-36.09S439,218,430.43,218s-7.14-7.13-4.42-11.73,5-9.37,5-9.37c9.46,9.45,20.76-5.47,25.38-10.93s14-3.26,25,2.88,28.89,15.62,42.31,29.05,24.12,13.64,24.12,13.64c-8.57-3.33-8.49-12.43-13.27-15.92S519.62,207,519.62,207c19.94,5,31.33,12.84,42.29,31.45s22.49,34.15,22.49,34.15c8.73-7.91,3-15.73-1.64-18.81s-5.49-6.38-5.49-6.38c16.52,0,23.49,20,10.18,31.73s-7.7,20.77-2.71,30.2,21.38,35.6,21.38,62.14S596.12,403.22,596.12,403.22Zm-65-146.34c-16.33-9.81-20.87-16.83-30.87-32.52S480.87,206,480.87,206c18.47,13.08,26.55,32.41,29.43,50.69a259.15,259.15,0,0,1,2.64,38.05c1.2-17.46,6-30.65,17.47-30.65s17.32,14,17.32,14S547.53,266.69,531.17,256.88Z"/><path class="cls-2" d="M556.86,156.68a87.62,87.62,0,0,1,1.42-20.81,463.05,463.05,0,0,0-95.74,18.71c7.95,2.71,16.39,7.69,26.17,14A445.54,445.54,0,0,1,556.86,156.68Z"/><path class="cls-1" d="M773.81,357.81c-59,159.85-174.61,231.24-174.61,231.24S740.33,514.79,800.33,344c-3.2.73-7.58,2.49-14.06,6.38Z"/><path class="cls-2" d="M532.34,531.59c-4.47-.67-8.81-1.48-12.88-2.5,43.53,40.92,79.74,60,79.74,60S569.39,570.6,532.34,531.59Z"/><path class="cls-2" d="M392.35,206.74s5.32-3.38,15.22-8.39a91.1,91.1,0,0,1,6-10.49l.08-.12c0-.18-.05-.35-.07-.51-.25-1.47-.53-3.29-.84-5.67a21.68,21.68,0,0,1,.63-8.58c-26.73,11.93-41.71,22-41.71,22,2,98.78,31.41,177.07,68.46,237.07A110.83,110.83,0,0,1,444,403.34C418.3,350.2,398.09,285,392.35,206.74Z"/><path class="cls-1" d="M794.45,200.23c7.4-2.1,15.06-6,19.28-13-29.42-16.38-107.39-53.27-214.53-53.27-1.21,0-2.35.08-3.55.1.37,7.35,2.27,15.52,8.48,20.74C699.22,155.82,768.36,186.54,794.45,200.23Z"/><path class="cls-1" d="M807.83,254.48c2.29,1.69,6.13,3.22,13.31,5.48.59-3.83,1.19-7.65,1.68-11.55A106.27,106.27,0,0,1,807.83,254.48Z"/><rect class="cls-2" x="578.53" y="471.21" width="19.2" height="63.09"/><rect class="cls-2" x="586.52" y="452.05" width="3.23" height="105.71"/><rect class="cls-1" x="619.07" y="457.54" width="19.18" height="63.09"/><rect class="cls-1" x="627.06" y="438.39" width="3.23" height="105.7"/><rect class="cls-4" width="1200" height="1000"/></svg>